<?xml version="1.0" standalone="no"?>
<!DOCTYPE svg PUBLIC "-//W3C//DTD SVG 1.1//EN" "http://www.w3.org/Graphics/SVG/1.1/DTD/svg11.dtd" >
<svg xmlns="http://www.w3.org/2000/svg" xmlns:xlink="http://www.w3.org/1999/xlink" version="1.1">
<metadata>
Created by FontForge 20160405 at Sat Jun  9 15:37:58 2018
 By www-data
Copyright (URW)++,Copyright 1999 by (URW)++ Design &#38; Development; Cyrillic glyphs added by Valek Filippov (C) 2001-2002; Missing Serbian glyphs and variations by Danilo Segan
</metadata>
<defs>
<font id="URWGothicL-Book" horiz-adv-x="655" >
  <font-face 
    font-family="URW Gothic L"
    font-weight="400"
    font-stretch="normal"
    units-per-em="1000"
    panose-1="0 0 0 0 0 0 0 0 0 0"
    ascent="800"
    descent="-200"
    x-height="547"
    cap-height="739"
    bbox="-115 -240 1151 1009"
    underline-thickness="58"
    underline-position="-183"
    unicode-range="U+000D-FB02"
  />
<missing-glyph horiz-adv-x="277" 
 />
    <glyph glyph-name="IJ" unicode="IJ" horiz-adv-x="686" 
d="M606 739v-508q0 -88 -27 -144q-1 -3 -2 -5q-47 -96 -168 -96q-124 0 -174 94q-21 41 -24 95h73q6 -85 74 -112q24 -9 52 -9q122 0 122 177v508h74zM76 0v739h74v-739h-74z" />
    <glyph glyph-name="ij" unicode="ij" horiz-adv-x="330" 
d="M266 547v-509q0 -112 -35 -158q-13 -18 -35 -35q-47 -34 -115 -37v71q74 4 96 56q15 35 15 103v509h74zM192 613v126h74v-126h-74zM63 0v547h74v-547h-74zM63 613v126h74v-126h-74z" />
    <glyph glyph-name="uniFB01" unicode="fi" horiz-adv-x="487" 
d="M98 0v480h-85v67h85l3 46q22 146 207 146v-67q-97 -1 -123 -50q-13 -26 -13 -75h136v-67h-136v-480h-74zM350 0v547h74v-547h-74zM350 613v126h74v-126h-74z" />
    <glyph glyph-name="uniFB02" unicode="fl" horiz-adv-x="485" 
d="M98 0v480h-85v67h85l3 46q22 146 207 146v-67q-97 -1 -123 -50q-13 -26 -13 -75h136v-67h-136v-480h-74zM348 0v739h74v-739h-74z" />
    <glyph glyph-name=".notdef" horiz-adv-x="277" 
 />
    <glyph glyph-name="glyph1" horiz-adv-x="0" 
 />
    <glyph glyph-name="uni000D" unicode="&#xd;" horiz-adv-x="333" 
 />
    <glyph glyph-name="space" unicode=" " horiz-adv-x="277" 
 />
    <glyph glyph-name="exclam" unicode="!" horiz-adv-x="295" 
d="M111 0v126h74v-126h-74zM111 197v542h74v-542h-74z" />
    <glyph glyph-name="quotedbl" unicode="&#x22;" horiz-adv-x="309" 
d="M237 513h-50v226h50v-226zM124 513h-50v226h50v-226z" />
    <glyph glyph-name="numbersign" unicode="#" horiz-adv-x="554" 
d="M534 298v-61h-135l-43 -237h-66l43 237h-164l-45 -237h-65l45 237h-99v61h111l29 155h-124v61h135l42 225h64l-41 -225h163l40 225h67l-41 -225h99v-61h-110l-28 -155h123zM373 453h-163l-29 -155h163z" />
    <glyph glyph-name="dollar" unicode="$" horiz-adv-x="554" 
d="M245 -56v85q-142 26 -166 144q-4 22 -4 45v10h69q6 -100 80 -129q24 -9 53 -9q72 0 108 59q20 33 20 75q0 61 -42 97q-28 23 -93 42q-87 27 -119 60q-6 6 -12 13q-39 47 -39 116q0 98 77 148q30 20 68 28v82h66v-82q110 -17 147 -109q13 -33 15 -72h-70q-5 89 -74 112
q-19 6 -42 6q-76 0 -103 -63q-10 -25 -10 -56q0 -56 40 -83q26 -17 82 -35q89 -29 122 -59l6 -6q55 -52 55 -137q0 -101 -72 -158q-42 -33 -96 -39v-85h-66z" />
    <glyph glyph-name="percent" unicode="%" horiz-adv-x="775" 
d="M514 739h74l-334 -739h-72zM578 338q81 0 133 -64q41 -49 41 -111q0 -84 -65 -137q-49 -39 -111 -39q-82 0 -135 65q-40 48 -40 110q0 85 66 137q48 39 111 39zM577 272q-60 0 -92 -50q-17 -27 -17 -60q0 -58 48 -90q27 -19 60 -19q57 0 89 48q19 28 19 61q0 58 -48 91
q-27 19 -59 19zM190 749q81 0 134 -65q40 -49 40 -111q0 -84 -65 -137q-49 -39 -111 -39q-83 0 -136 65q-39 49 -39 111q0 85 66 137q48 39 111 39zM189 683q-59 0 -91 -49q-19 -27 -19 -61q0 -58 48 -91q28 -19 61 -19q57 0 90 49q18 27 18 61q0 58 -48 91q-27 19 -59 19z
" />
    <glyph glyph-name="ampersand" unicode="&#x26;" horiz-adv-x="757" 
d="M602 481h82l-136 -261l187 -182l-51 -51l-171 166q-66 -132 -160 -158q-29 -8 -63 -8q-102 0 -167 65q-63 71 -66 161q0 100 81 165q36 28 89 55q-71 74 -80 127q-2 13 -2 28q0 80 67 129q47 35 108 35q93 0 144 -67l17 -27q17 -35 17 -75q0 -78 -67 -128
q-19 -15 -77 -44l140 -138zM458 206l-178 174q-113 -55 -139 -116q-11 -26 -11 -59q0 -75 61 -120q41 -31 94 -31q74 0 128 74q22 31 45 78zM300 464q119 45 127 113q1 6 1 12q0 54 -48 81l-26 11q-15 4 -32 4q-59 0 -89 -46q-13 -25 -14 -49q0 -48 65 -111q8 -7 16 -15z
" />
    <glyph glyph-name="quotesingle" unicode="'" horiz-adv-x="198" 
d="M124 513h-50v226h50v-226z" />
    <glyph glyph-name="parenleft" unicode="(" horiz-adv-x="369" 
d="M335 739v-63q-80 -48 -125 -119l-4 -6q-75 -115 -75 -242q0 -144 91 -269q2 -2 4 -5q40 -52 109 -95v-65q-96 35 -161 116q-10 13 -21 28q-96 132 -96 290q0 154 92 284q23 34 52 63q52 53 124 79z" />
    <glyph glyph-name="parenright" unicode=")" horiz-adv-x="369" 
d="M34 -125v64q80 47 129 124q75 117 75 243q0 141 -89 265l-6 8q-42 55 -109 95v65q95 -34 162 -117q10 -12 20 -27q96 -132 96 -290q0 -155 -94 -288q-23 -32 -50 -59q-55 -55 -128 -81z" />
    <glyph glyph-name="asterisk" unicode="*" horiz-adv-x="425" 
d="M267 752l47 -28l-57 -92l103 3v-52l-102 2l55 -90l-47 -27l-53 91l-53 -91l-48 28l57 89l-105 -2v52l105 -3l-56 92l49 28l53 -90z" />
    <glyph glyph-name="plus" unicode="+" horiz-adv-x="606" 
d="M265 341v216h77v-216h213v-74h-213v-218h-77v218h-214v74h214z" />
    <glyph glyph-name="comma" unicode="," horiz-adv-x="277" 
d="M91 -67l88 193h74l-88 -193h-74z" />
    <glyph glyph-name="hyphen" unicode="-" horiz-adv-x="332" 
d="M31 296h271v-63h-271v63z" />
    <glyph glyph-name="period" unicode="." horiz-adv-x="277" 
d="M101 0v126h74v-126h-74z" />
    <glyph glyph-name="slash" unicode="/" horiz-adv-x="437" 
d="M40 -128l287 867h70l-290 -867h-67z" />
    <glyph glyph-name="zero" unicode="0" horiz-adv-x="554" 
d="M30 269v210q0 124 53 190q66 83 194 83q133 0 202 -94q1 -3 3 -5q39 -54 42 -143q1 -14 1 -31v-210q0 -125 -44 -190q-63 -92 -198 -92q-152 0 -217 111q-36 62 -36 171zM452 281v181q0 107 -30 152q-2 2 -4 5q-48 65 -140 66q-93 0 -141 -66l-8 -12q-26 -45 -26 -145
v-181q0 -110 33 -157q47 -70 144 -70q99 0 142 70l6 10q24 46 24 147z" />
    <glyph glyph-name="one" unicode="1" horiz-adv-x="554" 
d="M281 0v672h-126v67h199v-739h-73z" />
    <glyph glyph-name="two" unicode="2" horiz-adv-x="554" 
d="M33 0v67l259 250q66 63 85 87l3 3q52 61 52 124q0 83 -66 127q-41 27 -94 27q-87 0 -132 -67q-5 -8 -9 -16q-19 -39 -19 -102h-73q0 65 16 108q36 97 133 130q40 14 85 14q116 0 183 -81q50 -60 50 -144q0 -76 -53 -145q-29 -37 -83 -88l-237 -227h369v-67h-469z" />
    <glyph glyph-name="three" unicode="3" horiz-adv-x="554" 
d="M155 555h-73q4 122 88 172q43 25 99 25q99 0 152 -73l17 -31l12 -35q5 -23 5 -48q0 -89 -76 -142q125 -63 125 -199q0 -109 -79 -179q-65 -58 -153 -58q-109 0 -178 77q-17 18 -29 39q-29 51 -32 128h73q5 -69 29 -105q49 -72 135 -72q81 0 128 65q32 44 32 101
q0 82 -63 132q-27 22 -62 30q-24 5 -86 6v66l17 -1q9 -1 19 -1q83 0 114 61q12 24 12 55q0 72 -55 103q-17 9 -36 12q-10 2 -21 2q-86 0 -108 -82l-6 -37v-11z" />
    <glyph glyph-name="four" unicode="4" horiz-adv-x="554" 
d="M386 0v135h-374v67l360 537h87v-537h68v-67h-68v-135h-73zM386 202v435l-289 -435h289z" />
    <glyph glyph-name="five" unicode="5" horiz-adv-x="554" 
d="M67 375l66 364h333v-67h-274l-36 -204q63 35 127 35q111 0 183 -84q62 -72 62 -173q0 -117 -81 -193q-70 -66 -167 -66q-114 0 -188 85q-25 28 -41 62q-16 36 -25 98h72q13 -101 86 -150q42 -28 93 -28q85 0 138 70q39 53 39 122q0 96 -68 151q-47 39 -109 39
q-86 0 -153 -83z" />
    <glyph glyph-name="six" unicode="6" horiz-adv-x="554" 
d="M296 739h85l-174 -257q46 21 87 21q105 0 174 -83q61 -72 61 -171q0 -126 -85 -202q-68 -60 -164 -60q-120 0 -194 86q-61 71 -61 171q0 72 37 140q17 33 51 83zM278 436q-88 0 -141 -70q-38 -51 -38 -118q0 -101 71 -157q47 -37 110 -37q90 0 140 73q35 50 35 119
q0 101 -70 155q-46 35 -107 35z" />
    <glyph glyph-name="seven" unicode="7" horiz-adv-x="554" 
d="M110 0l304 672h-350v67h426v-67l-302 -672h-78z" />
    <glyph glyph-name="eight" unicode="8" horiz-adv-x="554" 
d="M167 413q-34 20 -48 38q-38 44 -38 110q0 95 73 151q53 40 124 40q101 0 157 -73q38 -50 38 -118q0 -107 -88 -148q121 -53 127 -183v-12q0 -115 -82 -181q-62 -50 -150 -50q-114 0 -183 79q-55 63 -55 149q0 129 111 191q7 3 14 7zM278 375q-90 0 -136 -68
q-26 -39 -26 -91q0 -90 68 -135q41 -27 95 -27q87 0 132 68q27 41 27 94q0 88 -67 132q-39 26 -93 27zM277 685q-72 0 -105 -55q-17 -28 -17 -63q0 -70 57 -105q30 -18 69 -18q66 0 99 54q19 30 19 67q0 71 -57 103q-29 17 -65 17z" />
    <glyph glyph-name="nine" unicode="9" horiz-adv-x="554" 
d="M258 0h-85l174 257q-46 -21 -87 -21q-105 0 -174 83q-61 72 -61 171q0 126 85 202q68 60 164 60q120 0 194 -86q61 -71 61 -171q0 -72 -37 -140l-42 -69l-9 -14zM274 685q-91 0 -141 -73l-17 -31q-17 -40 -17 -88q0 -101 70 -155q46 -35 107 -35q88 0 141 70
q38 51 38 118q0 101 -71 157q-47 37 -110 37z" />
    <glyph glyph-name="colon" unicode=":" horiz-adv-x="277" 
d="M101 0v126h74v-126h-74zM101 381v126h74v-126h-74z" />
    <glyph glyph-name="semicolon" unicode=";" horiz-adv-x="277" 
d="M41 -67l88 193h74l-88 -193h-74zM125 381v126h74v-126h-74z" />
    <glyph glyph-name="less" unicode="&#x3c;" horiz-adv-x="606" 
d="M558 565v-78l-401 -187l401 -185v-78l-509 231v65z" />
    <glyph glyph-name="equal" unicode="=" horiz-adv-x="606" 
d="M555 436v-74h-504v74h504zM555 238v-74h-504v74h504z" />
    <glyph glyph-name="greater" unicode="&#x3e;" horiz-adv-x="606" 
d="M48 37v78l402 187l-402 185v78l509 -231v-65z" />
    <glyph glyph-name="question" unicode="?" horiz-adv-x="591" 
d="M261 0v126h74v-126h-74zM135 508h-70q3 85 33 136q1 2 3 5q60 94 179 102q9 1 19 1q113 0 178 -79q48 -57 48 -138q0 -74 -54 -135q-15 -16 -36 -35q-81 -71 -96 -129q-6 -20 -6 -43h-70q1 86 54 151q19 25 50 53q67 63 78 99q6 18 6 41q0 81 -64 123q-38 25 -88 25
q-82 0 -128 -59q-7 -9 -12 -18q-19 -33 -24 -100z" />
    <glyph glyph-name="at" unicode="@" horiz-adv-x="867" 
d="M656 574l-93 -278q-20 -61 -20 -77q0 -21 24 -27q5 -1 10 -1q41 0 89 49q78 83 81 194q0 119 -92 196q-83 71 -203 71q-134 0 -230 -95q-96 -103 -99 -238q0 -138 95 -234q96 -97 235 -97q138 0 234 101l40 -33q-73 -86 -201 -111q-37 -7 -75 -7q-154 0 -263 104
q-108 103 -116 254q-1 11 -1 22q0 153 104 264q101 109 250 120q14 1 28 1q127 0 225 -76q5 -4 11 -9q108 -91 108 -234q0 -141 -102 -235q-63 -59 -131 -59q-60 0 -82 44q-3 6 -6 13q-52 -52 -119 -52q-79 0 -117 65q-21 36 -21 83q0 114 75 207q70 87 158 94h11
q47 0 80 -22q20 -12 35 -47l17 50h61zM466 539q-65 0 -119 -75q-56 -76 -56 -170q0 -63 46 -85q15 -7 34 -7q63 0 112 84q2 3 3 5q42 77 52 149q2 11 2 19q0 59 -46 75q-13 5 -28 5z" />
    <glyph glyph-name="A" unicode="A" horiz-adv-x="740" 
d="M11 0l317 739h83l318 -739h-81l-107 249h-344l-108 -249h-78zM225 316h287l-142 339z" />
    <glyph glyph-name="B" unicode="B" horiz-adv-x="574" 
d="M76 0v739h173q127 0 187 -43q66 -49 66 -149q0 -107 -82 -153q111 -45 122 -152q2 -14 2 -30q0 -103 -63 -159l-20 -14q-73 -38 -202 -39h-183zM150 67h101q110 0 160 27q46 23 56 88q2 13 2 26q0 90 -69 125q-43 21 -162 21h-88v-287zM150 421h90q88 0 130 19
q57 26 57 106q0 64 -36 95q-4 3 -7 5q-38 26 -145 26h-89v-251z" />
    <glyph glyph-name="C" unicode="C" horiz-adv-x="813" 
d="M688 194h82q-112 -207 -338 -207q-164 0 -275 107q-109 115 -113 273q0 165 108 275q109 109 275 110q160 0 265 -100q48 -45 75 -105h-83q-37 58 -78 85q-1 1 -3 2q-74 50 -173 50q-136 0 -226 -95q-85 -89 -85 -219q0 -129 91 -222q91 -92 221 -93q106 0 183 61
q30 23 74 78z" />
    <glyph glyph-name="D" unicode="D" horiz-adv-x="744" 
d="M76 0v739h174q168 0 257 -44q13 -7 25 -14q153 -91 167 -280q1 -17 1 -34q0 -206 -164 -307l-7 -5q-94 -55 -254 -55h-199zM150 67h103q166 0 245 51q11 7 21 15q98 79 105 218q1 9 1 19q0 141 -94 225q-19 16 -40 29q-79 48 -238 48h-103v-605z" />
    <glyph glyph-name="E" unicode="E" horiz-adv-x="536" 
d="M76 0v739h404v-67h-330v-265h319v-67h-319v-273h330v-67h-404z" />
    <glyph glyph-name="F" unicode="F" horiz-adv-x="485" 
d="M76 0v739h375v-67h-301v-267h290v-67h-290v-338h-74z" />
    <glyph glyph-name="G" unicode="G" horiz-adv-x="872" 
d="M329 341h502q-8 -126 -97 -229q-110 -125 -288 -125q-165 0 -280 106q-113 103 -121 255q-1 12 -1 23q0 155 107 264q106 109 264 116q10 1 21 1q155 0 262 -90q61 -51 88 -120h-83q-61 108 -189 135q-35 7 -72 7q-140 0 -233 -94q-90 -91 -90 -221q0 -133 95 -224
q94 -90 229 -90q133 0 221 88q62 62 78 131h-413v67z" />
    <glyph glyph-name="H" unicode="H" horiz-adv-x="683" 
d="M76 0v739h74v-325h383v325h74v-739h-74v347h-383v-347h-74z" />
    <glyph glyph-name="I" unicode="I" horiz-adv-x="226" 
d="M76 0v739h74v-739h-74z" />
    <glyph glyph-name="J" unicode="J" horiz-adv-x="482" 
d="M406 739v-508q0 -88 -27 -144q-1 -3 -2 -5q-47 -96 -168 -96q-124 0 -174 94q-21 41 -24 95h73q6 -85 74 -112q24 -9 52 -9q122 0 122 177v508h74z" />
    <glyph glyph-name="K" unicode="K" horiz-adv-x="591" 
d="M76 0v739h74v-425l342 425h93l-292 -360l292 -379h-93l-246 320l-96 -118v-202h-74z" />
    <glyph glyph-name="L" unicode="L" horiz-adv-x="462" 
d="M76 0v739h74v-672h306v-67h-380z" />
    <glyph glyph-name="M" unicode="M" horiz-adv-x="919" 
d="M76 0v739h115l269 -629l268 629h115v-739h-74v658l-278 -658h-64l-277 658v-658h-74z" />
    <glyph glyph-name="N" unicode="N" horiz-adv-x="740" 
d="M76 0v739h100l414 -613v613h74v-739h-74l-440 650v-650h-74z" />
    <glyph glyph-name="O" unicode="O" horiz-adv-x="869" 
d="M435 752q153 0 265 -103l33 -33q92 -108 92 -247q0 -147 -103 -257q-101 -109 -248 -123q-20 -2 -39 -2q-156 0 -269 105q-110 103 -121 253q-1 14 -1 29q0 143 103 252q100 108 245 124q21 2 43 2zM435 684q-127 0 -220 -90q-93 -98 -96 -222q0 -131 92 -224
q93 -93 224 -93q128 0 220 91q93 96 95 222q0 129 -92 222l-33 29q-85 65 -190 65z" />
    <glyph glyph-name="P" unicode="P" horiz-adv-x="592" 
d="M76 0v739h204q133 0 197 -39q79 -47 87 -162q1 -11 1 -23q0 -116 -74 -170q-58 -42 -170 -46h-29h-142v-299h-74zM150 366h137q99 0 142 25q55 31 61 110v14q0 101 -67 135q-44 22 -168 22h-105v-306z" />
    <glyph glyph-name="Q" unicode="Q" horiz-adv-x="871" 
d="M827 56v-69q-81 1 -136 42q-13 10 -26 22q-94 -64 -222 -64q-160 0 -275 104q-111 101 -123 247q-1 16 -1 31q0 161 110 269q111 110 279 114h11q169 0 282 -108q111 -112 113 -273q0 -173 -123 -278q53 -38 96 -38q9 0 15 1zM161 216q29 -53 86 -96q85 -65 196 -65
q89 0 162 45q-123 112 -252 132q-36 5 -76 5q-63 0 -116 -21zM130 279q78 26 158 26q157 0 281 -88q54 -40 94 -75q101 97 101 229q0 135 -96 226q-92 87 -226 87q-140 0 -234 -96l-27 -32q-62 -84 -62 -193q0 -35 11 -84z" />
    <glyph glyph-name="R" unicode="R" horiz-adv-x="607" 
d="M359 276l207 -276h-92l-249 335q114 0 165 13q112 30 112 156q0 103 -78 141q-57 27 -170 27h-104v-672h-74v739h183q141 0 207 -36q111 -60 111 -202q0 -163 -147 -210q-32 -11 -71 -15z" />
    <glyph glyph-name="S" unicode="S" horiz-adv-x="498" 
d="M22 207h79q7 -62 35 -97q48 -52 119 -55q80 0 121 62q25 37 25 85q0 70 -51 106q-34 24 -114 49q-93 28 -122 51q-8 6 -16 14q-52 49 -52 131q0 101 77 159q54 40 128 40q113 0 170 -81q35 -50 37 -119h-77q-5 86 -71 118q-27 14 -61 14q-72 0 -108 -57q-20 -32 -20 -72
q0 -54 35 -86q24 -20 100 -43q4 -2 9 -3q96 -29 137 -59q70 -62 74 -158q0 -108 -80 -171q-60 -48 -143 -48q-124 0 -188 89q-39 55 -43 131z" />
    <glyph glyph-name="T" unicode="T" horiz-adv-x="426" 
d="M176 0v672h-169v67h412v-67h-169v-672h-74z" />
    <glyph glyph-name="U" unicode="U" 
d="M76 739h74v-461q0 -101 34 -153q38 -58 118 -68q13 -2 26 -2q82 0 130 54q7 7 13 16q34 52 34 153v461h74v-461q0 -124 -45 -190q-3 -5 -7 -10q-60 -78 -170 -89q-15 -2 -30 -2q-111 0 -182 71q-9 10 -17 20q-49 64 -52 178v22v461z" />
    <glyph glyph-name="V" unicode="V" horiz-adv-x="702" 
d="M314 0l-304 739h81l260 -647l261 647h80l-306 -739h-72z" />
    <glyph glyph-name="W" unicode="W" horiz-adv-x="960" 
d="M221 0l-211 739h76l182 -643l177 643h70l177 -643l182 643h76l-212 -739h-95l-164 606l-162 -606h-96z" />
    <glyph glyph-name="X" unicode="X" horiz-adv-x="609" 
d="M8 0l251 378l-237 361h87l196 -296l195 296h86l-237 -361l252 -378h-87l-209 316l-210 -316h-87z" />
    <glyph glyph-name="Y" unicode="Y" horiz-adv-x="592" 
d="M258 0v247l-256 492h82l210 -414l215 414h81l-258 -492v-247h-74z" />
    <glyph glyph-name="Z" unicode="Z" horiz-adv-x="480" 
d="M17 0v67l363 605h-352v67h435v-67l-362 -605h373v-67h-457z" />
    <glyph glyph-name="bracketleft" unicode="[" horiz-adv-x="351" 
d="M313 -50v-75q-79 23 -135 82q-59 66 -65 174q-1 15 -1 33v298q0 126 73 202q54 55 128 75v-75q-87 -38 -113 -102q-18 -43 -18 -114v-271q0 -118 47 -170q28 -32 84 -57z" />
    <glyph glyph-name="backslash" unicode="\" horiz-adv-x="605" 
d="M464 0h-70l-310 739h70z" />
    <glyph glyph-name="bracketright" unicode="]" horiz-adv-x="351" 
d="M38 664v75q81 -23 135 -82q58 -64 65 -168l1 -39v-297q0 -127 -73 -203q-54 -55 -128 -75v75q87 39 113 101q18 43 18 115v272q0 118 -47 170q-29 31 -84 56z" />
    <glyph glyph-name="asciicircum" unicode="^" horiz-adv-x="606" 
d="M588 180h-81l-203 480l-205 -480h-81l243 559h85z" />
    <glyph glyph-name="underscore" unicode="_" horiz-adv-x="500" 
d="M0 -67h500v-58h-500v58z" />
    <glyph glyph-name="grave" unicode="`" horiz-adv-x="378" 
d="M106 776l198 -110l-33 -56l-197 108z" />
    <glyph glyph-name="a" unicode="a" horiz-adv-x="683" 
d="M620 547v-547h-74v96q-66 -88 -153 -104q-27 -5 -58 -5q-135 0 -219 92q-74 79 -74 193q0 130 91 214q81 74 197 74q131 0 208 -99l8 -11v97h74zM332 492q-98 0 -162 -74q-41 -46 -50 -107q-3 -17 -3 -34q0 -105 76 -170q61 -52 143 -52q98 0 160 76q50 61 50 145
q0 102 -75 166q-59 50 -139 50z" />
    <glyph glyph-name="b" unicode="b" horiz-adv-x="682" 
d="M63 0v739h74v-286q78 104 215 107q127 0 211 -89q77 -82 77 -197q0 -131 -92 -214q-81 -73 -197 -73q-124 0 -197 85q-9 11 -17 22v-94h-74zM350 492q-102 0 -166 -75q-52 -60 -52 -141q0 -92 63 -156q64 -65 154 -65q104 0 167 77q49 61 49 144q0 104 -76 167
q-58 49 -139 49z" />
    <glyph glyph-name="c" unicode="c" horiz-adv-x="647" 
d="M524 161h84q-38 -72 -80 -108l-6 -4q-79 -62 -182 -62q-132 0 -218 89q-80 82 -80 199q0 122 89 206q84 79 204 79q130 0 215 -90q35 -36 55 -83l2 -6h-83q-64 109 -190 111q-102 0 -166 -76q-31 -37 -43 -83q-8 -29 -8 -60q0 -100 75 -165q62 -53 145 -53q90 0 154 67
q16 17 33 39z" />
    <glyph glyph-name="d" unicode="d" horiz-adv-x="685" 
d="M622 739v-739h-74v99q-67 -96 -166 -109q-20 -3 -42 -3q-133 0 -220 90q-78 81 -78 196q0 128 91 211q82 76 200 76q132 0 215 -100v279h74zM331 492q-98 0 -162 -74q-52 -61 -52 -142q0 -104 76 -169q62 -52 145 -52q95 0 159 74q54 63 54 146q0 98 -75 163
q-62 54 -145 54z" />
    <glyph glyph-name="e" unicode="e" horiz-adv-x="650" 
d="M611 249h-495q5 -90 80 -148q59 -46 133 -46q91 0 153 66q25 26 38 59h77q-21 -64 -80 -120q-78 -73 -186 -73q-126 0 -210 89q-79 83 -79 200q0 124 88 207q81 77 196 77q119 0 202 -82q27 -27 46 -60q37 -65 37 -169zM118 316h419q-26 113 -119 156q-42 20 -93 20
q-102 0 -163 -78q-33 -42 -44 -98z" />
    <glyph glyph-name="f" unicode="f" horiz-adv-x="314" 
d="M101 0v480h-85v67h85l3 46q22 146 207 146v-67q-97 -1 -123 -50q-13 -26 -13 -75h136v-67h-136v-480h-74z" />
    <glyph glyph-name="g" unicode="g" horiz-adv-x="673" 
d="M610 547v-449q0 -133 -39 -197q-5 -9 -12 -18q-67 -88 -197 -97q-12 -1 -25 -1q-174 0 -250 138q-15 27 -25 60h72q31 -55 54 -75q58 -55 147 -55q113 0 165 75q8 11 14 24q22 47 22 122v37q-63 -124 -209 -124q-125 0 -208 88q-77 81 -77 196q0 133 90 216q78 73 190 73
q133 0 214 -110v97h74zM326 492q-105 0 -165 -78q-44 -57 -44 -137q0 -109 76 -174q57 -48 134 -48q100 0 161 78q48 62 48 147q0 100 -74 163q-58 49 -136 49z" />
    <glyph glyph-name="h" unicode="h" horiz-adv-x="610" 
d="M63 0v739h74v-263q58 84 174 84q115 0 180 -74q5 -5 9 -11q47 -63 47 -181v-294h-74v294q0 92 -37 138q-43 55 -120 60h-12q-83 0 -132 -61q-2 -3 -5 -7q-30 -41 -30 -124v-300h-74z" />
    <glyph glyph-name="i" unicode="i" horiz-adv-x="200" 
d="M63 0v547h74v-547h-74zM63 613v126h74v-126h-74z" />
    <glyph glyph-name="j" unicode="j" horiz-adv-x="203" 
d="M140 547v-509q0 -112 -35 -158q-13 -18 -35 -35q-47 -34 -115 -37v71q74 4 96 56q15 35 15 103v509h74zM66 613v126h74v-126h-74z" />
    <glyph glyph-name="k" unicode="k" horiz-adv-x="502" 
d="M63 0v739h74v-524l255 332h91l-213 -275l227 -272h-92l-182 219l-86 -106v-113h-74z" />
    <glyph glyph-name="l" unicode="l" horiz-adv-x="200" 
d="M63 0v739h74v-739h-74z" />
    <glyph glyph-name="m" unicode="m" horiz-adv-x="938" 
d="M63 0v547h74v-63q50 65 120 74q16 2 34 2q106 0 164 -82q8 -11 15 -23q64 101 178 106h12q109 0 168 -75q2 -1 3 -3q44 -55 44 -158v-325h-74v317q0 82 -30 124q-39 52 -115 52q-80 0 -121 -59l-3 -4q-26 -38 -26 -113v-317h-74v319q0 83 -34 123q-42 50 -114 50
q-99 0 -133 -89q-14 -36 -14 -84v-319h-74z" />
    <glyph glyph-name="n" unicode="n" horiz-adv-x="610" 
d="M63 0v547h74v-71q69 84 176 84q118 0 186 -85q43 -57 47 -151q1 -17 1 -37v-287h-74v287q0 97 -36 146q-47 58 -133 59q-86 0 -133 -61q-3 -3 -5 -6q-29 -42 -29 -124v-301h-74z" />
    <glyph glyph-name="o" unicode="o" 
d="M329 560q132 0 214 -92q70 -80 70 -196q0 -133 -90 -215l-32 -25q-69 -45 -156 -45q-137 0 -221 93q-72 80 -72 197q0 126 90 208q81 75 197 75zM329 492q-103 0 -165 -77q-36 -46 -45 -106q-2 -17 -2 -34q0 -112 80 -175q57 -45 136 -45q103 0 162 79q43 58 43 137
q0 110 -76 174q-44 37 -103 45q-15 2 -30 2z" />
    <glyph glyph-name="p" unicode="p" horiz-adv-x="682" 
d="M63 547h74v-94q78 103 215 107q129 0 213 -91q75 -81 75 -197q0 -125 -89 -208q-83 -77 -201 -77q-140 0 -213 107v-286h-74v739zM349 492q-100 0 -165 -74q-52 -61 -52 -142q0 -107 77 -172q59 -49 141 -49q103 0 166 76q49 60 49 141q0 107 -77 171q-38 32 -88 43
q-25 6 -51 6z" />
    <glyph glyph-name="q" unicode="q" horiz-adv-x="682" 
d="M619 547v-739h-74v286q-73 -107 -213 -107q-128 0 -212 89q-78 82 -78 197q0 127 89 211q82 76 199 76q145 0 215 -107v94h74zM333 492q-104 0 -167 -77q-49 -60 -49 -143q0 -104 76 -167q59 -50 140 -50q100 0 165 74q52 60 52 141q0 108 -77 173q-59 49 -140 49z" />
    <glyph glyph-name="r" unicode="r" horiz-adv-x="301" 
d="M63 0v547h74v-78q37 77 129 89q12 1 26 2v-73q-155 -15 -155 -168v-319h-74z" />
    <glyph glyph-name="s" unicode="s" horiz-adv-x="388" 
d="M18 161h73q5 -84 71 -102q15 -4 32 -4q55 0 80 47q12 21 12 48q0 47 -35 71q-24 16 -71 34q-75 31 -89 42q-4 3 -12 11q-41 38 -41 98q0 83 64 127q40 27 91 27q87 0 129 -66q23 -35 25 -82h-75q-6 78 -80 80q-47 0 -69 -41q-10 -17 -10 -38q0 -47 50 -72q20 -10 103 -44
q95 -40 95 -140q0 -94 -70 -142q-41 -28 -97 -28q-103 0 -150 76q-25 42 -26 98z" />
    <glyph glyph-name="t" unicode="t" horiz-adv-x="339" 
d="M130 0v480h-118v67h118v192h74v-192h123v-67h-123v-480h-74z" />
    <glyph glyph-name="u" unicode="u" horiz-adv-x="608" 
d="M545 547v-547h-74v85q-49 -90 -154 -97l-22 -1q-126 0 -189 87q-43 59 -43 178v295h74v-295q0 -85 26 -128q35 -61 120 -68q9 -1 18 -1q88 0 137 68q33 49 33 143v281h74z" />
    <glyph glyph-name="v" unicode="v" horiz-adv-x="554" 
d="M238 0l-230 547h75l192 -460l196 460h75l-230 -547h-78z" />
    <glyph glyph-name="w" unicode="w" horiz-adv-x="831" 
d="M216 0l-209 547h74l174 -458l129 391h61l129 -391l178 458h72l-212 -547h-79l-119 363l-118 -363h-80z" />
    <glyph glyph-name="x" unicode="x" horiz-adv-x="480" 
d="M8 0l190 279l-190 268h84l148 -211l147 211h85l-191 -268l191 -279h-85l-147 219l-148 -219h-84z" />
    <glyph glyph-name="y" unicode="y" horiz-adv-x="536" 
d="M132 -192l89 210l-212 529h81l173 -436l185 436h79l-316 -739h-79z" />
    <glyph glyph-name="z" unicode="z" horiz-adv-x="425" 
d="M10 0v67l302 413h-292v67h376v-63l-299 -417h318v-67h-405z" />
    <glyph glyph-name="braceleft" unicode="{" horiz-adv-x="351" 
d="M193 601v-170q0 -72 -34 -98q-14 -11 -37 -20q-12 -4 -18 -7q16 -6 18 -6q51 -20 64 -59q7 -22 7 -59v-170q0 -48 25 -61q14 -6 42 -9l11 -1v-67q-74 1 -99 15l-10 6q-46 30 -46 118v170q0 54 -23 70q-16 12 -56 19v69q57 10 70 35q9 17 9 54v170q0 88 46 118
q25 17 77 20q12 0 32 1v-67q-45 -5 -55 -10q-23 -12 -23 -61z" />
    <glyph glyph-name="bar" unicode="|" horiz-adv-x="672" 
d="M368 739v-739h-64v739h64z" />
    <glyph glyph-name="braceright" unicode="}" horiz-adv-x="351" 
d="M116 12v170q0 71 34 98q14 11 37 20q2 0 18 6q-6 3 -18 7q-51 20 -64 58q-7 23 -7 60v170q0 37 -14 54q-10 12 -53 16l-11 1v67q82 -2 108 -19q9 -6 18 -16q29 -31 29 -104v-170q0 -55 23 -71q15 -11 53 -18v-69q-54 -10 -67 -34l-7 -21q-2 -13 -2 -34v-170
q0 -78 -34 -109q-26 -24 -76 -28q-18 -2 -45 -2v67l11 1q44 4 55 19q12 17 12 51z" />
    <glyph glyph-name="asciitilde" unicode="~" horiz-adv-x="606" 
d="M511 390l44 -47q-40 -79 -101 -104q-20 -8 -39 -8q-33 0 -93 26l-55 22q-50 21 -73 21q-39 0 -66 -35q-12 -17 -35 -55l-42 47q53 95 105 114q17 6 38 6q33 0 77 -19l65 -27q55 -23 80 -23q47 0 95 82z" />
    <glyph glyph-name="exclamdown" unicode="&#xa1;" horiz-adv-x="295" 
d="M111 -192v544h74v-544h-74zM111 421v126h74v-126h-74z" />
    <glyph glyph-name="cent" unicode="&#xa2;" horiz-adv-x="554" 
d="M259 62v90q-106 8 -168 90q-46 61 -46 140q0 115 85 181q54 43 129 51v93h66v-93q104 -14 160 -101l19 -36q3 -7 5 -14h-83q-47 84 -143 84q-86 0 -133 -65q-31 -43 -31 -99q0 -83 63 -132q44 -34 100 -34q71 0 128 59l12 14h81q-29 -78 -107 -117q-34 -16 -71 -21v-90
h-66z" />
    <glyph glyph-name="sterling" unicode="&#xa3;" horiz-adv-x="554" 
d="M59 0v67h139q42 47 42 116q0 59 -37 105q-20 24 -59 59h-126v67h75q-22 53 -22 98q0 120 84 189q63 51 151 51q123 0 194 -84l22 -30q26 -44 32 -97h-69q-22 101 -110 133q-31 11 -68 11q-91 0 -136 -72q-26 -43 -26 -100q0 -45 24 -92q2 -3 4 -7h284v-67h-215
q72 -77 72 -163q0 -51 -29 -117h57q88 0 128 37q42 38 47 103q1 6 1 12q0 19 -6 49h72q8 -31 8 -55q0 -94 -62 -154q-7 -7 -15 -13q-59 -46 -171 -46h-285z" />
    <glyph glyph-name="currency" unicode="&#xa4;" horiz-adv-x="554" 
d="M29 494l55 54l43 -42q73 47 149 47q85 0 150 -46l43 42l54 -55l-41 -42q46 -68 46 -152q0 -89 -47 -147l42 -42l-54 -53l-41 42q-69 -46 -132 -49q-10 -1 -20 -1q-72 0 -135 40q-7 5 -15 10l-42 -42l-53 54l41 41q-46 63 -46 150q0 83 47 149zM280 483q-96 0 -148 -71
q-35 -47 -35 -110q0 -91 69 -143q48 -37 113 -37q89 0 141 68q37 49 37 113q0 92 -68 145q-47 35 -109 35z" />
    <glyph glyph-name="yen" unicode="&#xa5;" horiz-adv-x="554" 
d="M260 0v237h-210v67h183l-49 92h-141v67h105l-148 276h76l221 -412l216 412h76l-146 -276h103v-67h-139l-48 -92h180v-67h-206v-237h-73z" />
    <glyph glyph-name="brokenbar" unicode="&#xa6;" horiz-adv-x="672" 
d="M368 739v-295h-64v295h64zM368 295v-295h-64v295h64z" />
    <glyph glyph-name="section" unicode="&#xa7;" horiz-adv-x="615" 
d="M483 606h-71q-17 79 -105 79q-65 0 -93 -48q-11 -21 -11 -46q0 -57 59 -86l158 -74q109 -52 109 -142q0 -86 -76 -143q48 -51 48 -109q0 -90 -71 -141q-50 -37 -117 -37q-105 0 -164 78q-41 54 -43 127h68q6 -87 73 -122q29 -16 66 -16q68 0 102 51q18 26 18 58
q0 48 -65 87q-13 7 -29 15l-143 70q-81 41 -100 83q-9 20 -9 49q0 91 86 152q-38 41 -38 98q0 86 68 133q45 30 104 30q96 0 146 -66l16 -27q12 -25 14 -53zM400 365l-188 89q-51 -35 -57 -94v-10q0 -45 54 -72l198 -96q50 44 54 98q0 57 -61 85z" />
    <glyph glyph-name="dieresis" unicode="&#xa8;" horiz-adv-x="369" 
d="M74 749h74v-126h-74v126zM221 749h74v-126h-74v126z" />
    <glyph glyph-name="copyright" unicode="&#xa9;" horiz-adv-x="747" 
d="M501 261h75q-49 -85 -143 -107q-25 -6 -51 -6q-97 0 -162 75q-57 64 -57 150q0 100 75 166q62 55 145 55q119 0 185 -99q6 -9 11 -18h-74q-51 61 -121 61q-77 0 -125 -62q-35 -46 -35 -104q0 -79 60 -131q44 -37 99 -37q70 0 118 57zM372 752q156 0 266 -106
q109 -105 116 -260q1 -10 1 -21q0 -146 -102 -255q-100 -107 -244 -121q-18 -2 -36 -2q-151 0 -261 103q-108 101 -120 249q-1 16 -1 31q0 150 102 260q101 108 246 121q17 1 33 1zM372 700q-133 0 -227 -95l-29 -32q-69 -90 -69 -203q0 -136 94 -232q99 -97 232 -99
q131 0 226 93q96 93 100 223v10q0 142 -96 240q-95 95 -231 95z" />
    <glyph glyph-name="ordfeminine" unicode="&#xaa;" horiz-adv-x="369" 
d="M333 739v-291h-48v45q-41 -52 -103 -52q-72 0 -118 59q-33 42 -33 94q0 74 60 120q40 31 92 31q56 0 92 -38q6 -6 10 -13v45h48zM184 696q-49 0 -81 -44q-19 -27 -19 -57q0 -53 44 -86q26 -19 56 -19q49 0 80 45q18 27 18 57q0 54 -44 86q-25 18 -54 18zM31 370h308v-51
h-308v51z" />
    <glyph glyph-name="guillemotleft" unicode="&#xab;" horiz-adv-x="425" 
d="M153 99l-113 201l113 199l59 -32l-94 -167l94 -168zM326 99l-115 201l115 199l59 -32l-94 -167l94 -168z" />
    <glyph glyph-name="logicalnot" unicode="&#xac;" horiz-adv-x="606" 
d="M51 436h504v-288h-72v215h-432v73z" />
    <glyph glyph-name="registered" unicode="&#xae;" horiz-adv-x="747" 
d="M530 157h-76l-145 202v-202h-61v428h132q78 0 115 -36q39 -39 39 -101q0 -72 -54 -108q-24 -16 -71 -23zM309 365h44q115 4 118 83q0 54 -53 72l-29 6l-13 1h-67v-162zM372 752q156 0 266 -106q109 -105 116 -260q1 -10 1 -21q0 -146 -102 -255q-100 -107 -244 -121
q-18 -2 -36 -2q-151 0 -261 103q-108 101 -120 249q-1 16 -1 31q0 150 102 260q101 108 246 121q17 1 33 1zM372 700q-133 0 -227 -95l-29 -32q-69 -90 -69 -203q0 -136 94 -232q99 -97 232 -99q131 0 226 93q96 93 100 223v10q0 142 -96 240q-95 95 -231 95z" />
    <glyph glyph-name="macron" unicode="&#xaf;" horiz-adv-x="485" 
d="M74 707h337v-64h-337v64z" />
    <glyph glyph-name="degree" unicode="&#xb0;" horiz-adv-x="400" 
d="M204 686q74 0 118 -61q28 -40 28 -92q0 -78 -60 -123q-39 -30 -90 -30q-76 0 -120 61q-30 41 -30 93q0 77 61 122q41 30 93 30zM202 629q-55 0 -82 -46q-14 -23 -14 -50q0 -53 44 -81q23 -15 50 -15q53 0 80 46q13 23 13 50q0 54 -44 82q-22 14 -47 14z" />
    <glyph glyph-name="plusminus" unicode="&#xb1;" horiz-adv-x="606" 
d="M265 369v216h77v-216h213v-74h-213v-171h-77v171h-214v74h214zM555 74v-74h-504v74h504z" />
    <glyph glyph-name="uni00B2" unicode="&#xb2;" horiz-adv-x="332" 
d="M12 288v51l163 150q41 37 54 52q30 35 30 67q0 45 -42 70q-22 14 -49 14q-49 0 -77 -40q-2 -2 -3 -5q-12 -20 -12 -59v-5h-60q1 48 11 74q28 66 101 85q21 5 43 5q76 0 120 -57q29 -37 29 -84q0 -56 -57 -115l-29 -27l-133 -121h217v-55h-306z" />
    <glyph glyph-name="uni00B3" unicode="&#xb3;" horiz-adv-x="332" 
d="M104 615h-61q1 86 64 118q27 14 60 14q66 0 102 -52q21 -30 21 -67q0 -42 -32 -73l-9 -9q70 -43 70 -119q0 -70 -59 -115q-42 -32 -94 -32q-73 0 -119 56q-7 7 -12 16q-19 31 -22 87h61q2 -43 17 -65q29 -39 74 -39q49 0 78 42q15 22 15 48q0 48 -41 75q-14 10 -30 13
q-16 4 -59 4v54q18 -1 21 -1q62 0 77 42q3 9 3 19q0 40 -36 56q-13 5 -27 5q-40 0 -56 -37q-6 -14 -6 -40z" />
    <glyph glyph-name="acute" unicode="&#xb4;" horiz-adv-x="375" 
d="M74 666l193 116l34 -58l-193 -114z" />
    <glyph glyph-name="mu" unicode="&#xb5;" horiz-adv-x="608" 
d="M545 547v-547h-74v85q-50 -98 -164 -98q-105 0 -164 89q-3 5 -6 9v-277h-74v739h74v-281q0 -94 25 -132q10 -16 28 -33q50 -47 117 -47q78 0 125 59l8 10q31 48 31 143v281h74z" />
    <glyph glyph-name="paragraph" unicode="&#xb6;" horiz-adv-x="564" 
d="M227 -133v488q-122 12 -169 102q-21 41 -21 92q0 97 74 152q4 2 8 5q52 33 141 33h231v-872h-75v805h-114v-805h-75z" />
    <glyph glyph-name="periodcentered" unicode="&#xb7;" horiz-adv-x="277" 
d="M101 229v126h74v-126h-74z" />
    <glyph glyph-name="cedilla" unicode="&#xb8;" horiz-adv-x="324" 
d="M124 0h36l-19 -47q20 8 33 8q51 0 69 -46q7 -16 7 -35q0 -59 -46 -83q-19 -10 -42 -10q-71 0 -88 73l44 5q10 -35 45 -35q33 0 42 31q2 7 2 15q0 38 -30 49l-16 3q-23 0 -43 -24l-29 17z" />
    <glyph glyph-name="uni00B9" unicode="&#xb9;" horiz-adv-x="332" 
d="M173 288v396h-75v55h135v-451h-60z" />
    <glyph glyph-name="ordmasculine" unicode="&#xba;" horiz-adv-x="369" 
d="M185 745q73 0 119 -59q33 -41 33 -92q0 -73 -60 -120q-41 -32 -93 -32q-75 0 -120 60q-32 41 -32 94q0 70 59 116q42 33 94 33zM184 696q-54 0 -83 -47l-11 -24q-5 -15 -5 -31q0 -57 46 -87q24 -16 54 -16q53 0 83 46q16 25 16 55q0 61 -48 90q-24 14 -52 14zM32 370h305
v-51h-305v51z" />
    <glyph glyph-name="guillemotright" unicode="&#xbb;" horiz-adv-x="425" 
d="M272 99l-59 33l94 168l-94 167l59 32l113 -199zM99 99l-59 33l94 168l-94 167l59 32l115 -199z" />
    <glyph glyph-name="onequarter" unicode="&#xbc;" horiz-adv-x="831" 
d="M701 0v79h-231v50l226 322h65v-317h42v-55h-42v-79h-60zM701 134v225l-156 -225h156zM211 0l341 739h55l-342 -739h-54zM176 288v396h-75v55h135v-451h-60z" />
    <glyph glyph-name="onehalf" unicode="&#xbd;" horiz-adv-x="831" 
d="M206 0l341 739h55l-342 -739h-54zM171 288v396h-75v55h135v-451h-60zM506 0v51l163 150q41 37 54 52q30 35 30 67q0 45 -42 70q-22 14 -49 14q-49 0 -77 -40q-2 -2 -3 -5q-12 -20 -12 -59v-5h-60q1 48 11 74q28 66 101 85q21 5 43 5q76 0 120 -57q29 -37 29 -84
q0 -56 -57 -115q-13 -12 -29 -27l-133 -121h217v-55h-306z" />
    <glyph glyph-name="threequarters" unicode="&#xbe;" horiz-adv-x="831" 
d="M701 0v79h-231v50l226 322h65v-317h42v-55h-42v-79h-60zM701 134v225l-156 -225h156zM239 0l341 739h55l-342 -739h-54zM104 615h-61q1 86 64 118q27 14 60 14q66 0 102 -52q21 -30 21 -67q0 -42 -32 -73l-9 -9q70 -44 70 -119q0 -70 -59 -115q-42 -32 -94 -32
q-73 0 -119 56q-7 7 -12 16q-21 33 -22 87h61q2 -43 17 -65q28 -39 74 -39q49 0 78 42q15 22 15 48q0 48 -41 75q-14 10 -30 13q-17 4 -59 4v54q18 -1 21 -1q62 0 77 42q3 9 3 19q0 40 -36 56q-13 5 -27 5q-40 0 -56 -37q-6 -14 -6 -40z" />
    <glyph glyph-name="questiondown" unicode="&#xbf;" horiz-adv-x="591" 
d="M330 547v-126h-74v126h74zM456 39h70q-1 -85 -36 -141q-60 -94 -179 -102q-9 -1 -19 -1q-113 0 -178 79q-48 57 -48 138q0 74 54 135q15 16 36 35q83 73 98 133q4 18 5 39h70v-15q0 -54 -33 -107q-18 -30 -66 -76l-6 -6q-66 -63 -78 -99q-6 -18 -6 -41q0 -82 65 -123
q38 -25 88 -25q80 0 127 58q7 9 12 19q20 37 24 100z" />
    <glyph glyph-name="Agrave" unicode="&#xc0;" horiz-adv-x="740" 
d="M11 0l317 739h83l318 -739h-81l-107 249h-344l-108 -249h-78zM225 316h287l-142 339zM254 958l198 -110l-33 -56l-197 108z" />
    <glyph glyph-name="Aacute" unicode="&#xc1;" horiz-adv-x="740" 
d="M11 0l317 739h83l318 -739h-81l-107 249h-344l-108 -249h-78zM225 316h287l-142 339zM290 848l193 116l34 -58l-193 -114z" />
    <glyph glyph-name="Acircumflex" unicode="&#xc2;" horiz-adv-x="740" 
d="M11 0l317 739h83l318 -739h-81l-107 249h-344l-108 -249h-78zM225 316h287l-142 339zM193 805l145 126h66l143 -126h-89l-86 74l-88 -74h-91z" />
    <glyph glyph-name="Atilde" unicode="&#xc3;" horiz-adv-x="740" 
d="M11 0l317 739h83l318 -739h-81l-107 249h-344l-108 -249h-78zM225 316h287l-142 339zM485 910l33 -46q-19 -32 -65 -45q-14 -4 -26 -4q-21 0 -66 22q-25 10 -40 10q-21 0 -44 -18q-4 -3 -9 -8l-7 -6l-33 46q38 49 93 49q23 0 59 -17q32 -14 48 -14q27 0 57 31z" />
    <glyph glyph-name="Adieresis" unicode="&#xc4;" horiz-adv-x="740" 
d="M11 0l317 739h83l318 -739h-81l-107 249h-344l-108 -249h-78zM225 316h287l-142 339zM260 931h74v-126h-74v126zM407 931h74v-126h-74v126z" />
    <glyph glyph-name="Aring" unicode="&#xc5;" horiz-adv-x="740" 
d="M11 0l317 739h83l318 -739h-81l-107 249h-344l-108 -249h-78zM225 316h287l-142 339zM371 976q50 0 77 -44l11 -24q3 -12 3 -24q0 -52 -44 -78q-22 -14 -48 -14q-51 0 -78 43q-14 22 -14 48q0 53 44 80q23 13 49 13zM370 935q-33 0 -46 -30q-5 -11 -5 -22q0 -31 29 -45
q11 -5 22 -5q32 0 46 29q5 11 5 22q0 32 -29 46q-11 5 -22 5z" />
    <glyph glyph-name="AE" unicode="&#xc6;" horiz-adv-x="992" 
d="M11 0l511 739h414v-67h-319v-265h308v-67h-308v-273h319v-67h-393v250h-271l-173 -250h-88zM319 317h224v327z" />
    <glyph glyph-name="Ccedilla" unicode="&#xc7;" horiz-adv-x="813" 
d="M429 -13l-24 -55q20 7 34 7q52 0 70 -47q7 -17 7 -37q0 -61 -49 -85q-19 -10 -43 -10q-71 0 -93 74l47 7q11 -34 45 -34q38 0 44 36q1 5 1 10q0 35 -30 46q-8 2 -16 2q-23 0 -44 -22l-30 18l42 91q-103 15 -165 55q-7 4 -14 9q-147 99 -165 272q-2 21 -2 43
q0 165 108 275q109 109 275 110q160 0 265 -100q48 -45 75 -105h-83q-37 58 -78 85q-1 1 -3 2q-74 50 -173 50q-136 0 -226 -95q-85 -89 -85 -219q0 -129 91 -222q91 -92 221 -93q106 0 183 61q30 23 74 78h82q-98 -188 -299 -205z" />
    <glyph glyph-name="Egrave" unicode="&#xc8;" horiz-adv-x="536" 
d="M76 0v739h404v-67h-330v-265h319v-67h-319v-273h330v-67h-404zM162 958l198 -110l-33 -56l-197 108z" />
    <glyph glyph-name="Eacute" unicode="&#xc9;" horiz-adv-x="536" 
d="M76 0v739h404v-67h-330v-265h319v-67h-319v-273h330v-67h-404zM198 848l193 116l34 -58l-193 -114z" />
    <glyph glyph-name="Ecircumflex" unicode="&#xca;" horiz-adv-x="536" 
d="M76 0v739h404v-67h-330v-265h319v-67h-319v-273h330v-67h-404zM101 805l145 126h66l143 -126h-89l-86 74l-88 -74h-91z" />
    <glyph glyph-name="Edieresis" unicode="&#xcb;" horiz-adv-x="536" 
d="M76 0v739h404v-67h-330v-265h319v-67h-319v-273h330v-67h-404zM168 931h74v-126h-74v126zM315 931h74v-126h-74v126z" />
    <glyph glyph-name="Igrave" unicode="&#xcc;" horiz-adv-x="226" 
d="M76 0v739h74v-739h-74zM30 958l198 -110l-33 -56l-197 108z" />
    <glyph glyph-name="Iacute" unicode="&#xcd;" horiz-adv-x="226" 
d="M76 0v739h74v-739h-74zM-1 848l193 116l34 -58l-193 -114z" />
    <glyph glyph-name="Icircumflex" unicode="&#xce;" horiz-adv-x="226" 
d="M76 0v739h74v-739h-74zM-64 805l145 126h66l143 -126h-89l-86 74l-88 -74h-91z" />
    <glyph glyph-name="Idieresis" unicode="&#xcf;" horiz-adv-x="226" 
d="M77 0v739h74v-739h-74zM3 931h74v-126h-74v126zM150 931h74v-126h-74v126z" />
    <glyph glyph-name="Eth" unicode="&#xd0;" horiz-adv-x="790" 
d="M122 347h-96v67h96v325h174q168 0 257 -44q13 -7 25 -14q149 -89 166 -271q2 -21 2 -43q0 -206 -164 -307l-7 -5q-94 -55 -254 -55h-199v347zM196 347v-280h103q166 0 245 51q11 7 21 15q98 79 105 218q1 9 1 19q0 141 -94 225q-19 16 -40 29q-79 48 -238 48h-103v-258
h205v-67h-205z" />
    <glyph glyph-name="Ntilde" unicode="&#xd1;" horiz-adv-x="740" 
d="M76 0v739h100l414 -613v613h74v-739h-74l-440 650v-650h-74zM489 910l33 -46q-19 -32 -65 -45q-14 -4 -26 -4q-21 0 -66 22q-25 10 -40 10q-21 0 -44 -18q-4 -3 -9 -8l-7 -6l-33 46q38 49 93 49q23 0 59 -17q32 -14 48 -14q27 0 57 31z" />
    <glyph glyph-name="Ograve" unicode="&#xd2;" horiz-adv-x="869" 
d="M435 752q153 0 265 -103l33 -33q92 -108 92 -247q0 -147 -103 -257q-101 -109 -248 -123q-20 -2 -39 -2q-156 0 -269 105q-110 103 -121 253q-1 14 -1 29q0 143 103 252q100 108 245 124q21 2 43 2zM435 684q-127 0 -220 -90q-93 -98 -96 -222q0 -131 92 -224
q93 -93 224 -93q128 0 220 91q93 96 95 222q0 129 -92 222l-33 29q-85 65 -190 65zM318 958l198 -110l-33 -56l-197 108z" />
    <glyph glyph-name="Oacute" unicode="&#xd3;" horiz-adv-x="869" 
d="M435 752q153 0 265 -103l33 -33q92 -108 92 -247q0 -147 -103 -257q-101 -109 -248 -123q-20 -2 -39 -2q-156 0 -269 105q-110 103 -121 253q-1 14 -1 29q0 143 103 252q100 108 245 124q21 2 43 2zM435 684q-127 0 -220 -90q-93 -98 -96 -222q0 -131 92 -224
q93 -93 224 -93q128 0 220 91q93 96 95 222q0 129 -92 222l-33 29q-85 65 -190 65zM354 848l193 116l34 -58l-193 -114z" />
    <glyph glyph-name="Ocircumflex" unicode="&#xd4;" horiz-adv-x="869" 
d="M435 752q153 0 265 -103l33 -33q92 -108 92 -247q0 -147 -103 -257q-101 -109 -248 -123q-20 -2 -39 -2q-156 0 -269 105q-110 103 -121 253q-1 14 -1 29q0 143 103 252q100 108 245 124q21 2 43 2zM435 684q-127 0 -220 -90q-93 -98 -96 -222q0 -131 92 -224
q93 -93 224 -93q128 0 220 91q93 96 95 222q0 129 -92 222l-33 29q-85 65 -190 65zM257 805l145 126h66l143 -126h-89l-86 74l-88 -74h-91z" />
    <glyph glyph-name="Otilde" unicode="&#xd5;" horiz-adv-x="869" 
d="M435 752q153 0 265 -103l33 -33q92 -108 92 -247q0 -147 -103 -257q-101 -109 -248 -123q-20 -2 -39 -2q-156 0 -269 105q-110 103 -121 253q-1 14 -1 29q0 143 103 252q100 108 245 124q21 2 43 2zM435 684q-127 0 -220 -90q-93 -98 -96 -222q0 -131 92 -224
q93 -93 224 -93q128 0 220 91q93 96 95 222q0 129 -92 222l-33 29q-85 65 -190 65zM557 910l33 -46q-19 -32 -65 -45l-26 -4q-21 0 -66 22q-25 10 -40 10q-21 0 -44 -18q-4 -3 -9 -8l-7 -6l-33 46q38 49 93 49q23 0 59 -17q32 -14 48 -14q27 0 57 31z" />
    <glyph glyph-name="Odieresis" unicode="&#xd6;" horiz-adv-x="869" 
d="M435 752q153 0 265 -103l33 -33q92 -108 92 -247q0 -147 -103 -257q-101 -109 -248 -123q-20 -2 -39 -2q-156 0 -269 105q-110 103 -121 253q-1 14 -1 29q0 143 103 252q100 108 245 124q21 2 43 2zM435 684q-127 0 -220 -90q-93 -98 -96 -222q0 -131 92 -224
q93 -93 224 -93q128 0 220 91q93 96 95 222q0 129 -92 222l-33 29q-85 65 -190 65zM324 931h74v-126h-74v126zM471 931h74v-126h-74v126z" />
    <glyph glyph-name="multiply" unicode="&#xd7;" horiz-adv-x="606" 
d="M355 299l200 -200l-52 -51l-200 200l-200 -200l-52 51l200 200l-200 201l52 51l200 -200l200 200l52 -51z" />
    <glyph glyph-name="Oslash" unicode="&#xd8;" horiz-adv-x="868" 
d="M83 -42l93 124q-122 102 -131 264q-1 12 -1 24q0 155 105 264t259 117q12 1 23 1q112 0 194 -49q6 -4 11 -7l94 125l54 -42l-92 -123q132 -111 132 -284q0 -155 -106 -266q-104 -109 -256 -118q-13 -1 -25 -1q-112 0 -204 55l-94 -125zM219 138l376 503q-71 43 -165 43
q-132 0 -223 -94q-88 -92 -88 -224q0 -134 100 -228zM650 600l-376 -503q80 -42 162 -42q133 0 224 94q89 90 89 220q0 135 -99 231z" />
    <glyph glyph-name="Ugrave" unicode="&#xd9;" 
d="M76 739h74v-461q0 -101 34 -153q38 -58 118 -68q13 -2 26 -2q82 0 130 54q7 7 13 16q34 52 34 153v461h74v-461q0 -124 -45 -190q-3 -5 -7 -10q-60 -78 -170 -89q-15 -2 -30 -2q-111 0 -182 71q-9 10 -17 20q-49 64 -52 178v22v461zM211 958l198 -110l-33 -56l-197 108z
" />
    <glyph glyph-name="Uacute" unicode="&#xda;" 
d="M76 739h74v-461q0 -101 34 -153q38 -58 118 -68q13 -2 26 -2q82 0 130 54q7 7 13 16q34 52 34 153v461h74v-461q0 -124 -45 -190q-3 -5 -7 -10q-60 -78 -170 -89q-15 -2 -30 -2q-111 0 -182 71q-9 10 -17 20q-49 64 -52 178v22v461zM247 848l193 116l34 -58l-193 -114z
" />
    <glyph glyph-name="Ucircumflex" unicode="&#xdb;" 
d="M76 739h74v-461q0 -101 34 -153q38 -58 118 -68q13 -2 26 -2q82 0 130 54q7 7 13 16q34 52 34 153v461h74v-461q0 -124 -45 -190q-3 -5 -7 -10q-60 -78 -170 -89q-15 -2 -30 -2q-111 0 -182 71q-9 10 -17 20q-49 64 -52 178v22v461zM150 805l145 126h66l143 -126h-89
l-86 74l-88 -74h-91z" />
    <glyph glyph-name="Udieresis" unicode="&#xdc;" 
d="M76 739h74v-461q0 -101 34 -153q38 -58 118 -68q13 -2 26 -2q82 0 130 54q7 7 13 16q34 52 34 153v461h74v-461q0 -124 -45 -190q-3 -5 -7 -10q-60 -78 -170 -89q-15 -2 -30 -2q-111 0 -182 71q-9 10 -17 20q-49 64 -52 178v22v461zM217 931h74v-126h-74v126zM364 931h74
v-126h-74v126z" />
    <glyph glyph-name="Yacute" unicode="&#xdd;" horiz-adv-x="592" 
d="M258 0v247l-256 492h82l210 -414l215 414h81l-258 -492v-247h-74zM216 848l193 116l34 -58l-193 -114z" />
    <glyph glyph-name="Thorn" unicode="&#xde;" horiz-adv-x="592" 
d="M76 0v739h67v-133h137q133 0 197 -39q79 -47 87 -162q1 -11 1 -23q0 -116 -74 -170q-58 -42 -170 -46h-29h-142v-166h-74zM150 233h137q99 0 142 25q55 31 61 110v14q0 101 -67 135q-44 22 -168 22h-105v-306z" />
    <glyph glyph-name="germandbls" unicode="&#xdf;" horiz-adv-x="554" 
d="M59 0v481q0 122 36 183q38 66 123 83q22 5 45 5q104 0 166 -76q45 -56 45 -132q0 -104 -85 -155q116 -37 133 -154q2 -17 2 -36q0 -105 -75 -167q-55 -45 -130 -45q-130 0 -186 122v-109h-74zM133 203h51q2 -87 62 -127q31 -21 71 -21q69 0 108 58q24 37 24 84
q0 95 -88 130q-39 16 -92 16q-12 0 -45 -2v67h9q118 0 154 79q12 27 12 61q0 75 -58 114q-33 22 -76 22q-67 0 -101 -50l-8 -13q-23 -46 -23 -140v-278z" />
    <glyph glyph-name="agrave" unicode="&#xe0;" horiz-adv-x="683" 
d="M620 547v-547h-74v96q-66 -88 -153 -104q-27 -5 -58 -5q-135 0 -219 92q-74 79 -74 193q0 130 91 214q81 74 197 74q131 0 208 -99l8 -11v97h74zM332 492q-98 0 -162 -74q-41 -46 -50 -107q-3 -17 -3 -34q0 -105 76 -170q61 -52 143 -52q98 0 160 76q50 61 50 145
q0 102 -75 166q-59 50 -139 50zM235 776l198 -110l-33 -56l-197 108z" />
    <glyph glyph-name="aacute" unicode="&#xe1;" horiz-adv-x="683" 
d="M620 547v-547h-74v96q-66 -88 -153 -104q-27 -5 -58 -5q-135 0 -219 92q-74 79 -74 193q0 130 91 214q81 74 197 74q131 0 208 -99l8 -11v97h74zM332 492q-98 0 -162 -74q-41 -46 -50 -107q-3 -17 -3 -34q0 -105 76 -170q61 -52 143 -52q98 0 160 76q50 61 50 145
q0 102 -75 166q-59 50 -139 50zM271 666l193 116l34 -58l-193 -114z" />
    <glyph glyph-name="acircumflex" unicode="&#xe2;" horiz-adv-x="683" 
d="M620 547v-547h-74v96q-66 -88 -153 -104q-27 -5 -58 -5q-135 0 -219 92q-74 79 -74 193q0 130 91 214q81 74 197 74q131 0 208 -99l8 -11v97h74zM332 492q-98 0 -162 -74q-41 -46 -50 -107q-3 -17 -3 -34q0 -105 76 -170q61 -52 143 -52q98 0 160 76q50 61 50 145
q0 102 -75 166q-59 50 -139 50zM174 623l145 126h66l143 -126h-89l-86 74l-88 -74h-91z" />
    <glyph glyph-name="atilde" unicode="&#xe3;" horiz-adv-x="683" 
d="M620 547v-547h-74v96q-66 -88 -153 -104q-27 -5 -58 -5q-135 0 -219 92q-74 79 -74 193q0 130 91 214q81 74 197 74q131 0 208 -99l8 -11v97h74zM332 492q-98 0 -162 -74q-41 -46 -50 -107q-3 -17 -3 -34q0 -105 76 -170q61 -52 143 -52q98 0 160 76q50 61 50 145
q0 102 -75 166q-59 50 -139 50zM463 728l33 -46q-19 -32 -65 -45q-14 -4 -26 -4q-21 0 -66 22q-25 10 -40 10q-21 0 -44 -18q-4 -3 -9 -8l-7 -6l-33 46q38 49 93 49q23 0 59 -17q32 -14 48 -14q27 0 57 31z" />
    <glyph glyph-name="adieresis" unicode="&#xe4;" horiz-adv-x="683" 
d="M620 547v-547h-74v96q-66 -88 -153 -104q-27 -5 -58 -5q-135 0 -219 92q-74 79 -74 193q0 130 91 214q81 74 197 74q131 0 208 -99l8 -11v97h74zM332 492q-98 0 -162 -74q-41 -46 -50 -107q-3 -17 -3 -34q0 -105 76 -170q61 -52 143 -52q98 0 160 76q50 61 50 145
q0 102 -75 166q-59 50 -139 50zM241 749h74v-126h-74v126zM388 749h74v-126h-74v126z" />
    <glyph glyph-name="aring" unicode="&#xe5;" horiz-adv-x="683" 
d="M620 547v-547h-74v96q-66 -88 -153 -104q-27 -5 -58 -5q-135 0 -219 92q-74 79 -74 193q0 130 91 214q81 74 197 74q131 0 208 -99l8 -11v97h74zM332 492q-98 0 -162 -74q-41 -46 -50 -107q-3 -17 -3 -34q0 -105 76 -170q61 -52 143 -52q98 0 160 76q50 61 50 145
q0 102 -75 166q-59 50 -139 50zM352 794q50 0 77 -44l11 -24q3 -12 3 -24q0 -52 -44 -78q-22 -14 -48 -14q-51 0 -78 43q-14 22 -14 48q0 53 44 80q23 13 49 13zM351 753q-33 0 -46 -30q-5 -11 -5 -22q0 -31 29 -45q11 -5 22 -5q32 0 46 29q5 11 5 22q0 32 -29 46
q-11 5 -22 5z" />
    <glyph glyph-name="ae" unicode="&#xe6;" horiz-adv-x="1157" 
d="M1118 247h-495q9 -96 87 -152q57 -40 129 -40q96 0 156 70q21 24 33 53h77q-35 -106 -134 -158q-62 -33 -132 -33q-130 0 -220 105v-92h-71v92q-77 -93 -183 -103q-16 -2 -34 -2q-130 0 -214 90q-75 80 -75 195q0 111 71 193q3 3 6 7q80 88 211 88q136 0 214 -103
q2 -2 4 -5v95h71v-95q86 108 216 108q128 0 211 -93q16 -17 29 -37q41 -66 43 -166v-17zM626 314h420q-20 106 -106 153q-47 25 -104 25q-104 0 -166 -76q-35 -44 -44 -102zM333 492q-103 0 -166 -77q-49 -60 -49 -141q0 -103 75 -168q59 -51 140 -51q102 0 166 76
q51 61 51 143q0 110 -79 172q-44 35 -102 43q-17 3 -36 3z" />
    <glyph glyph-name="ccedilla" unicode="&#xe7;" horiz-adv-x="647" 
d="M343 -13l-19 -45q21 7 32 7q52 0 70 -45q7 -16 7 -35q0 -59 -47 -83q-19 -10 -42 -10q-65 0 -84 62q-2 5 -3 11l44 5q10 -35 44 -35t43 31q2 7 2 15q0 37 -31 48q-7 3 -16 3q-22 0 -42 -24l-30 18l35 79q-129 13 -205 110q-59 76 -59 176q0 122 89 206q84 79 204 79
q130 0 215 -90q35 -36 55 -83l2 -6h-83q-64 109 -190 111q-102 0 -166 -76q-31 -37 -43 -83q-8 -29 -8 -60q0 -100 75 -165q62 -53 145 -53q90 0 154 67q16 17 33 39h84q-82 -171 -265 -174z" />
    <glyph glyph-name="egrave" unicode="&#xe8;" horiz-adv-x="650" 
d="M611 249h-495q5 -90 80 -148q59 -46 133 -46q91 0 153 66q25 26 38 59h77q-21 -64 -80 -120q-78 -73 -186 -73q-126 0 -210 89q-79 83 -79 200q0 124 88 207q81 77 196 77q119 0 202 -82q27 -27 46 -60q37 -65 37 -169zM118 316h419q-26 113 -119 156q-42 20 -93 20
q-102 0 -163 -78q-33 -42 -44 -98zM214 776l198 -110l-33 -56l-197 108z" />
    <glyph glyph-name="eacute" unicode="&#xe9;" horiz-adv-x="650" 
d="M611 249h-495q5 -90 80 -148q59 -46 133 -46q91 0 153 66q25 26 38 59h77q-21 -64 -80 -120q-78 -73 -186 -73q-126 0 -210 89q-79 83 -79 200q0 124 88 207q81 77 196 77q119 0 202 -82q27 -27 46 -60q37 -65 37 -169zM118 316h419q-26 113 -119 156q-42 20 -93 20
q-102 0 -163 -78q-33 -42 -44 -98zM246 666l193 116l34 -58l-193 -114z" />
    <glyph glyph-name="ecircumflex" unicode="&#xea;" horiz-adv-x="650" 
d="M611 249h-495q5 -90 80 -148q59 -46 133 -46q91 0 153 66q25 26 38 59h77q-21 -64 -80 -120q-78 -73 -186 -73q-126 0 -210 89q-79 83 -79 200q0 124 88 207q81 77 196 77q119 0 202 -82q27 -27 46 -60q37 -65 37 -169zM118 316h419q-26 113 -119 156q-42 20 -93 20
q-102 0 -163 -78q-33 -42 -44 -98zM153 623l145 126h66l143 -126h-89l-86 74l-88 -74h-91z" />
    <glyph glyph-name="edieresis" unicode="&#xeb;" horiz-adv-x="650" 
d="M611 249h-495q5 -90 80 -148q59 -46 133 -46q91 0 153 66q25 26 38 59h77q-21 -64 -80 -120q-78 -73 -186 -73q-126 0 -210 89q-79 83 -79 200q0 124 88 207q81 77 196 77q119 0 202 -82q27 -27 46 -60q37 -65 37 -169zM118 316h419q-26 113 -119 156q-42 20 -93 20
q-102 0 -163 -78q-33 -42 -44 -98zM219 749h74v-126h-74v126zM366 749h74v-126h-74v126z" />
    <glyph glyph-name="igrave" unicode="&#xec;" horiz-adv-x="200" 
d="M63 0v547h74v-547h-74zM17 776l198 -110l-33 -56l-197 108z" />
    <glyph glyph-name="iacute" unicode="&#xed;" horiz-adv-x="200" 
d="M63 0v547h74v-547h-74zM-13 666l193 116l34 -58l-193 -114z" />
    <glyph glyph-name="icircumflex" unicode="&#xee;" horiz-adv-x="200" 
d="M63 0v547h74v-547h-74zM-77 623l145 126h66l143 -126h-89l-86 74l-88 -74h-91z" />
    <glyph glyph-name="idieresis" unicode="&#xef;" horiz-adv-x="200" 
d="M-10 749h74v-126h-74v126zM137 749h74v-126h-74v126zM64 0v547h74v-547h-74z" />
    <glyph glyph-name="eth" unicode="&#xf0;" 
d="M213 727l53 29q40 -30 68 -55l95 42l39 -44l-89 -39q56 -49 125 -123q93 -102 106 -209q3 -23 3 -49q0 -144 -95 -227q-75 -65 -184 -65q-135 0 -219 92q-73 80 -73 195q0 128 88 210q77 72 186 72q41 0 96 -18q-63 64 -95 92l-87 -39l-36 46l79 35q-17 17 -33 31z
M329 492q-103 0 -165 -77q-36 -46 -45 -106q-2 -17 -2 -34q0 -112 80 -175q57 -45 136 -45q106 0 164 81q41 57 41 136q0 109 -76 172q-56 48 -133 48z" />
    <glyph glyph-name="ntilde" unicode="&#xf1;" horiz-adv-x="610" 
d="M63 0v547h74v-71q69 84 176 84q118 0 186 -85q43 -57 47 -151q1 -17 1 -37v-287h-74v287q0 97 -36 146q-47 58 -133 59q-86 0 -133 -61q-3 -3 -5 -6q-29 -42 -29 -124v-301h-74zM410 728l33 -46q-19 -32 -65 -45q-14 -4 -26 -4q-21 0 -66 22q-25 10 -40 10q-21 0 -44 -18
q-4 -3 -9 -8l-7 -6l-33 46q38 49 93 49q23 0 59 -17q32 -14 48 -14q27 0 57 31z" />
    <glyph glyph-name="ograve" unicode="&#xf2;" 
d="M329 560q132 0 214 -92q70 -80 70 -196q0 -133 -90 -215l-32 -25q-69 -45 -156 -45q-137 0 -221 93q-72 80 -72 197q0 126 90 208q81 75 197 75zM329 492q-103 0 -165 -77q-36 -46 -45 -106q-2 -17 -2 -34q0 -112 80 -175q57 -45 136 -45q103 0 162 79q43 58 43 137
q0 110 -76 174q-44 37 -103 45q-15 2 -30 2zM211 776l198 -110l-33 -56l-197 108z" />
    <glyph glyph-name="oacute" unicode="&#xf3;" 
d="M329 560q132 0 214 -92q70 -80 70 -196q0 -133 -90 -215l-32 -25q-69 -45 -156 -45q-137 0 -221 93q-72 80 -72 197q0 126 90 208q81 75 197 75zM329 492q-103 0 -165 -77q-36 -46 -45 -106q-2 -17 -2 -34q0 -112 80 -175q57 -45 136 -45q103 0 162 79q43 58 43 137
q0 110 -76 174q-44 37 -103 45q-15 2 -30 2zM247 666l193 116l34 -58l-193 -114z" />
    <glyph glyph-name="ocircumflex" unicode="&#xf4;" 
d="M329 560q132 0 214 -92q70 -80 70 -196q0 -133 -90 -215l-32 -25q-69 -45 -156 -45q-137 0 -221 93q-72 80 -72 197q0 126 90 208q81 75 197 75zM329 492q-103 0 -165 -77q-36 -46 -45 -106q-2 -17 -2 -34q0 -112 80 -175q57 -45 136 -45q103 0 162 79q43 58 43 137
q0 110 -76 174q-44 37 -103 45q-15 2 -30 2zM150 623l145 126h66l143 -126h-89l-86 74l-88 -74h-91z" />
    <glyph glyph-name="otilde" unicode="&#xf5;" 
d="M329 560q132 0 214 -92q70 -80 70 -196q0 -133 -90 -215l-32 -25q-69 -45 -156 -45q-137 0 -221 93q-72 80 -72 197q0 126 90 208q81 75 197 75zM329 492q-103 0 -165 -77q-36 -46 -45 -106q-2 -17 -2 -34q0 -112 80 -175q57 -45 136 -45q103 0 162 79q43 58 43 137
q0 110 -76 174q-44 37 -103 45q-15 2 -30 2zM446 728l33 -46q-19 -32 -65 -45q-14 -4 -26 -4q-21 0 -66 22q-25 10 -40 10q-21 0 -44 -18q-4 -3 -9 -8l-7 -6l-33 46q38 49 93 49q23 0 59 -17q32 -14 48 -14q27 0 57 31z" />
    <glyph glyph-name="odieresis" unicode="&#xf6;" 
d="M329 560q132 0 214 -92q70 -80 70 -196q0 -133 -90 -215l-32 -25q-69 -45 -156 -45q-137 0 -221 93q-72 80 -72 197q0 126 90 208q81 75 197 75zM329 492q-103 0 -165 -77q-36 -46 -45 -106q-2 -17 -2 -34q0 -112 80 -175q57 -45 136 -45q103 0 162 79q43 58 43 137
q0 110 -76 174q-44 37 -103 45q-15 2 -30 2zM217 749h74v-126h-74v126zM364 749h74v-126h-74v126z" />
    <glyph glyph-name="divide" unicode="&#xf7;" horiz-adv-x="606" 
d="M346 409h-87v87h87v-87zM346 112h-87v87h87v-87zM555 341v-74h-504v74h504z" />
    <glyph glyph-name="oslash" unicode="&#xf8;" horiz-adv-x="653" 
d="M73 1l51 67q-70 82 -80 163q-2 19 -2 41q0 124 88 208q82 80 198 80q80 0 146 -41l57 75l53 -42l-56 -74q83 -76 83 -197q0 -140 -93 -224q-78 -70 -190 -70q-73 0 -150 41l-52 -67zM166 121l268 347q-48 24 -105 24q-100 0 -163 -78q-39 -50 -47 -116q-2 -16 -2 -32
q0 -76 49 -145zM487 426l-269 -347q53 -24 105 -24q111 0 171 84q42 59 42 141q0 85 -49 146z" />
    <glyph glyph-name="ugrave" unicode="&#xf9;" horiz-adv-x="608" 
d="M545 547v-547h-74v85q-49 -90 -154 -97l-22 -1q-126 0 -189 87q-43 59 -43 178v295h74v-295q0 -85 26 -128q35 -61 120 -68q9 -1 18 -1q88 0 137 68q33 49 33 143v281h74zM188 776l198 -110l-33 -56l-197 108z" />
    <glyph glyph-name="uacute" unicode="&#xfa;" horiz-adv-x="608" 
d="M545 547v-547h-74v85q-49 -90 -154 -97l-22 -1q-126 0 -189 87q-43 59 -43 178v295h74v-295q0 -85 26 -128q35 -61 120 -68q9 -1 18 -1q88 0 137 68q33 49 33 143v281h74zM224 666l193 116l34 -58l-193 -114z" />
    <glyph glyph-name="ucircumflex" unicode="&#xfb;" horiz-adv-x="608" 
d="M545 547v-547h-74v85q-49 -90 -154 -97l-22 -1q-126 0 -189 87q-43 59 -43 178v295h74v-295q0 -85 26 -128q35 -61 120 -68q9 -1 18 -1q88 0 137 68q33 49 33 143v281h74zM127 623l145 126h66l143 -126h-89l-86 74l-88 -74h-91z" />
    <glyph glyph-name="udieresis" unicode="&#xfc;" horiz-adv-x="608" 
d="M545 547v-547h-74v85q-49 -90 -154 -97l-22 -1q-126 0 -189 87q-43 59 -43 178v295h74v-295q0 -85 26 -128q35 -61 120 -68q9 -1 18 -1q88 0 137 68q33 49 33 143v281h74zM194 749h74v-126h-74v126zM341 749h74v-126h-74v126z" />
    <glyph glyph-name="yacute" unicode="&#xfd;" horiz-adv-x="536" 
d="M132 -192l89 210l-212 529h81l173 -436l185 436h79l-316 -739h-79zM195 666l193 116l34 -58l-193 -114z" />
    <glyph glyph-name="thorn" unicode="&#xfe;" horiz-adv-x="682" 
d="M63 739h74v-286q78 103 215 107q129 0 213 -91q75 -81 75 -197q0 -125 -89 -208q-83 -77 -201 -77q-140 0 -213 107v-286h-74v931zM349 492q-100 0 -165 -74q-52 -61 -52 -142q0 -107 77 -172q59 -49 141 -49q103 0 166 76q49 60 49 141q0 107 -77 171q-38 32 -88 43
q-25 6 -51 6z" />
    <glyph glyph-name="ydieresis" unicode="&#xff;" horiz-adv-x="536" 
d="M132 -192l89 210l-212 529h81l173 -436l185 436h79l-316 -739h-79zM155 749h74v-126h-74v126zM302 749h74v-126h-74v126z" />
    <glyph glyph-name="Amacron" unicode="&#x100;" horiz-adv-x="740" 
d="M11 0l317 739h83l318 -739h-81l-107 249h-344l-108 -249h-78zM225 316h287l-142 339zM202 889h337v-64h-337v64z" />
    <glyph glyph-name="amacron" unicode="&#x101;" horiz-adv-x="683" 
d="M620 547v-547h-74v96q-66 -88 -153 -104q-27 -5 -58 -5q-135 0 -219 92q-74 79 -74 193q0 130 91 214q81 74 197 74q131 0 208 -99l8 -11v97h74zM332 492q-98 0 -162 -74q-41 -46 -50 -107q-3 -17 -3 -34q0 -105 76 -170q61 -52 143 -52q98 0 160 76q50 61 50 145
q0 102 -75 166q-59 50 -139 50zM173 707h337v-64h-337v64z" />
    <glyph glyph-name="Abreve" unicode="&#x102;" horiz-adv-x="740" 
d="M11 0l317 739h83l318 -739h-81l-107 249h-344l-108 -249h-78zM225 316h287l-142 339zM218 925h64q5 -32 26 -46q29 -16 62 -16t62 16q21 14 26 46h64q-11 -60 -40 -84l-9 -7q-40 -29 -103 -29q-121 0 -148 103q-2 8 -4 17z" />
    <glyph glyph-name="abreve" unicode="&#x103;" horiz-adv-x="683" 
d="M620 547v-547h-74v96q-66 -88 -153 -104q-27 -5 -58 -5q-135 0 -219 92q-74 79 -74 193q0 130 91 214q81 74 197 74q131 0 208 -99l8 -11v97h74zM332 492q-98 0 -162 -74q-41 -46 -50 -107q-3 -17 -3 -34q0 -105 76 -170q61 -52 143 -52q98 0 160 76q50 61 50 145
q0 102 -75 166q-59 50 -139 50zM189 743h64q5 -32 26 -46q29 -16 62 -16t62 16q21 14 26 46h64q-11 -60 -40 -84l-9 -7q-40 -29 -103 -29q-121 0 -148 103q-2 8 -4 17z" />
    <glyph glyph-name="Aogonek" unicode="&#x104;" horiz-adv-x="740" 
d="M328 739h84l317 -739q-61 -44 -72 -86q-1 -6 -1 -11q0 -33 35 -45q11 -4 24 -4q24 0 45 10v-46q-28 -9 -51 -9q-64 0 -91 46q-12 20 -12 44q0 55 66 97l6 4h-30l-107 249h-344l-108 -249h-78zM225 316h287l-142 339z" />
    <glyph glyph-name="aogonek" unicode="&#x105;" horiz-adv-x="683" 
d="M620 547v-547q-24 -17 -41 -37q-32 -35 -32 -60q0 -35 37 -46q10 -3 22 -3q24 0 45 10v-46q-29 -9 -51 -9q-64 0 -91 46q-12 20 -12 44q0 54 58 93q6 4 13 8h-22v96q-66 -88 -153 -104q-27 -5 -58 -5q-135 0 -219 92q-74 79 -74 193q0 130 91 214q81 74 197 74
q131 0 208 -99l8 -11v97h74zM332 492q-98 0 -162 -74q-41 -46 -50 -107q-3 -17 -3 -34q0 -105 76 -170q61 -52 143 -52q98 0 160 76q50 61 50 145q0 102 -75 166q-59 50 -139 50z" />
    <glyph glyph-name="Cacute" unicode="&#x106;" horiz-adv-x="813" 
d="M688 194h82q-112 -207 -338 -207q-164 0 -275 107q-109 115 -113 273q0 165 108 275q109 109 275 110q160 0 265 -100q48 -45 75 -105h-83q-37 58 -78 85q-1 1 -3 2q-74 50 -173 50q-136 0 -226 -95q-85 -89 -85 -219q0 -129 91 -222q91 -92 221 -93q106 0 183 61
q30 23 74 78zM333 848l193 116l34 -58l-193 -114z" />
    <glyph glyph-name="cacute" unicode="&#x107;" horiz-adv-x="647" 
d="M524 161h84q-38 -72 -80 -108l-6 -4q-79 -62 -182 -62q-132 0 -218 89q-80 82 -80 199q0 122 89 206q84 79 204 79q130 0 215 -90q35 -36 55 -83l2 -6h-83q-64 109 -190 111q-102 0 -166 -76q-31 -37 -43 -83q-8 -29 -8 -60q0 -100 75 -165q62 -53 145 -53q90 0 154 67
q16 17 33 39zM250 666l193 116l34 -58l-193 -114z" />
    <glyph glyph-name="Ccircumflex" unicode="&#x108;" horiz-adv-x="813" 
d="M688 194h82q-112 -207 -338 -207q-164 0 -275 107q-109 115 -113 273q0 165 108 275q109 109 275 110q160 0 265 -100q48 -45 75 -105h-83q-37 58 -78 85q-1 1 -3 2q-74 50 -173 50q-136 0 -226 -95q-85 -89 -85 -219q0 -129 91 -222q91 -92 221 -93q106 0 183 61
q30 23 74 78zM224 839l145 126h66l143 -126h-89l-86 74l-88 -74h-91z" />
    <glyph glyph-name="ccircumflex" unicode="&#x109;" horiz-adv-x="647" 
d="M524 161h84q-38 -72 -80 -108l-6 -4q-79 -62 -182 -62q-132 0 -218 89q-80 82 -80 199q0 122 89 206q84 79 204 79q130 0 215 -90q35 -36 55 -83l2 -6h-83q-64 109 -190 111q-102 0 -166 -76q-31 -37 -43 -83q-8 -29 -8 -60q0 -100 75 -165q62 -53 145 -53q90 0 154 67
q16 17 33 39zM144 647l145 126h66l143 -126h-89l-86 74l-88 -74h-91z" />
    <glyph glyph-name="Cdotaccent" unicode="&#x10a;" horiz-adv-x="813" 
d="M688 194h82q-112 -207 -338 -207q-164 0 -275 107q-109 115 -113 273q0 165 108 275q109 109 275 110q160 0 265 -100q48 -45 75 -105h-83q-37 58 -78 85q-1 1 -3 2q-74 50 -173 50q-136 0 -226 -95q-85 -89 -85 -219q0 -129 91 -222q91 -92 221 -93q106 0 183 61
q30 23 74 78zM364 965h74v-126h-74v126z" />
    <glyph glyph-name="cdotaccent" unicode="&#x10b;" horiz-adv-x="647" 
d="M524 161h84q-38 -72 -80 -108l-6 -4q-79 -62 -182 -62q-132 0 -218 89q-80 82 -80 199q0 122 89 206q84 79 204 79q130 0 215 -90q35 -36 55 -83l2 -6h-83q-64 109 -190 111q-102 0 -166 -76q-31 -37 -43 -83q-8 -29 -8 -60q0 -100 75 -165q62 -53 145 -53q90 0 154 67
q16 17 33 39zM284 773h74v-126h-74v126z" />
    <glyph glyph-name="Ccaron" unicode="&#x10c;" horiz-adv-x="813" 
d="M688 194h82q-112 -207 -338 -207q-164 0 -275 107q-109 115 -113 273q0 165 108 275q109 109 275 110q160 0 265 -100q48 -45 75 -105h-83q-37 58 -78 85q-1 1 -3 2q-74 50 -173 50q-136 0 -226 -95q-85 -89 -85 -219q0 -129 91 -222q91 -92 221 -93q106 0 183 61
q30 23 74 78zM604 931l-145 -126h-66l-143 126h89l86 -74l88 74h91z" />
    <glyph glyph-name="ccaron" unicode="&#x10d;" horiz-adv-x="647" 
d="M524 161h84q-38 -72 -80 -108l-6 -4q-79 -62 -182 -62q-132 0 -218 89q-80 82 -80 199q0 122 89 206q84 79 204 79q130 0 215 -90q35 -36 55 -83l2 -6h-83q-64 109 -190 111q-102 0 -166 -76q-31 -37 -43 -83q-8 -29 -8 -60q0 -100 75 -165q62 -53 145 -53q90 0 154 67
q16 17 33 39zM511 749l-145 -126h-66l-143 126h89l86 -74l88 74h91z" />
    <glyph glyph-name="Dcaron" unicode="&#x10e;" horiz-adv-x="744" 
d="M76 0v739h174q168 0 257 -44q13 -7 25 -14q153 -91 167 -280q1 -17 1 -34q0 -206 -164 -307l-7 -5q-94 -55 -254 -55h-199zM150 67h103q166 0 245 51q11 7 21 15q98 79 105 218q1 9 1 19q0 141 -94 225q-19 16 -40 29q-79 48 -238 48h-103v-605zM509 931l-145 -126h-66
l-143 126h89l86 -74l88 74h91z" />
    <glyph glyph-name="dcaron" unicode="&#x10f;" horiz-adv-x="725" 
d="M622 739v-739h-74v99q-67 -96 -166 -109q-20 -3 -42 -3q-133 0 -220 90q-78 81 -78 196q0 128 91 211q82 76 200 76q132 0 215 -100v279h74zM331 492q-98 0 -162 -74q-52 -61 -52 -142q0 -104 76 -169q62 -52 145 -52q95 0 159 74q54 63 54 146q0 98 -75 163
q-62 54 -145 54zM643 547l48 192h74l-48 -192h-74z" />
    <glyph glyph-name="Dcroat" unicode="&#x110;" horiz-adv-x="790" 
d="M122 347h-96v67h96v325h174q168 0 257 -44q13 -7 25 -14q149 -89 166 -271q2 -21 2 -43q0 -206 -164 -307l-7 -5q-94 -55 -254 -55h-199v347zM196 347v-280h103q166 0 245 51q11 7 21 15q98 79 105 218q1 9 1 19q0 141 -94 225q-19 16 -40 29q-79 48 -238 48h-103v-258
h205v-67h-205z" />
    <glyph glyph-name="dcroat" unicode="&#x111;" horiz-adv-x="685" 
d="M622 739v-74h63v-63h-63v-602h-74v99q-67 -96 -166 -109q-20 -3 -42 -3q-133 0 -220 90q-78 81 -78 196q0 128 91 211q82 76 200 76q132 0 215 -100v142h-152v63h152v74h74zM331 492q-99 0 -163 -75q-38 -45 -48 -104q-3 -18 -3 -36q0 -107 78 -172q60 -50 143 -50
q95 0 159 74q54 63 54 146q0 98 -75 163q-62 54 -145 54z" />
    <glyph glyph-name="Emacron" unicode="&#x112;" horiz-adv-x="536" 
d="M76 0v739h404v-67h-330v-265h319v-67h-319v-273h330v-67h-404zM100 889h337v-64h-337v64z" />
    <glyph glyph-name="emacron" unicode="&#x113;" horiz-adv-x="650" 
d="M611 249h-495q5 -90 80 -148q59 -46 133 -46q91 0 153 66q25 26 38 59h77q-21 -64 -80 -120q-78 -73 -186 -73q-126 0 -210 89q-79 83 -79 200q0 124 88 207q81 77 196 77q119 0 202 -82q27 -27 46 -60q37 -65 37 -169zM118 316h419q-26 113 -119 156q-42 20 -93 20
q-102 0 -163 -78q-33 -42 -44 -98zM157 707h337v-64h-337v64z" />
    <glyph glyph-name="Ebreve" unicode="&#x114;" horiz-adv-x="536" 
d="M76 0v739h404v-67h-330v-265h319v-67h-319v-273h330v-67h-404zM126 959h64q5 -32 26 -46q29 -16 62 -16t62 16q21 14 26 46h64q-11 -60 -40 -84l-9 -7q-40 -29 -103 -29q-121 0 -148 103q-2 8 -4 17z" />
    <glyph glyph-name="ebreve" unicode="&#x115;" horiz-adv-x="650" 
d="M611 249h-495q5 -90 80 -148q59 -46 133 -46q91 0 153 66q25 26 38 59h77q-21 -64 -80 -120q-78 -73 -186 -73q-126 0 -210 89q-79 83 -79 200q0 124 88 207q81 77 196 77q119 0 202 -82q27 -27 46 -60q37 -65 37 -169zM118 316h419q-26 113 -119 156q-42 20 -93 20
q-102 0 -163 -78q-33 -42 -44 -98zM212 767h64q5 -32 26 -46q29 -16 62 -16t62 16q21 14 26 46h64q-11 -60 -40 -84l-9 -7q-40 -29 -103 -29q-121 0 -148 103q-2 8 -4 17z" />
    <glyph glyph-name="Edotaccent" unicode="&#x116;" horiz-adv-x="536" 
d="M76 0v739h404v-67h-330v-265h319v-67h-319v-273h330v-67h-404zM251 931h74v-126h-74v126z" />
    <glyph glyph-name="edotaccent" unicode="&#x117;" horiz-adv-x="650" 
d="M611 249h-495q5 -90 80 -148q59 -46 133 -46q91 0 153 66q25 26 38 59h77q-21 -64 -80 -120q-78 -73 -186 -73q-126 0 -210 89q-79 83 -79 200q0 124 88 207q81 77 196 77q119 0 202 -82q27 -27 46 -60q37 -65 37 -169zM118 316h419q-26 113 -119 156q-42 20 -93 20
q-102 0 -163 -78q-33 -42 -44 -98zM288 749h74v-126h-74v126z" />
    <glyph glyph-name="Eogonek" unicode="&#x118;" horiz-adv-x="536" 
d="M76 739h404v-67h-330v-265h319v-67h-319v-273h330v-67q-65 -48 -72 -90q-1 -4 -1 -7q0 -35 37 -46q10 -3 22 -3q24 0 45 10v-46q-29 -9 -51 -9q-64 0 -91 46q-12 20 -12 44q0 54 58 93q6 4 13 8h-352v739z" />
    <glyph glyph-name="eogonek" unicode="&#x119;" horiz-adv-x="650" 
d="M611 249h-495q6 -92 81 -149q58 -45 132 -45q94 0 156 69q23 25 36 56h77q-18 -49 -42 -78q-25 -29 -139 -139q-32 -32 -32 -61q0 -31 34 -44q11 -4 25 -4q24 0 45 10v-46q-29 -9 -51 -9q-64 0 -91 46q-12 20 -12 44q0 55 63 96q-33 -8 -67 -8q-126 0 -210 89
q-79 83 -79 200q0 124 88 207q81 77 196 77q121 0 203 -83q19 -19 34 -41q6 -9 11 -18q37 -65 37 -169zM118 316h419q-26 113 -119 156q-42 20 -93 20q-102 0 -163 -78q-33 -42 -44 -98z" />
    <glyph glyph-name="Ecaron" unicode="&#x11a;" horiz-adv-x="536" 
d="M76 0v739h404v-67h-330v-265h319v-67h-319v-273h330v-67h-404zM465 931l-145 -126h-66l-143 126h89l86 -74l88 74h91z" />
    <glyph glyph-name="ecaron" unicode="&#x11b;" horiz-adv-x="650" 
d="M611 249h-495q5 -90 80 -148q59 -46 133 -46q91 0 153 66q25 26 38 59h77q-21 -64 -80 -120q-78 -73 -186 -73q-126 0 -210 89q-79 83 -79 200q0 124 88 207q81 77 196 77q119 0 202 -82q27 -27 46 -60q37 -65 37 -169zM118 316h419q-26 113 -119 156q-42 20 -93 20
q-102 0 -163 -78q-33 -42 -44 -98zM502 749l-145 -126h-66l-143 126h89l86 -74l88 74h91z" />
    <glyph glyph-name="Gcircumflex" unicode="&#x11c;" horiz-adv-x="872" 
d="M329 341h502q-8 -126 -97 -229q-110 -125 -288 -125q-165 0 -280 106q-113 103 -121 255q-1 12 -1 23q0 155 107 264q106 109 264 116q10 1 21 1q155 0 262 -90q61 -51 88 -120h-83q-61 108 -189 135q-35 7 -72 7q-140 0 -233 -94q-90 -91 -90 -221q0 -133 95 -224
q94 -90 229 -90q133 0 221 88q62 62 78 131h-413v67zM234 839l145 126h66l143 -126h-89l-86 74l-88 -74h-91z" />
    <glyph glyph-name="gcircumflex" unicode="&#x11d;" horiz-adv-x="673" 
d="M610 547v-449q0 -133 -39 -197q-5 -9 -12 -18q-67 -88 -197 -97q-12 -1 -25 -1q-174 0 -250 138q-15 27 -25 60h72q31 -55 54 -75q58 -55 147 -55q113 0 165 75q8 11 14 24q22 47 22 122v37q-63 -124 -209 -124q-125 0 -208 88q-77 81 -77 196q0 133 90 216q78 73 190 73
q133 0 214 -110v97h74zM326 492q-105 0 -165 -78q-44 -57 -44 -137q0 -109 76 -174q57 -48 134 -48q100 0 161 78q48 62 48 147q0 100 -74 163q-58 49 -136 49zM186 647l145 126h66l143 -126h-89l-86 74l-88 -74h-91z" />
    <glyph glyph-name="Gbreve" unicode="&#x11e;" horiz-adv-x="872" 
d="M329 341h502q-8 -126 -97 -229q-110 -125 -288 -125q-165 0 -280 106q-113 103 -121 255q-1 12 -1 23q0 155 107 264q106 109 264 116q10 1 21 1q155 0 262 -90q61 -51 88 -120h-83q-61 108 -189 135q-35 7 -72 7q-140 0 -233 -94q-90 -91 -90 -221q0 -133 95 -224
q94 -90 229 -90q133 0 221 88q62 62 78 131h-413v67zM284 925h64q5 -32 26 -46q29 -16 62 -16t62 16q21 14 26 46h64q-11 -60 -40 -84q-4 -4 -9 -7q-40 -29 -103 -29q-121 0 -148 103q-2 8 -4 17z" />
    <glyph glyph-name="gbreve" unicode="&#x11f;" horiz-adv-x="673" 
d="M610 547v-449q0 -133 -39 -197q-5 -9 -12 -18q-67 -88 -197 -97q-12 -1 -25 -1q-174 0 -250 138q-15 27 -25 60h72q31 -55 54 -75q58 -55 147 -55q113 0 165 75q8 11 14 24q22 47 22 122v37q-63 -124 -209 -124q-125 0 -208 88q-77 81 -77 196q0 133 90 216q78 73 190 73
q133 0 214 -110v97h74zM326 492q-105 0 -165 -78q-44 -57 -44 -137q0 -109 76 -174q57 -48 134 -48q100 0 161 78q48 62 48 147q0 100 -74 163q-58 49 -136 49zM184 743h64q5 -32 26 -46q29 -16 62 -16t62 16q21 14 26 46h64q-11 -60 -40 -84l-9 -7q-40 -29 -103 -29
q-121 0 -148 103q-2 8 -4 17z" />
    <glyph glyph-name="Gdotaccent" unicode="&#x120;" horiz-adv-x="872" 
d="M329 341h502q-8 -126 -97 -229q-110 -125 -288 -125q-165 0 -280 106q-113 103 -121 255q-1 12 -1 23q0 155 107 264q106 109 264 116q10 1 21 1q155 0 262 -90q61 -51 88 -120h-83q-61 108 -189 135q-35 7 -72 7q-140 0 -233 -94q-90 -91 -90 -221q0 -133 95 -224
q94 -90 229 -90q133 0 221 88q62 62 78 131h-413v67zM374 965h74v-126h-74v126z" />
    <glyph glyph-name="gdotaccent" unicode="&#x121;" horiz-adv-x="673" 
d="M610 547v-449q0 -133 -39 -197q-5 -9 -12 -18q-67 -88 -197 -97q-12 -1 -25 -1q-174 0 -250 138q-15 27 -25 60h72q31 -55 54 -75q58 -55 147 -55q113 0 165 75q8 11 14 24q22 47 22 122v37q-63 -124 -209 -124q-125 0 -208 88q-77 81 -77 196q0 133 90 216q78 73 190 73
q133 0 214 -110v97h74zM326 492q-105 0 -165 -78q-44 -57 -44 -137q0 -109 76 -174q57 -48 134 -48q100 0 161 78q48 62 48 147q0 100 -74 163q-58 49 -136 49zM326 773h74v-126h-74v126z" />
    <glyph glyph-name="uni0122" unicode="&#x122;" horiz-adv-x="872" 
d="M329 341h502q-8 -126 -97 -229q-110 -125 -288 -125q-165 0 -280 106q-113 103 -121 255q-1 12 -1 23q0 155 107 264q106 109 264 116q10 1 21 1q155 0 262 -90q61 -51 88 -120h-83q-61 108 -189 135q-35 7 -72 7q-140 0 -233 -94q-90 -91 -90 -221q0 -133 95 -224
q94 -90 229 -90q133 0 221 88q62 62 78 131h-413v67zM362 -225l48 172h74l-48 -172h-74z" />
    <glyph glyph-name="uni0123" unicode="&#x123;" horiz-adv-x="673" 
d="M610 547v-449q0 -133 -39 -197q-5 -9 -12 -18q-67 -88 -197 -97q-12 -1 -25 -1q-174 0 -250 138q-15 27 -25 60h72q31 -55 54 -75q58 -55 147 -55q113 0 165 75q8 11 14 24q22 47 22 122v37q-63 -124 -209 -124q-125 0 -208 88q-77 81 -77 196q0 133 90 216q78 73 190 73
q133 0 214 -110v97h74zM326 492q-105 0 -165 -78q-44 -57 -44 -137q0 -109 76 -174q57 -48 134 -48q100 0 161 78q48 62 48 147q0 100 -74 163q-58 49 -136 49zM384 790l-48 -172h-74l48 172h74z" />
    <glyph glyph-name="Hcircumflex" unicode="&#x124;" horiz-adv-x="683" 
d="M76 0v739h74v-325h383v325h74v-739h-74v347h-383v-347h-74zM164 839l145 126h66l143 -126h-89l-86 74l-88 -74h-91z" />
    <glyph glyph-name="hcircumflex" unicode="&#x125;" horiz-adv-x="610" 
d="M63 0v739h74v-263q58 84 174 84q115 0 180 -74q5 -5 9 -11q47 -63 47 -181v-294h-74v294q0 92 -37 138q-43 55 -120 60h-12q-83 0 -132 -61q-2 -3 -5 -7q-30 -41 -30 -124v-300h-74zM105 839l145 126h66l143 -126h-89l-86 74l-88 -74h-91z" />
    <glyph glyph-name="Hbar" unicode="&#x126;" horiz-adv-x="683" 
d="M607 565v-565h-74v347h-383v-347h-74v565h-64v64h64v110h74v-110h383v110h74v-110h67v-64h-67zM533 565h-383v-151h383v151z" />
    <glyph glyph-name="hbar" unicode="&#x127;" horiz-adv-x="610" 
d="M137 615h-1v-139q58 84 174 84q115 0 180 -74q5 -5 9 -11q47 -63 47 -181v-294h-74v294q0 92 -37 138q-43 55 -120 60h-12q-83 0 -132 -61q-2 -3 -5 -7q-30 -41 -30 -124v-300h-74v615h-53v64h54v60h74v-60h99v-64h-99z" />
    <glyph glyph-name="Itilde" unicode="&#x128;" horiz-adv-x="226" 
d="M76 0v739h74v-739h-74zM225 887l33 -46q-19 -32 -65 -45q-14 -4 -26 -4q-21 0 -66 22q-25 10 -40 10q-21 0 -44 -18l-9 -8l-7 -6l-33 46q38 49 93 49q23 0 59 -17q32 -14 48 -14q27 0 57 31z" />
    <glyph glyph-name="itilde" unicode="&#x129;" horiz-adv-x="200" 
d="M63 0v547h74v-547h-74zM212 742l33 -46q-19 -32 -65 -45q-14 -4 -26 -4q-21 0 -66 22q-25 10 -40 10q-21 0 -44 -18l-9 -8l-7 -6l-33 46q38 49 93 49q23 0 59 -17q32 -14 48 -14q27 0 57 31z" />
    <glyph glyph-name="Imacron" unicode="&#x12a;" horiz-adv-x="226" 
d="M76 0v739h74v-739h-74zM-56 889h337v-64h-337v64z" />
    <glyph glyph-name="imacron" unicode="&#x12b;" horiz-adv-x="200" 
d="M63 0v547h74v-547h-74zM-69 707h337v-64h-337v64z" />
    <glyph glyph-name="Ibreve" unicode="&#x12c;" horiz-adv-x="226" 
d="M76 0v739h74v-739h-74zM-39 912h64q5 -32 26 -46q29 -16 62 -16t62 16q21 14 26 46h64q-11 -60 -40 -84l-9 -7q-40 -29 -103 -29q-121 0 -148 103q-2 8 -4 17z" />
    <glyph glyph-name="ibreve" unicode="&#x12d;" horiz-adv-x="200" 
d="M63 0v547h74v-547h-74zM-52 767h64q5 -32 26 -46q29 -16 62 -16t62 16q21 14 26 46h64q-11 -60 -40 -84l-9 -7q-40 -29 -103 -29q-121 0 -148 103q-2 8 -4 17z" />
    <glyph glyph-name="Iogonek" unicode="&#x12e;" horiz-adv-x="226" 
d="M150 739v-739q-24 -17 -41 -37q-32 -35 -32 -60q0 -35 37 -46q10 -3 22 -3q24 0 45 10v-46q-29 -9 -51 -9q-64 0 -91 46q-12 20 -12 44q0 54 58 93q6 4 13 8h-22v739h74z" />
    <glyph glyph-name="iogonek" unicode="&#x12f;" horiz-adv-x="200" 
d="M137 547v-547q-24 -17 -41 -37q-32 -35 -32 -60q0 -35 37 -46q10 -3 22 -3q24 0 45 10v-46q-28 -9 -51 -9q-64 0 -91 46q-12 20 -12 44q0 54 58 93q6 4 13 8h-22v547h74zM63 613v126h74v-126h-74z" />
    <glyph glyph-name="Idotaccent" unicode="&#x130;" horiz-adv-x="226" 
d="M76 0v739h74v-739h-74zM76 931h74v-126h-74v126z" />
    <glyph glyph-name="dotlessi" unicode="&#x131;" horiz-adv-x="200" 
d="M63 0v547h74v-547h-74z" />
    <glyph glyph-name="Jcircumflex" unicode="&#x134;" horiz-adv-x="482" 
d="M406 739v-508q0 -88 -27 -144q-1 -3 -2 -5q-47 -96 -168 -96q-124 0 -174 94q-21 41 -24 95h73q6 -85 74 -112q24 -9 52 -9q122 0 122 177v508h74zM192 839l145 126h66l143 -126h-89l-86 74l-88 -74h-91z" />
    <glyph glyph-name="jcircumflex" unicode="&#x135;" horiz-adv-x="203" 
d="M140 547v-509q0 -112 -35 -158q-13 -18 -35 -35q-47 -34 -115 -37v71q74 4 96 56q15 35 15 103v509h74zM-74 651l145 126h66l143 -126h-89l-86 74l-88 -74h-91z" />
    <glyph glyph-name="uni0136" unicode="&#x136;" horiz-adv-x="591" 
d="M76 0v739h74v-425l342 425h93l-292 -360l292 -379h-93l-246 320l-96 -118v-202h-74zM221 -225l48 172h74l-48 -172h-74z" />
    <glyph glyph-name="uni0137" unicode="&#x137;" horiz-adv-x="502" 
d="M63 0v739h74v-524l255 332h91l-213 -275l227 -272h-92l-182 219l-86 -106v-113h-74zM177 -225l48 172h74l-48 -172h-74z" />
    <glyph glyph-name="kgreenlandic" unicode="&#x138;" horiz-adv-x="502" 
d="M137 548v-548h-74v547zM392 549l91 -2l-213 -275l227 -272h-92l-226 272z" />
    <glyph glyph-name="Lacute" unicode="&#x139;" horiz-adv-x="462" 
d="M76 0v739h74v-672h306v-67h-380zM118 848l193 116l34 -58l-193 -114z" />
    <glyph glyph-name="lacute" unicode="&#x13a;" horiz-adv-x="200" 
d="M63 0v739h74v-739h-74zM-14 848l193 116l34 -58l-193 -114z" />
    <glyph glyph-name="uni013B" unicode="&#x13b;" horiz-adv-x="462" 
d="M76 0v739h74v-672h306v-67h-380zM157 -225l48 172h74l-48 -172h-74z" />
    <glyph glyph-name="uni013C" unicode="&#x13c;" horiz-adv-x="200" 
d="M63 0v739h74v-739h-74zM26 -225l48 172h74l-48 -172h-74z" />
    <glyph glyph-name="Lcaron" unicode="&#x13d;" horiz-adv-x="462" 
d="M76 0v739h74v-672h306v-67h-380zM273 547l48 192h74l-48 -192h-74z" />
    <glyph glyph-name="lcaron" unicode="&#x13e;" horiz-adv-x="245" 
d="M63 0v739h74v-739h-74zM163 547l48 192h74l-48 -192h-74z" />
    <glyph glyph-name="Ldot" unicode="&#x13f;" horiz-adv-x="462" 
d="M76 0v739h74v-672h306v-67h-380zM261 307v126h74v-126h-74z" />
    <glyph glyph-name="ldot" unicode="&#x140;" horiz-adv-x="320" 
d="M211 250v126h74v-126h-74zM63 0v739h74v-739h-74z" />
    <glyph glyph-name="Lslash" unicode="&#x141;" horiz-adv-x="517" 
d="M122 0v303l-96 -79v83l96 80v352h74v-303l160 133v-84l-160 -132v-286h306v-67h-380z" />
    <glyph glyph-name="lslash" unicode="&#x142;" horiz-adv-x="300" 
d="M114 0v346l-78 -53v72l78 53v321h74v-288l82 55v-73l-82 -54v-379h-74z" />
    <glyph glyph-name="Nacute" unicode="&#x143;" horiz-adv-x="740" 
d="M76 0v739h100l414 -613v613h74v-739h-74l-440 650v-650h-74zM257 848l193 116l34 -58l-193 -114z" />
    <glyph glyph-name="nacute" unicode="&#x144;" horiz-adv-x="610" 
d="M63 0v547h74v-71q69 84 176 84q118 0 186 -85q43 -57 47 -151q1 -17 1 -37v-287h-74v287q0 97 -36 146q-47 58 -133 59q-86 0 -133 -61q-3 -3 -5 -6q-29 -42 -29 -124v-301h-74zM192 666l193 116l34 -58l-193 -114z" />
    <glyph glyph-name="uni0145" unicode="&#x145;" horiz-adv-x="740" 
d="M76 0v739h100l414 -613v613h74v-739h-74l-440 650v-650h-74zM296 -225l48 172h74l-48 -172h-74z" />
    <glyph glyph-name="uni0146" unicode="&#x146;" horiz-adv-x="610" 
d="M63 0v547h74v-71q69 84 176 84q118 0 186 -85q43 -57 47 -151q1 -17 1 -37v-287h-74v287q0 97 -36 146q-47 58 -133 59q-86 0 -133 -61q-3 -3 -5 -6q-29 -42 -29 -124v-301h-74zM231 -225l48 172h74l-48 -172h-74z" />
    <glyph glyph-name="Ncaron" unicode="&#x147;" horiz-adv-x="740" 
d="M76 0v739h100l414 -613v613h74v-739h-74l-440 650v-650h-74zM547 931l-145 -126h-66l-143 126h89l86 -74l88 74h91z" />
    <glyph glyph-name="ncaron" unicode="&#x148;" horiz-adv-x="610" 
d="M63 0v547h74v-71q69 84 176 84q118 0 186 -85q43 -57 47 -151q1 -17 1 -37v-287h-74v287q0 97 -36 146q-47 58 -133 59q-86 0 -133 -61q-3 -3 -5 -6q-29 -42 -29 -124v-301h-74zM482 749l-145 -126h-66l-143 126h89l86 -74l88 74h91z" />
    <glyph glyph-name="napostrophe" unicode="&#x149;" horiz-adv-x="610" 
d="M63 0v547h74v-71q69 84 176 84q118 0 186 -85q43 -57 47 -151q1 -17 1 -37v-287h-74v287q0 97 -36 146q-47 58 -133 59q-86 0 -133 -61q-3 -3 -5 -6q-29 -42 -29 -124v-301h-74z" />
    <glyph glyph-name="Eng" unicode="&#x14a;" horiz-adv-x="740" 
d="M76 0v739h100l414 -613v613h74v-739h-74l-440 650v-650h-74z" />
    <glyph glyph-name="eng" unicode="&#x14b;" horiz-adv-x="610" 
d="M63 0v547h74v-71q69 84 176 84q118 0 186 -85q43 -57 47 -151q1 -17 1 -37v-287h-74v287q0 97 -36 146q-47 58 -133 59q-86 0 -133 -61q-3 -3 -5 -6q-29 -42 -29 -124v-301h-74z" />
    <glyph glyph-name="Omacron" unicode="&#x14c;" horiz-adv-x="869" 
d="M435 752q153 0 265 -103l33 -33q92 -108 92 -247q0 -147 -103 -257q-101 -109 -248 -123q-20 -2 -39 -2q-156 0 -269 105q-110 103 -121 253q-1 14 -1 29q0 143 103 252q100 108 245 124q21 2 43 2zM435 684q-127 0 -220 -90q-93 -98 -96 -222q0 -131 92 -224
q93 -93 224 -93q128 0 220 91q93 96 95 222q0 129 -92 222l-33 29q-85 65 -190 65zM266 889h337v-64h-337v64z" />
    <glyph glyph-name="omacron" unicode="&#x14d;" 
d="M329 560q132 0 214 -92q70 -80 70 -196q0 -133 -90 -215l-32 -25q-69 -45 -156 -45q-137 0 -221 93q-72 80 -72 197q0 126 90 208q81 75 197 75zM329 492q-103 0 -165 -77q-36 -46 -45 -106q-2 -17 -2 -34q0 -112 80 -175q57 -45 136 -45q103 0 162 79q43 58 43 137
q0 110 -76 174q-44 37 -103 45q-15 2 -30 2zM159 707h337v-64h-337v64z" />
    <glyph glyph-name="Obreve" unicode="&#x14e;" horiz-adv-x="869" 
d="M435 752q153 0 265 -103l33 -33q92 -108 92 -247q0 -147 -103 -257q-101 -109 -248 -123q-20 -2 -39 -2q-156 0 -269 105q-110 103 -121 253q-1 14 -1 29q0 143 103 252q100 108 245 124q21 2 43 2zM435 684q-127 0 -220 -90q-93 -98 -96 -222q0 -131 92 -224
q93 -93 224 -93q128 0 220 91q93 96 95 222q0 129 -92 222l-33 29q-85 65 -190 65zM282 959h64q5 -32 26 -46q29 -16 62 -16t62 16q21 14 26 46h64q-11 -60 -40 -84l-9 -7q-40 -29 -103 -29q-121 0 -148 103q-2 8 -4 17z" />
    <glyph glyph-name="obreve" unicode="&#x14f;" 
d="M329 560q132 0 214 -92q70 -80 70 -196q0 -133 -90 -215l-32 -25q-69 -45 -156 -45q-137 0 -221 93q-72 80 -72 197q0 126 90 208q81 75 197 75zM329 492q-103 0 -165 -77q-36 -46 -45 -106q-2 -17 -2 -34q0 -112 80 -175q57 -45 136 -45q103 0 162 79q43 58 43 137
q0 110 -76 174q-44 37 -103 45q-15 2 -30 2zM176 767h64q5 -32 26 -46q29 -16 62 -16t62 16q21 14 26 46h64q-11 -60 -40 -84l-9 -7q-40 -29 -103 -29q-121 0 -148 103q-2 8 -4 17z" />
    <glyph glyph-name="Ohungarumlaut" unicode="&#x150;" horiz-adv-x="869" 
d="M435 752q153 0 265 -103l33 -33q92 -108 92 -247q0 -147 -103 -257q-101 -109 -248 -123q-20 -2 -39 -2q-156 0 -269 105q-110 103 -121 253q-1 14 -1 29q0 143 103 252q100 108 245 124q21 2 43 2zM435 684q-127 0 -220 -90q-93 -98 -96 -222q0 -131 92 -224
q93 -93 224 -93q128 0 220 91q93 96 95 222q0 129 -92 222l-33 29q-85 65 -190 65zM273 839l171 123l38 -49l-174 -121zM469 839l171 123l38 -49l-174 -121z" />
    <glyph glyph-name="ohungarumlaut" unicode="&#x151;" 
d="M329 560q132 0 214 -92q70 -80 70 -196q0 -133 -90 -215l-32 -25q-69 -45 -156 -45q-137 0 -221 93q-72 80 -72 197q0 126 90 208q81 75 197 75zM329 492q-103 0 -165 -77q-36 -46 -45 -106q-2 -17 -2 -34q0 -112 80 -175q57 -45 136 -45q103 0 162 79q43 58 43 137
q0 110 -76 174q-44 37 -103 45q-15 2 -30 2zM166 657l171 123l38 -49l-174 -121zM362 657l171 123l38 -49l-174 -121z" />
    <glyph glyph-name="OE" unicode="&#x152;" horiz-adv-x="1194" 
d="M745 739h393v-67h-319v-265h308v-67h-308v-273h319v-67h-393v151q-91 -157 -284 -164h-16q-174 0 -288 110q-112 108 -113 274q0 162 109 270q114 109 279 111q177 0 278 -113q20 -21 35 -47v147zM432 684q-142 0 -230 -94q-72 -79 -82 -189q-1 -13 -1 -26
q0 -144 98 -235q89 -85 222 -85q140 0 227 98q80 89 80 219q0 144 -99 233q-87 79 -215 79z" />
    <glyph glyph-name="oe" unicode="&#x153;" horiz-adv-x="1137" 
d="M1096 248h-488q4 -62 41 -109q3 -3 5 -6q67 -78 170 -78q128 0 188 124h74q-18 -69 -84 -129q-72 -63 -174 -63q-134 0 -216 91q-25 27 -41 60q-74 -129 -191 -147q-23 -4 -49 -4q-128 0 -212 90q-77 81 -77 197q0 126 88 210q80 76 194 76q159 0 247 -146
q85 146 246 146q126 0 208 -87q73 -77 73 -187q0 -4 -2 -38zM608 315h419q-17 100 -102 149q-49 28 -110 28q-111 0 -171 -93q-24 -37 -36 -84zM326 492q-103 0 -163 -79q-46 -59 -46 -140q0 -103 75 -167q59 -51 139 -51q97 0 158 76q47 60 47 142q0 109 -77 172
q-56 47 -133 47z" />
    <glyph glyph-name="Racute" unicode="&#x154;" horiz-adv-x="607" 
d="M359 276l207 -276h-92l-249 335q114 0 165 13q112 30 112 156q0 103 -78 141q-57 27 -170 27h-104v-672h-74v739h183q141 0 207 -36q111 -60 111 -202q0 -163 -147 -210q-32 -11 -71 -15zM190 848l193 116l34 -58l-193 -114z" />
    <glyph glyph-name="racute" unicode="&#x155;" horiz-adv-x="301" 
d="M63 0v547h74v-78q37 77 129 89q12 1 26 2v-73q-155 -15 -155 -168v-319h-74zM97 666l193 116l34 -58l-193 -114z" />
    <glyph glyph-name="uni0156" unicode="&#x156;" horiz-adv-x="607" 
d="M359 276l207 -276h-92l-249 335q114 0 165 13q112 30 112 156q0 103 -78 141q-57 27 -170 27h-104v-672h-74v739h183q141 0 207 -36q111 -60 111 -202q0 -163 -147 -210q-32 -11 -71 -15zM229 -225l48 172h74l-48 -172h-74z" />
    <glyph glyph-name="uni0157" unicode="&#x157;" horiz-adv-x="301" 
d="M63 0v547h74v-78q37 77 129 89q12 1 26 2v-73q-155 -15 -155 -168v-319h-74zM76 -225l48 172h74l-48 -172h-74z" />
    <glyph glyph-name="Rcaron" unicode="&#x158;" horiz-adv-x="607" 
d="M359 276l207 -276h-92l-249 335q114 0 165 13q112 30 112 156q0 103 -78 141q-57 27 -170 27h-104v-672h-74v739h183q141 0 207 -36q111 -60 111 -202q0 -163 -147 -210q-32 -11 -71 -15zM481 931l-145 -126h-66l-143 126h89l86 -74l88 74h91z" />
    <glyph glyph-name="rcaron" unicode="&#x159;" horiz-adv-x="301" 
d="M63 0v547h74v-78q37 77 129 89q12 1 26 2v-73q-155 -15 -155 -168v-319h-74zM364 749l-145 -126h-66l-143 126h89l86 -74l88 74h91z" />
    <glyph glyph-name="Sacute" unicode="&#x15a;" horiz-adv-x="498" 
d="M22 207h79q7 -62 35 -97q48 -52 119 -55q80 0 121 62q25 37 25 85q0 70 -51 106q-34 24 -114 49q-93 28 -122 51q-8 6 -16 14q-52 49 -52 131q0 101 77 159q54 40 128 40q113 0 170 -81q35 -50 37 -119h-77q-5 86 -71 118q-27 14 -61 14q-72 0 -108 -57q-20 -32 -20 -72
q0 -54 35 -86q24 -20 100 -43q4 -2 9 -3q96 -29 137 -59q70 -62 74 -158q0 -108 -80 -171q-60 -48 -143 -48q-124 0 -188 89q-39 55 -43 131zM176 848l193 116l34 -58l-193 -114z" />
    <glyph glyph-name="sacute" unicode="&#x15b;" horiz-adv-x="388" 
d="M18 161h73q5 -84 71 -102q15 -4 32 -4q55 0 80 47q12 21 12 48q0 47 -35 71q-24 16 -71 34q-75 31 -89 42q-4 3 -12 11q-41 38 -41 98q0 83 64 127q40 27 91 27q87 0 129 -66q23 -35 25 -82h-75q-6 78 -80 80q-47 0 -69 -41q-10 -17 -10 -38q0 -47 50 -72q20 -10 103 -44
q95 -40 95 -140q0 -94 -70 -142q-41 -28 -97 -28q-103 0 -150 76q-25 42 -26 98zM121 666l193 116l34 -58l-193 -114z" />
    <glyph glyph-name="Scircumflex" unicode="&#x15c;" horiz-adv-x="498" 
d="M22 207h79q7 -62 35 -97q48 -52 119 -55q80 0 121 62q25 37 25 85q0 70 -51 106q-34 24 -114 49q-93 28 -122 51q-8 6 -16 14q-52 49 -52 131q0 101 77 159q54 40 128 40q113 0 170 -81q35 -50 37 -119h-77q-5 86 -71 118q-27 14 -61 14q-72 0 -108 -57q-20 -32 -20 -72
q0 -54 35 -86q24 -20 100 -43q4 -2 9 -3q96 -29 137 -59q70 -62 74 -158q0 -108 -80 -171q-60 -48 -143 -48q-124 0 -188 89q-39 55 -43 131zM75 839l145 126h66l143 -126h-89l-86 74l-88 -74h-91z" />
    <glyph glyph-name="scircumflex" unicode="&#x15d;" horiz-adv-x="388" 
d="M18 161h73q5 -84 71 -102q15 -4 32 -4q55 0 80 47q12 21 12 48q0 47 -35 71q-24 16 -71 34q-75 31 -89 42q-4 3 -12 11q-41 38 -41 98q0 83 64 127q40 27 91 27q87 0 129 -66q23 -35 25 -82h-75q-6 78 -80 80q-47 0 -69 -41q-10 -17 -10 -38q0 -47 50 -72q20 -10 103 -44
q95 -40 95 -140q0 -94 -70 -142q-41 -28 -97 -28q-103 0 -150 76q-25 42 -26 98zM53 647l145 126h66l143 -126h-89l-86 74l-88 -74h-91z" />
    <glyph glyph-name="Scedilla" unicode="&#x15e;" horiz-adv-x="498" 
d="M242 -13l-14 -34q20 8 33 8q51 0 69 -46q7 -16 7 -35q0 -59 -46 -83q-19 -10 -42 -10q-71 0 -88 73l44 5q10 -35 45 -35q33 0 42 31q2 7 2 15q0 38 -30 49q-8 3 -16 3q-23 0 -43 -24l-29 17l31 70q-107 19 -157 108q-27 48 -28 108h79q7 -62 35 -97q48 -52 119 -55
q80 0 121 62q25 37 25 85q0 70 -51 106q-34 24 -114 49q-93 28 -122 51q-8 6 -16 14q-52 49 -52 131q0 101 77 159q54 40 128 40q113 0 170 -81q35 -50 37 -119h-77q-5 86 -71 118q-27 14 -61 14q-72 0 -108 -57q-20 -32 -20 -72q0 -54 35 -86q24 -20 100 -43q4 -2 9 -3
q96 -29 137 -59q70 -62 74 -158q0 -106 -78 -170q-37 -29 -83 -41q-29 -8 -60 -8h-13z" />
    <glyph glyph-name="scedilla" unicode="&#x15f;" horiz-adv-x="388" 
d="M187 -13l-14 -34q20 8 33 8q51 0 69 -46q7 -16 7 -35q0 -59 -46 -83q-19 -10 -42 -10q-71 0 -88 73l44 5q10 -35 45 -35q33 0 42 31q2 7 2 15q0 38 -30 49l-16 3q-23 0 -43 -24l-29 17l31 70q-86 18 -119 94q-15 34 -15 76h73q5 -84 71 -102q15 -4 32 -4q55 0 80 47
q12 21 12 48q0 47 -35 71q-24 16 -71 34q-75 31 -89 42q-4 3 -12 11q-41 38 -41 98q0 83 64 127q40 27 91 27q87 0 129 -66q23 -35 25 -82h-75q-6 78 -80 80q-47 0 -69 -41q-10 -17 -10 -38q0 -47 50 -72q20 -10 103 -44q95 -40 95 -140q0 -92 -68 -140q-42 -30 -98 -30h-8z
" />
    <glyph glyph-name="Scaron" unicode="&#x160;" horiz-adv-x="498" 
d="M22 207h79q7 -62 35 -97q48 -52 119 -55q80 0 121 62q25 37 25 85q0 70 -51 106q-34 24 -114 49q-93 28 -122 51q-8 6 -16 14q-52 49 -52 131q0 101 77 159q54 40 128 40q113 0 170 -81q35 -50 37 -119h-77q-5 86 -71 118q-27 14 -61 14q-72 0 -108 -57q-20 -32 -20 -72
q0 -54 35 -86q24 -20 100 -43q4 -2 9 -3q96 -29 137 -59q70 -62 74 -158q0 -108 -80 -171q-60 -48 -143 -48q-124 0 -188 89q-39 55 -43 131zM436 931l-145 -126h-66l-143 126h89l86 -74l88 74h91z" />
    <glyph glyph-name="scaron" unicode="&#x161;" horiz-adv-x="388" 
d="M19 161h73q5 -87 75 -103q13 -3 28 -3q55 0 80 47q12 21 12 48q0 47 -35 71q-21 13 -71 34q-74 31 -89 42q-4 4 -12 11q-41 38 -41 98q0 83 64 127q40 27 91 27q87 0 129 -66q23 -35 25 -82h-75q-6 78 -80 80q-47 0 -69 -41q-10 -17 -10 -38q0 -47 50 -72q20 -10 103 -44
q95 -40 95 -140q0 -94 -70 -142q-41 -28 -97 -28q-106 0 -152 79q-23 40 -24 95zM371 749l-145 -126h-66l-143 126h89l86 -74l88 74h91z" />
    <glyph glyph-name="uni0162" unicode="&#x162;" horiz-adv-x="426" 
d="M176 0v672h-169v67h412v-67h-169v-672h-74zM175 0h36l-19 -47q20 8 33 8q51 0 69 -46q7 -16 7 -35q0 -59 -46 -83q-19 -10 -42 -10q-71 0 -88 73l44 5q10 -35 45 -35q33 0 42 31q2 7 2 15q0 38 -30 49l-16 3q-23 0 -43 -24l-29 17z" />
    <glyph glyph-name="uni0163" unicode="&#x163;" horiz-adv-x="339" 
d="M130 0v480h-118v67h118v192h74v-192h123v-67h-123v-480h-74zM129 0h36l-19 -47q20 8 33 8q51 0 69 -46q7 -16 7 -35q0 -59 -46 -83q-19 -10 -42 -10q-71 0 -88 73l44 5q10 -35 45 -35q33 0 42 31q2 7 2 15q0 38 -30 49l-16 3q-23 0 -43 -24l-29 17z" />
    <glyph glyph-name="Tcaron" unicode="&#x164;" horiz-adv-x="426" 
d="M176 0v672h-169v67h412v-67h-169v-672h-74zM390 931l-145 -126h-66l-143 126h89l86 -74l88 74h91z" />
    <glyph glyph-name="tcaron" unicode="&#x165;" horiz-adv-x="339" 
d="M130 0v480h-118v67h118v192h74v-192h123v-67h-123v-480h-74zM260 567l45 172h74l-45 -172h-74z" />
    <glyph glyph-name="Tbar" unicode="&#x166;" horiz-adv-x="426" 
d="M250 421v-421h-74v421h-169v64h169v187h-169v67h412v-67h-169v-187h169v-64h-169z" />
    <glyph glyph-name="tbar" unicode="&#x167;" horiz-adv-x="339" 
d="M204 315v-315h-74v315h-118v64h118v101h-118v67h118v192h74v-192h123v-67h-123v-101h123v-64h-123z" />
    <glyph glyph-name="Utilde" unicode="&#x168;" 
d="M76 739h74v-461q0 -101 34 -153q38 -58 118 -68q13 -2 26 -2q82 0 130 54q7 7 13 16q34 52 34 153v461h74v-461q0 -124 -45 -190q-3 -5 -7 -10q-60 -78 -170 -89q-15 -2 -30 -2q-111 0 -182 71q-9 10 -17 20q-49 64 -52 178v22v461zM439 934l33 -46q-19 -32 -65 -45
q-14 -4 -26 -4q-21 0 -66 22q-25 10 -40 10q-21 0 -44 -18l-9 -8l-7 -6l-33 46q38 49 93 49q23 0 59 -17q32 -14 48 -14q27 0 57 31z" />
    <glyph glyph-name="utilde" unicode="&#x169;" horiz-adv-x="608" 
d="M545 547v-547h-74v85q-49 -90 -154 -97l-22 -1q-126 0 -189 87q-43 59 -43 178v295h74v-295q0 -85 26 -128q35 -61 120 -68q9 -1 18 -1q88 0 137 68q33 49 33 143v281h74zM416 742l33 -46q-19 -32 -65 -45q-14 -4 -26 -4q-21 0 -66 22q-25 10 -40 10q-21 0 -44 -18l-9 -8
l-7 -6l-33 46q38 49 93 49q23 0 59 -17q32 -14 48 -14q27 0 57 31z" />
    <glyph glyph-name="Umacron" unicode="&#x16a;" 
d="M76 739h74v-461q0 -101 34 -153q38 -58 118 -68q13 -2 26 -2q82 0 130 54q7 7 13 16q34 52 34 153v461h74v-461q0 -124 -45 -190q-3 -5 -7 -10q-60 -78 -170 -89q-15 -2 -30 -2q-111 0 -182 71q-9 10 -17 20q-49 64 -52 178v22v461zM159 889h337v-64h-337v64z" />
    <glyph glyph-name="umacron" unicode="&#x16b;" horiz-adv-x="608" 
d="M545 547v-547h-74v85q-49 -90 -154 -97l-22 -1q-126 0 -189 87q-43 59 -43 178v295h74v-295q0 -85 26 -128q35 -61 120 -68q9 -1 18 -1q88 0 137 68q33 49 33 143v281h74zM136 707h337v-64h-337v64z" />
    <glyph glyph-name="Ubreve" unicode="&#x16c;" 
d="M76 739h74v-461q0 -101 34 -153q38 -58 118 -68q13 -2 26 -2q82 0 130 54q7 7 13 16q34 52 34 153v461h74v-461q0 -124 -45 -190q-3 -5 -7 -10q-60 -78 -170 -89q-15 -2 -30 -2q-111 0 -182 71q-9 10 -17 20q-49 64 -52 178v22v461zM176 959h64q5 -32 26 -46
q29 -16 62 -16t62 16q21 14 26 46h64q-11 -60 -40 -84l-9 -7q-40 -29 -103 -29q-121 0 -148 103q-2 8 -4 17z" />
    <glyph glyph-name="ubreve" unicode="&#x16d;" horiz-adv-x="608" 
d="M545 547v-547h-74v85q-49 -90 -154 -97l-22 -1q-126 0 -189 87q-43 59 -43 178v295h74v-295q0 -85 26 -128q35 -61 120 -68q9 -1 18 -1q88 0 137 68q33 49 33 143v281h74zM152 767h64q5 -32 26 -46q29 -16 62 -16t62 16q21 14 26 46h64q-11 -60 -40 -84l-9 -7
q-40 -29 -103 -29q-121 0 -148 103q-2 8 -4 17z" />
    <glyph glyph-name="Uring" unicode="&#x16e;" 
d="M76 739h74v-461q0 -101 34 -153q38 -58 118 -68q13 -2 26 -2q82 0 130 54q7 7 13 16q34 52 34 153v461h74v-461q0 -124 -45 -190q-3 -5 -7 -10q-60 -78 -170 -89q-15 -2 -30 -2q-111 0 -182 71q-9 10 -17 20q-49 64 -52 178v22v461zM328 976q50 0 77 -44l11 -24
q3 -12 3 -24q0 -52 -44 -78q-22 -14 -48 -14q-51 0 -78 43q-14 22 -14 48q0 53 44 80q23 13 49 13zM327 935q-33 0 -46 -30q-5 -11 -5 -22q0 -31 29 -45q11 -5 22 -5q32 0 46 29q5 11 5 22q0 32 -29 46q-11 5 -22 5z" />
    <glyph glyph-name="uring" unicode="&#x16f;" horiz-adv-x="608" 
d="M545 547v-547h-74v85q-49 -90 -154 -97l-22 -1q-126 0 -189 87q-43 59 -43 178v295h74v-295q0 -85 26 -128q35 -61 120 -68q9 -1 18 -1q88 0 137 68q33 49 33 143v281h74zM305 794q50 0 77 -44l11 -24q3 -12 3 -24q0 -52 -44 -78q-22 -14 -48 -14q-51 0 -78 43
q-14 22 -14 48q0 53 44 80q23 13 49 13zM304 753q-33 0 -46 -30q-5 -11 -5 -22q0 -31 29 -45q11 -5 22 -5q32 0 46 29q5 11 5 22q0 32 -29 46q-11 5 -22 5z" />
    <glyph glyph-name="Uhungarumlaut" unicode="&#x170;" 
d="M76 739h74v-461q0 -101 34 -153q38 -58 118 -68q13 -2 26 -2q82 0 130 54q7 7 13 16q34 52 34 153v461h74v-461q0 -124 -45 -190q-3 -5 -7 -10q-60 -78 -170 -89q-15 -2 -30 -2q-111 0 -182 71q-9 10 -17 20q-49 64 -52 178v22v461zM166 839l171 123l38 -49l-174 -121z
M362 839l171 123l38 -49l-174 -121z" />
    <glyph glyph-name="uhungarumlaut" unicode="&#x171;" horiz-adv-x="608" 
d="M545 547v-547h-74v85q-49 -90 -154 -97l-22 -1q-126 0 -189 87q-43 59 -43 178v295h74v-295q0 -85 26 -128q35 -61 120 -68q9 -1 18 -1q88 0 137 68q33 49 33 143v281h74zM142 657l171 123l38 -49l-174 -121zM338 657l171 123l38 -49l-174 -121z" />
    <glyph glyph-name="Uogonek" unicode="&#x172;" 
d="M579 739v-461q0 -117 -33 -173q-25 -42 -87 -90q-91 -69 -92 -112q0 -33 35 -45q11 -4 24 -4q24 0 45 10v-46q-29 -9 -50 -9q-64 0 -92 45q-12 21 -12 45q0 51 57 92q-25 -4 -47 -4q-115 0 -186 75q-7 8 -13 16q-49 64 -52 178v22v461h74v-461q0 -100 34 -153
q37 -57 116 -68q13 -2 27 -2q84 0 132 55q7 7 12 15q34 53 34 153v461h74z" />
    <glyph glyph-name="uogonek" unicode="&#x173;" horiz-adv-x="608" 
d="M545 547v-547q-24 -17 -41 -37q-32 -35 -32 -60q0 -35 37 -46q10 -3 22 -3q24 0 45 10v-46q-28 -9 -51 -9q-64 0 -91 46q-12 20 -12 44q0 54 58 93q6 4 13 8h-22v85q-49 -90 -154 -97l-22 -1q-126 0 -189 87q-43 59 -43 178v295h74v-295q0 -85 26 -128q35 -61 120 -68
q9 -1 18 -1q88 0 137 68q33 49 33 143v281h74z" />
    <glyph glyph-name="Wcircumflex" unicode="&#x174;" horiz-adv-x="960" 
d="M221 0l-211 739h76l182 -643l177 643h70l177 -643l182 643h76l-212 -739h-95l-164 606l-162 -606h-96zM303 839l145 126h66l143 -126h-89l-86 74l-88 -74h-91z" />
    <glyph glyph-name="wcircumflex" unicode="&#x175;" horiz-adv-x="831" 
d="M216 0l-209 547h74l174 -458l129 391h61l129 -391l178 458h72l-212 -547h-79l-119 363l-118 -363h-80zM239 647l145 126h66l143 -126h-89l-86 74l-88 -74h-91z" />
    <glyph glyph-name="Ycircumflex" unicode="&#x176;" horiz-adv-x="592" 
d="M258 0v247l-256 492h82l210 -414l215 414h81l-258 -492v-247h-74zM119 839l145 126h66l143 -126h-89l-86 74l-88 -74h-91z" />
    <glyph glyph-name="ycircumflex" unicode="&#x177;" horiz-adv-x="536" 
d="M132 -192l89 210l-212 529h81l173 -436l185 436h79l-316 -739h-79zM91 647l145 126h66l143 -126h-89l-86 74l-88 -74h-91z" />
    <glyph glyph-name="Ydieresis" unicode="&#x178;" horiz-adv-x="592" 
d="M258 0v247l-256 492h82l210 -414l215 414h81l-258 -492v-247h-74zM186 931h74v-126h-74v126zM333 931h74v-126h-74v126z" />
    <glyph glyph-name="Zacute" unicode="&#x179;" horiz-adv-x="480" 
d="M17 0v67l363 605h-352v67h435v-67l-362 -605h373v-67h-457zM167 848l193 116l34 -58l-193 -114z" />
    <glyph glyph-name="zacute" unicode="&#x17a;" horiz-adv-x="425" 
d="M10 0v67l302 413h-292v67h376v-63l-299 -417h318v-67h-405zM139 666l193 116l34 -58l-193 -114z" />
    <glyph glyph-name="Zdotaccent" unicode="&#x17b;" horiz-adv-x="480" 
d="M17 0v67l363 605h-352v67h435v-67l-362 -605h373v-67h-457zM203 931h74v-126h-74v126z" />
    <glyph glyph-name="zdotaccent" unicode="&#x17c;" horiz-adv-x="425" 
d="M10 0v67l302 413h-292v67h376v-63l-299 -417h318v-67h-405zM176 749h74v-126h-74v126z" />
    <glyph glyph-name="Zcaron" unicode="&#x17d;" horiz-adv-x="480" 
d="M17 0v67l363 605h-352v67h435v-67l-362 -605h373v-67h-457zM426 931l-145 -126h-66l-143 126h89l86 -74l88 74h91z" />
    <glyph glyph-name="zcaron" unicode="&#x17e;" horiz-adv-x="425" 
d="M10 0v67l302 413h-292v67h376v-63l-299 -417h318v-67h-405zM389 749l-145 -126h-66l-143 126h89l86 -74l88 74h91z" />
    <glyph glyph-name="longs" unicode="&#x17f;" horiz-adv-x="314" 
d="M101 0v480h-85v67h85l3 46q22 146 207 146v-67q-97 -1 -123 -50q-13 -26 -13 -75v-547h-74z" />
    <glyph glyph-name="florin" unicode="&#x192;" horiz-adv-x="554" 
d="M392 584h112l-12 -67h-112l-80 -431q-22 -119 -49 -158q-10 -15 -26 -29q-58 -52 -149 -52q-34 0 -58 7l12 64q31 -4 48 -4q75 0 107 44q27 38 46 134l80 425h-113l13 67h111l4 23q22 112 74 161q55 46 117 50q8 0 29 -3l-11 -66q-11 2 -22 2q-36 0 -64 -26
q-36 -33 -53 -118z" />
    <glyph glyph-name="uni0218" unicode="&#x218;" horiz-adv-x="498" 
d="M22 207h79q7 -62 35 -97q48 -52 119 -55q80 0 121 62q25 37 25 85q0 70 -51 106q-34 24 -114 49q-93 28 -122 51q-8 6 -16 14q-52 49 -52 131q0 101 77 159q54 40 128 40q113 0 170 -81q35 -50 37 -119h-77q-5 86 -71 118q-27 14 -61 14q-72 0 -108 -57q-20 -32 -20 -72
q0 -54 35 -86q24 -20 100 -43q4 -2 9 -3q96 -29 137 -59q70 -62 74 -158q0 -108 -80 -171q-60 -48 -143 -48q-124 0 -188 89q-39 55 -43 131zM175 -225l48 172h74l-48 -172h-74z" />
    <glyph glyph-name="uni0219" unicode="&#x219;" horiz-adv-x="388" 
d="M18 161h73q5 -84 71 -102q15 -4 32 -4q55 0 80 47q12 21 12 48q0 47 -35 71q-24 16 -71 34q-75 31 -89 42q-4 3 -12 11q-41 38 -41 98q0 83 64 127q40 27 91 27q87 0 129 -66q23 -35 25 -82h-75q-6 78 -80 80q-47 0 -69 -41q-10 -17 -10 -38q0 -47 50 -72q20 -10 103 -44
q95 -40 95 -140q0 -94 -70 -142q-41 -28 -97 -28q-103 0 -150 76q-25 42 -26 98zM120 -225l48 172h74l-48 -172h-74z" />
    <glyph glyph-name="circumflex" unicode="&#x2c6;" horiz-adv-x="502" 
d="M74 623l145 126h66l143 -126h-89l-86 74l-88 -74h-91z" />
    <glyph glyph-name="caron" unicode="&#x2c7;" horiz-adv-x="502" 
d="M428 749l-145 -126h-66l-143 126h89l86 -74l88 74h91z" />
    <glyph glyph-name="breve" unicode="&#x2d8;" horiz-adv-x="453" 
d="M74 743h64q5 -32 26 -46q29 -16 62 -16t62 16q21 14 26 46h64q-11 -60 -40 -84l-9 -7q-40 -29 -103 -29q-121 0 -148 103q-2 8 -4 17z" />
    <glyph glyph-name="dotaccent" unicode="&#x2d9;" horiz-adv-x="222" 
d="M74 749h74v-126h-74v126z" />
    <glyph glyph-name="ring" unicode="&#x2da;" horiz-adv-x="332" 
d="M167 794q50 0 77 -44l11 -24q3 -12 3 -24q0 -52 -44 -78q-22 -14 -48 -14q-51 0 -78 43q-14 22 -14 48q0 53 44 80q23 13 49 13zM166 753q-33 0 -46 -30q-5 -11 -5 -22q0 -31 29 -45q11 -5 22 -5q32 0 46 29q5 11 5 22q0 32 -29 46q-11 5 -22 5z" />
    <glyph glyph-name="ogonek" unicode="&#x2db;" horiz-adv-x="302" 
d="M146 0h51q-61 -44 -72 -86q-1 -6 -1 -11q0 -33 35 -45q11 -4 24 -4q24 0 45 10v-46q-28 -9 -51 -9q-64 0 -91 46q-12 20 -12 44q0 58 72 101z" />
    <glyph glyph-name="tilde" unicode="&#x2dc;" horiz-adv-x="439" 
d="M332 728l33 -46q-19 -32 -65 -45q-14 -4 -26 -4q-21 0 -66 22q-25 10 -40 10q-21 0 -44 -18l-9 -8l-7 -6l-33 46q38 49 93 49q23 0 59 -17q32 -14 48 -14q27 0 57 31z" />
    <glyph glyph-name="hungarumlaut" unicode="&#x2dd;" horiz-adv-x="552" 
d="M74 657l171 123l38 -49l-174 -121zM270 657l171 123l38 -49l-174 -121z" />
    <glyph glyph-name="uni0400" unicode="&#x400;" horiz-adv-x="536" 
d="M76 0v739h404v-67h-330v-265h319v-67h-319v-273h330v-67h-404zM113 958l198 -110l-33 -56l-197 108z" />
    <glyph glyph-name="uni0401" unicode="&#x401;" horiz-adv-x="536" 
d="M76 0v739h404v-67h-330v-265h319v-67h-319v-273h330v-67h-404zM168 924h74v-126h-74v126zM315 924h74v-126h-74v126z" />
    <glyph glyph-name="uni0402" unicode="&#x402;" horiz-adv-x="714" 
d="M532 -166q-30 -12 -66 -12h-64v62h66q46 0 92 55q3 3 6 7q13 15 20 48q0 3 1 6q12 47 12 237l-1 44q-4 36 -28 67q-27 37 -138 37h-178v-385h-74v671h-161v69h482v-69h-247v-219h175q158 0 209 -71q35 -49 35 -149q-1 -186 -12 -232q-23 -97 -89 -143q-17 -12 -40 -23z
" />
    <glyph glyph-name="uni0403" unicode="&#x403;" horiz-adv-x="487" 
d="M233 838l193 116l34 -58l-193 -114zM150 0h-74v739h404v-67h-330v-672z" />
    <glyph glyph-name="uni0404" unicode="&#x404;" horiz-adv-x="814" 
d="M120 347q9 -126 104 -212q90 -80 208 -80q106 0 182 61q32 23 74 78h82q-112 -207 -338 -207q-162 0 -273 106q-110 105 -115 262v12q0 165 109 275q109 109 275 110q159 0 265 -100q48 -45 75 -105h-84q-37 58 -80 87q-76 50 -174 50q-135 0 -225 -94q-70 -73 -83 -176
h426v-67h-428z" />
    <glyph glyph-name="uni0405" unicode="&#x405;" horiz-adv-x="498" 
d="M22 207h79q7 -62 35 -97q48 -52 119 -55q80 0 121 62q25 37 25 85q0 70 -51 106q-34 24 -114 49q-93 28 -122 51q-8 6 -16 14q-52 49 -52 131q0 101 77 159q54 40 128 40q113 0 170 -81q35 -50 37 -119h-77q-5 86 -71 118q-27 14 -61 14q-72 0 -108 -57q-20 -32 -20 -72
q0 -54 35 -86q24 -20 100 -43q4 -2 9 -3q96 -29 137 -59q70 -62 74 -158q0 -108 -80 -171q-60 -48 -143 -48q-124 0 -188 89q-39 55 -43 131z" />
    <glyph glyph-name="uni0406" unicode="&#x406;" horiz-adv-x="226" 
d="M76 0v739h74v-739h-74z" />
    <glyph glyph-name="uni0407" unicode="&#x407;" horiz-adv-x="226" 
d="M76 0v739h74v-739h-74zM2 905h74v-126h-74v126zM149 905h74v-126h-74v126z" />
    <glyph glyph-name="uni0408" unicode="&#x408;" horiz-adv-x="482" 
d="M406 739v-508q0 -88 -27 -144q-1 -3 -2 -5q-47 -96 -168 -96q-124 0 -174 94q-21 41 -24 95h73q6 -85 74 -112q24 -9 52 -9q122 0 122 177v508h74z" />
    <glyph glyph-name="uni0409" unicode="&#x409;" horiz-adv-x="960" 
d="M386 739l120 -319l122 1q152 0 205 -30q93 -52 99 -165v-14q0 -112 -71 -166q-61 -46 -214 -46h-60l-236 647l-235 -647h-81l279 739h72zM639 67q110 0 160 27q46 23 56 88l2 26q0 90 -69 125q-43 21 -162 21h-95z" />
    <glyph glyph-name="uni040A" unicode="&#x40a;" horiz-adv-x="1053" 
d="M608 67h101q110 0 160 27q55 37 58 114q0 82 -69 118q-43 21 -162 21h-88v-280zM608 739v-325h90q152 0 205 -30q75 -42 94 -126q5 -21 5 -45q-1 -115 -72 -167q-65 -46 -213 -46h-183v347h-384v-347h-74v739h74v-325h384v325h74z" />
    <glyph glyph-name="uni040B" unicode="&#x40b;" horiz-adv-x="714" 
d="M673 0h-74v237q0 107 -59 134q-33 14 -108 14h-178v-385h-74v672h-161v67h482v-67h-247v-220h175q158 0 209 -71q35 -50 35 -149v-232z" />
    <glyph glyph-name="uni040C" unicode="&#x40c;" horiz-adv-x="591" 
d="M233 838l193 116l34 -58l-193 -114zM150 0h-74v739h74v-739zM492 0l-292 379l292 360h93l-292 -360l292 -379h-93z" />
    <glyph glyph-name="uni040D" unicode="&#x40d;" horiz-adv-x="740" 
d="M76 739h74v-650l440 650h74v-739h-74v613l-414 -613h-100v739zM287 1005l198 -110l-33 -56l-197 108z" />
    <glyph glyph-name="uni040E" unicode="&#x40e;" horiz-adv-x="596" 
d="M155 906h64q5 -32 26 -46q29 -16 62 -16t62 16q21 14 26 46h64q-11 -60 -40 -84l-9 -7q-40 -29 -103 -29q-121 0 -148 103q-2 8 -4 17zM123 0l130 247l-249 492h82l210 -414l215 414h81l-258 -492l-130 -247h-81z" />
    <glyph glyph-name="uni040F" unicode="&#x40f;" horiz-adv-x="683" 
d="M607 739v-739h-226v-150h-81v150h-224v739h74v-672h383v672h74z" />
    <glyph glyph-name="uni0410" unicode="&#x410;" horiz-adv-x="740" 
d="M11 0l317 739h83l318 -739h-81l-107 249h-344l-108 -249h-78zM225 316h287l-142 339z" />
    <glyph glyph-name="uni0411" unicode="&#x411;" horiz-adv-x="571" 
d="M150 67h101q110 0 160 27q40 21 54 86q4 19 4 38q0 81 -50 123q-9 7 -19 12q-43 21 -162 21h-88v-307zM480 739v-67h-330v-231h90q152 0 205 -30q58 -32 85 -107q14 -40 14 -82q0 -96 -52 -156q-14 -17 -31 -27q-73 -38 -202 -39h-183v739h404z" />
    <glyph glyph-name="uni0412" unicode="&#x412;" horiz-adv-x="571" 
d="M76 0v739h173q127 0 187 -43q66 -49 66 -149q0 -116 -85 -153q127 -41 127 -182q0 -137 -96 -182q-63 -30 -178 -30h-194zM150 67h115q138 0 179 54q25 32 25 87q0 98 -82 128l-42 11l-62 6q-21 1 -45 1h-88v-287zM150 419h90q127 0 165 49q22 28 22 78q0 88 -73 112
q-42 14 -126 14h-78v-253z" />
    <glyph glyph-name="uni0413" unicode="&#x413;" horiz-adv-x="487" 
d="M150 0h-74v739h404v-67h-330v-672z" />
    <glyph glyph-name="uni0414" unicode="&#x414;" horiz-adv-x="848" 
d="M216 67h417l-209 580zM707 0h-567v-126h-74v193h70l252 672h72l251 -672h70v-193h-74v126z" />
    <glyph glyph-name="uni0415" unicode="&#x415;" horiz-adv-x="536" 
d="M76 0v739h404v-67h-330v-265h319v-67h-319v-273h330v-67h-404z" />
    <glyph glyph-name="uni0416" unicode="&#x416;" horiz-adv-x="974" 
d="M138 0h-93l292 379l-282 360h93l282 -360zM529 0h-74v739h74v-739zM841 0l-292 379l282 360h93l-282 -360l292 -379h-93z" />
    <glyph glyph-name="uni0417" unicode="&#x417;" horiz-adv-x="665" 
d="M137 207q0 -42 48 -89q64 -63 156 -63q122 0 178 69q28 36 28 82q0 89 -68 130q-35 21 -80 21h-104v67h106q55 0 96 48q30 36 30 77q0 73 -72 110q-48 25 -118 25q-118 0 -167 -96q-9 -17 -13 -33l-1 -3h-75l11 39q40 109 146 145q46 16 103 16q150 0 221 -86
q42 -50 42 -116q0 -81 -63 -138q-16 -15 -34 -25q52 -16 87 -75q28 -47 28 -102q0 -108 -95 -171l-37 -21q-68 -31 -155 -31q-167 0 -244 128q-31 53 -33 92h79z" />
    <glyph glyph-name="uni0418" unicode="&#x418;" horiz-adv-x="663" 
d="M76 739h74v-656l357 656h80v-739h-74v619l-330 -619h-107v739z" />
    <glyph glyph-name="uni0419" unicode="&#x419;" horiz-adv-x="663" 
d="M76 739h74v-656l357 656h80v-739h-74v619l-330 -619h-107v739zM180 919h64q5 -32 26 -46q29 -16 62 -16t62 16q21 14 26 46h64q-11 -60 -40 -84l-9 -7q-40 -29 -103 -29q-121 0 -148 103q-2 8 -4 17z" />
    <glyph glyph-name="uni041A" unicode="&#x41a;" horiz-adv-x="591" 
d="M150 0h-74v739h74v-739zM477 0l-312 379l302 360h93l-302 -360l312 -379h-93z" />
    <glyph glyph-name="uni041B" unicode="&#x41b;" horiz-adv-x="702" 
d="M314 739l-279 -739h81l235 647l236 -647h78l-279 739h-72z" />
    <glyph glyph-name="uni041C" unicode="&#x41c;" horiz-adv-x="919" 
d="M106 0v739h115l239 -629l238 629h115v-739h-74v658l-248 -658h-64l-247 658v-658h-74z" />
    <glyph glyph-name="uni041D" unicode="&#x41d;" horiz-adv-x="683" 
d="M76 0v739h74v-325h383v325h74v-739h-74v347h-383v-347h-74z" />
    <glyph glyph-name="uni041E" unicode="&#x41e;" horiz-adv-x="869" 
d="M435 752q153 0 265 -103l33 -33q92 -108 92 -247q0 -147 -103 -257q-101 -109 -248 -123q-20 -2 -39 -2q-156 0 -269 105q-110 103 -121 253q-1 14 -1 29q0 143 103 252q100 108 245 124q21 2 43 2zM435 684q-127 0 -220 -90q-93 -98 -96 -222q0 -131 92 -224
q93 -93 224 -93q128 0 220 91q93 96 95 222q0 129 -92 222l-33 29q-85 65 -190 65z" />
    <glyph glyph-name="uni041F" unicode="&#x41f;" horiz-adv-x="683" 
d="M76 0v739h531v-739h-74v672h-383v-672h-74z" />
    <glyph glyph-name="uni0420" unicode="&#x420;" horiz-adv-x="592" 
d="M76 0v739h204q133 0 197 -39q79 -47 87 -162q1 -11 1 -23q0 -116 -74 -170q-58 -42 -170 -46h-29h-142v-299h-74zM150 366h137q99 0 142 25q55 31 61 110v14q0 101 -67 135q-44 22 -168 22h-105v-306z" />
    <glyph glyph-name="uni0421" unicode="&#x421;" horiz-adv-x="813" 
d="M688 194h82q-112 -207 -338 -207q-164 0 -275 107q-109 115 -113 273q0 165 108 275q109 109 275 110q160 0 265 -100q48 -45 75 -105h-83q-37 58 -78 85q-1 1 -3 2q-74 50 -173 50q-136 0 -226 -95q-85 -89 -85 -219q0 -129 91 -222q91 -92 221 -93q106 0 183 61
q30 23 74 78z" />
    <glyph glyph-name="uni0422" unicode="&#x422;" horiz-adv-x="466" 
d="M196 0v672h-189v67h452v-67h-189v-672h-74z" />
    <glyph glyph-name="uni0423" unicode="&#x423;" horiz-adv-x="596" 
d="M123 0l130 247l-249 492h82l210 -414l215 414h81l-258 -492l-130 -247h-81z" />
    <glyph glyph-name="uni0424" unicode="&#x424;" horiz-adv-x="825" 
d="M452 712zM452 67v-109h-74v109q-206 0 -287 145q-42 76 -43 182l3 58q22 165 161 228q71 32 166 32v82h74v-82q219 -10 297 -158q36 -69 36 -165q0 -181 -126 -266q-83 -56 -207 -56zM452 644v-509q192 1 242 148q16 46 16 105q0 164 -120 226l-39 16q-45 14 -99 14z
M378 644q-152 0 -218 -106q-24 -39 -32 -90q-5 -27 -5 -56q0 -151 105 -217q62 -39 150 -40v509z" />
    <glyph glyph-name="uni0425" unicode="&#x425;" horiz-adv-x="609" 
d="M8 0l251 378l-237 361h87l196 -296l195 296h86l-237 -361l252 -378h-87l-209 316l-210 -316h-87z" />
    <glyph glyph-name="uni0426" unicode="&#x426;" horiz-adv-x="712" 
d="M76 739h74v-672h383v672h74v-672h61v-207h-74v140h-518v739z" />
    <glyph glyph-name="uni0427" unicode="&#x427;" horiz-adv-x="635" 
d="M66 741l74 -2v-235q0 -107 59 -134q31 -14 113 -14h173v383h74v-739h-74v289h-175q-158 0 -209 71q-35 49 -35 150v231z" />
    <glyph glyph-name="uni0428" unicode="&#x428;" horiz-adv-x="964" 
d="M76 739h74v-672h295v672h74v-672h295v672h74v-739h-812v739z" />
    <glyph glyph-name="uni0429" unicode="&#x429;" horiz-adv-x="983" 
d="M949 67v-207h-74v140h-799v739h74v-672h295v672h74v-672h295v672h74l-1 -672h62z" />
    <glyph glyph-name="uni042A" unicode="&#x42a;" horiz-adv-x="710" 
d="M215 0v672h-209v67h283v-299h90q152 0 205 -30q58 -32 85 -107q14 -40 14 -82q0 -97 -53 -157l-21 -19l-9 -6q-73 -38 -202 -39h-183zM289 67h101q110 0 160 27q40 21 54 86q4 18 4 37q0 81 -50 123q-9 7 -19 12q-43 21 -162 21h-88v-306z" />
    <glyph glyph-name="uni042B" unicode="&#x42b;" horiz-adv-x="742" 
d="M150 67h101q110 0 160 27q40 21 54 86q4 18 4 37q0 81 -50 123q-9 7 -19 12q-43 21 -162 21h-88v-306zM150 739v-299h90q152 0 205 -30q58 -32 85 -107q14 -40 14 -82q0 -97 -53 -157l-21 -19q-5 -3 -9 -6q-73 -38 -202 -39h-183v739h74zM592 0v739h74v-739h-74z" />
    <glyph glyph-name="uni042C" unicode="&#x42c;" horiz-adv-x="571" 
d="M150 67h101q110 0 160 27q40 21 54 86q4 18 4 37q0 81 -50 123q-9 7 -19 12q-43 21 -162 21h-88v-306zM150 739v-299h90q152 0 205 -30q58 -32 85 -107q14 -40 14 -82q0 -97 -53 -157l-21 -19q-5 -3 -9 -6q-73 -38 -202 -39h-183v739h74z" />
    <glyph glyph-name="uni042D" unicode="&#x42d;" horiz-adv-x="814" 
d="M694 347h-428v67h426q-17 130 -118 207q-82 63 -190 63q-98 0 -174 -50q-41 -27 -77 -83q-2 -2 -3 -4h-84q56 122 185 175q72 30 155 30q164 0 273 -108q109 -113 111 -277q0 -158 -107 -267q-107 -108 -268 -113h-13q-226 0 -338 207h82q42 -55 74 -78q74 -60 182 -61
q128 0 219 91q84 84 93 201z" />
    <glyph glyph-name="uni042E" unicode="&#x42e;" horiz-adv-x="1081" 
d="M260 414q16 140 126 238q112 100 261 100q153 0 265 -103l33 -33q92 -108 92 -247q0 -147 -103 -257q-101 -109 -248 -123q-20 -2 -39 -2q-156 0 -268 106q-109 103 -119 254h-110v-347h-74v739h74v-325h110zM647 684q-127 0 -220 -90q-93 -98 -96 -222q0 -131 92 -224
q93 -93 224 -93q128 0 220 91q93 96 95 222q0 129 -92 222l-33 29q-85 65 -190 65z" />
    <glyph glyph-name="uni042F" unicode="&#x42f;" horiz-adv-x="604" 
d="M278 279q-161 0 -222 106q-29 50 -29 116q0 142 111 202q66 36 207 36h183v-739h-74v672h-104q-113 0 -170 -27q-77 -37 -78 -141q0 -126 112 -156q28 -7 134 -7h59h12l-289 -341h-92z" />
    <glyph glyph-name="uni0430" unicode="&#x430;" horiz-adv-x="683" 
d="M620 547v-547h-74v96q-66 -88 -153 -104q-27 -5 -58 -5q-135 0 -219 92q-74 79 -74 193q0 130 91 214q81 74 197 74q131 0 208 -99l8 -11v97h74zM332 492q-98 0 -162 -74q-41 -46 -50 -107q-3 -17 -3 -34q0 -105 76 -170q61 -52 143 -52q98 0 160 76q50 61 50 145
q0 102 -75 166q-59 50 -139 50z" />
    <glyph glyph-name="uni0431" unicode="&#x431;" horiz-adv-x="656" 
d="M334 560q132 0 214 -92q70 -80 70 -196q0 -133 -90 -215l-32 -25q-69 -45 -156 -45q-137 0 -221 93q-72 80 -72 197l-1 96q12 325 268 368q3 0 7 1q116 0 246 42v-71l-81 -23q-92 -22 -165 -22q-151 -27 -189 -170l-12 -44q85 103 214 106zM334 492q-103 0 -165 -77
q-36 -46 -45 -106q-2 -17 -2 -34q0 -112 80 -175q57 -45 136 -45q103 0 162 79q43 58 43 137q0 110 -76 174q-44 37 -103 45q-15 2 -30 2z" />
    <glyph glyph-name="uni0432" unicode="&#x432;" horiz-adv-x="473" 
d="M63 0v547h147q104 0 149 -32q48 -36 48 -110q0 -80 -60 -113q92 -38 92 -135q0 -82 -54 -123l-8 -5q-48 -29 -149 -29h-165zM137 67h75q79 0 99 6q13 4 23 12q30 24 36 44q3 11 3 25q0 44 -51 80q-22 16 -120 16h-65v-183zM137 324h67q78 0 96 12q42 28 42 68
q0 37 -32 59q-26 17 -107 17h-66v-156z" />
    <glyph glyph-name="uni0433" unicode="&#x433;" horiz-adv-x="369" 
d="M63 0v547h301v-68l-228 1v-480h-73z" />
    <glyph glyph-name="uni0434" unicode="&#x434;" horiz-adv-x="668" 
d="M499 67l-168 393l-164 -393h332zM111 0v-120h-84v187h66l202 480h78l202 -480h66v-187h-84v120h-446z" />
    <glyph glyph-name="uni0435" unicode="&#x435;" horiz-adv-x="650" 
d="M611 249h-495q5 -90 80 -148q59 -46 133 -46q91 0 153 66q25 26 38 59h77q-21 -64 -80 -120q-78 -73 -186 -73q-126 0 -210 89q-79 83 -79 200q0 124 88 207q81 77 196 77q119 0 202 -82q27 -27 46 -60q37 -65 37 -169zM118 316h419q-26 113 -119 156q-42 20 -93 20
q-102 0 -163 -78q-33 -42 -44 -98z" />
    <glyph glyph-name="uni0436" unicode="&#x436;" horiz-adv-x="768" 
d="M112 547l213 -275l-226 -272h-92l227 272l-213 275h91zM421 547v-547h-74v547h74zM656 547l91 1l-213 -276l227 -272h-92l-226 272z" />
    <glyph glyph-name="uni0437" unicode="&#x437;" horiz-adv-x="458" 
d="M27 161h67l9 -28q35 -77 132 -78l39 3q68 13 84 64q4 12 4 26q-1 67 -56 98q-25 14 -55 14h-109v63h113q54 0 73 53q6 17 6 36v5q-2 46 -57 66q-24 9 -53 9q-73 0 -108 -68l-6 -12h-67l14 38q49 104 153 110h12q110 0 156 -68q22 -33 23 -74l-3 -36q-12 -59 -59 -85
q81 -33 91 -127q1 -11 1 -22q0 -109 -97 -146q-41 -15 -96 -15q-144 0 -195 116q-14 31 -16 58z" />
    <glyph glyph-name="uni0438" unicode="&#x438;" horiz-adv-x="608" 
d="M63 0v547l73 1v-446l336 445h73v-547h-73v445l-336 -445h-73z" />
    <glyph glyph-name="uni0439" unicode="&#x439;" horiz-adv-x="608" 
d="M153 733h64q5 -32 26 -46q29 -16 62 -16t62 16q21 14 26 46h64q-11 -60 -40 -84l-9 -7q-40 -29 -103 -29q-121 0 -148 103q-2 8 -4 17zM63 0v547l73 1v-446l336 445h73v-547h-73v445l-336 -445h-73z" />
    <glyph glyph-name="uni043A" unicode="&#x43a;" horiz-adv-x="477" 
d="M137 548v-548h-74v547zM362 549l91 -2l-213 -275l227 -272h-92l-226 272z" />
    <glyph glyph-name="uni043B" unicode="&#x43b;" horiz-adv-x="554" 
d="M238 547l-230 -547h75l192 460l196 -460h75l-230 547h-78z" />
    <glyph glyph-name="uni043C" unicode="&#x43c;" horiz-adv-x="690" 
d="M553 457l-179 -457h-68l-169 457v-457h-74v547h111l169 -460l173 460l111 2v-549h-74v457z" />
    <glyph glyph-name="uni043D" unicode="&#x43d;" horiz-adv-x="544" 
d="M63 0v547h73v-240h272v240h73v-547h-73v240h-272v-240h-73z" />
    <glyph glyph-name="uni043E" unicode="&#x43e;" 
d="M329 560q132 0 214 -92q70 -80 70 -196q0 -133 -90 -215l-32 -25q-69 -45 -156 -45q-137 0 -221 93q-72 80 -72 197q0 126 90 208q81 75 197 75zM329 492q-103 0 -165 -77q-36 -46 -45 -106q-2 -17 -2 -34q0 -112 80 -175q57 -45 136 -45q103 0 162 79q43 58 43 137
q0 110 -76 174q-44 37 -103 45q-15 2 -30 2z" />
    <glyph glyph-name="uni043F" unicode="&#x43f;" horiz-adv-x="549" 
d="M63 0v547h423v-547h-74v480h-275v-480h-74z" />
    <glyph glyph-name="uni0440" unicode="&#x440;" horiz-adv-x="682" 
d="M63 547h74v-94q78 103 215 107q129 0 213 -91q75 -81 75 -197q0 -125 -89 -208q-83 -77 -201 -77q-140 0 -213 107v-286h-74v739zM349 492q-100 0 -165 -74q-52 -61 -52 -142q0 -107 77 -172q59 -49 141 -49q103 0 166 76q49 60 49 141q0 107 -77 171q-38 32 -88 43
q-25 6 -51 6z" />
    <glyph glyph-name="uni0441" unicode="&#x441;" horiz-adv-x="647" 
d="M524 161h84q-38 -72 -80 -108l-6 -4q-79 -62 -182 -62q-132 0 -218 89q-80 82 -80 199q0 122 89 206q84 79 204 79q130 0 215 -90q35 -36 55 -83l2 -6h-83q-64 109 -190 111q-102 0 -166 -76q-31 -37 -43 -83q-8 -29 -8 -60q0 -100 75 -165q62 -53 145 -53q90 0 154 67
q16 17 33 39z" />
    <glyph glyph-name="uni0442" unicode="&#x442;" horiz-adv-x="362" 
d="M159 0v480h-153v67h350v-67h-123v-480h-74z" />
    <glyph glyph-name="uni0443" unicode="&#x443;" horiz-adv-x="536" 
d="M132 -192l89 210l-212 529h81l173 -436l185 436h79l-316 -739h-79z" />
    <glyph glyph-name="uni0444" unicode="&#x444;" horiz-adv-x="728" 
d="M407 -108h-74v95q-139 1 -222 96q-69 79 -69 194q0 124 91 207q83 76 200 76v71h74v-71q127 -6 207 -96q72 -80 72 -192q0 -133 -91 -215l-31 -24q-69 -46 -157 -46v-95zM333 492q-102 0 -165 -75q-51 -60 -51 -142q0 -111 79 -174q57 -46 137 -46v437zM407 55
q103 1 162 80q42 57 42 136q0 105 -77 170l-30 21q-45 27 -97 30v-437z" />
    <glyph glyph-name="uni0445" unicode="&#x445;" horiz-adv-x="480" 
d="M8 0l190 279l-190 268h84l148 -211l147 211h85l-191 -268l191 -279h-85l-147 219l-148 -219h-84z" />
    <glyph glyph-name="uni0446" unicode="&#x446;" horiz-adv-x="560" 
d="M63 547h74v-480h256v480h74v-480h66v-196h-74v129h-396v547z" />
    <glyph glyph-name="uni0447" unicode="&#x447;" horiz-adv-x="500" 
d="M34 547h74v-169q0 -77 36 -97q26 -15 108 -15h112v281h73v-547h-73v201h-174q-91 0 -133 77q-23 42 -23 96v173z" />
    <glyph glyph-name="uni0448" unicode="&#x448;" horiz-adv-x="822" 
d="M63 547h74v-480h237v480h74v-480h237v481l74 -1v-547h-696v547z" />
    <glyph glyph-name="uni0449" unicode="&#x449;" horiz-adv-x="882" 
d="M751 0h-688v547h74v-480h237v480h74v-480h237v480h74v-480h66v-196h-74v129z" />
    <glyph glyph-name="uni044A" unicode="&#x44a;" horiz-adv-x="556" 
d="M153 0v470h-147v77h221v-204h79q144 0 192 -62l15 -25l11 -32q5 -25 5 -55q0 -115 -72 -148q-17 -8 -39 -13l-53 -7l-47 -1h-165zM227 67h93q113 0 134 54q7 18 7 45q0 62 -43 84l-30 11l-46 7q-17 1 -38 1h-77v-202z" />
    <glyph glyph-name="uni044B" unicode="&#x44b;" horiz-adv-x="620" 
d="M137 67h93q113 0 134 54q7 18 7 45q0 62 -43 84l-30 11l-46 7q-17 1 -38 1h-77v-202zM439 169q0 -115 -72 -148q-17 -8 -39 -13l-53 -7l-47 -1h-165v547h74v-204h79q144 0 192 -62l15 -25l11 -32q5 -25 5 -55zM493 0v547h74v-547h-74z" />
    <glyph glyph-name="uni044C" unicode="&#x44c;" horiz-adv-x="466" 
d="M137 67h93q113 0 134 54q7 18 7 45q0 62 -43 84l-30 11l-46 7q-17 1 -38 1h-77v-202zM439 169q0 -115 -72 -148q-17 -8 -39 -13l-53 -7l-47 -1h-165v547h74v-204h79q144 0 192 -62l15 -25l11 -32q5 -25 5 -55z" />
    <glyph glyph-name="uni044D" unicode="&#x44d;" horiz-adv-x="650" 
d="M214 240v67h318q-15 98 -96 150q-54 35 -120 35q-117 0 -182 -99l-8 -12h-82q44 109 151 155q57 24 121 24q127 0 213 -88q79 -82 79 -197q0 -127 -91 -210l-33 -26q-77 -52 -174 -52q-101 0 -182 62q-46 38 -83 106q-1 3 -3 6h84q65 -85 138 -101q23 -5 50 -5
q101 0 166 75q42 48 51 110h-317z" />
    <glyph glyph-name="uni044E" unicode="&#x44e;" horiz-adv-x="853" 
d="M136 240v-240h-73v547h73v-240h90q13 121 107 194q77 59 179 59q132 0 214 -92q70 -80 70 -196q0 -133 -90 -215l-32 -25q-69 -45 -156 -45q-137 0 -221 94q-59 66 -70 159h-91zM512 492q-103 0 -165 -77q-36 -46 -45 -106q-2 -17 -2 -34q0 -112 80 -175q57 -45 136 -45
q103 0 162 79q43 58 43 137q0 110 -76 174q-44 37 -103 45q-15 2 -30 2z" />
    <glyph glyph-name="uni044F" unicode="&#x44f;" horiz-adv-x="502" 
d="M35 0l195 230q-78 0 -129 48q-43 41 -43 105q0 127 126 155q42 9 101 9h154v-547h-74v480h-64q-102 0 -140 -23l-16 -14q-21 -22 -21 -57q0 -82 114 -98q38 -5 118 -5l-234 -283h-87z" />
    <glyph glyph-name="uni0450" unicode="&#x450;" horiz-adv-x="650" 
d="M611 249h-495q5 -90 80 -148q59 -46 133 -46q91 0 153 66q25 26 38 59h77q-21 -64 -80 -120q-78 -73 -186 -73q-126 0 -210 89q-79 83 -79 200q0 124 88 207q81 77 196 77q119 0 202 -82q27 -27 46 -60q37 -65 37 -169zM118 316h419q-26 113 -119 156q-42 20 -93 20
q-102 0 -163 -78q-33 -42 -44 -98zM282 813l198 -110l-33 -56l-197 108z" />
    <glyph glyph-name="uni0451" unicode="&#x451;" horiz-adv-x="650" 
d="M611 249h-495q5 -90 80 -148q59 -46 133 -46q91 0 153 66q25 26 38 59h77q-21 -64 -80 -120q-78 -73 -186 -73q-126 0 -210 89q-79 83 -79 200q0 124 88 207q81 77 196 77q119 0 202 -82q27 -27 46 -60q37 -65 37 -169zM118 316h419q-26 113 -119 156q-42 20 -93 20
q-102 0 -163 -78q-33 -42 -44 -98zM219 749h74v-126h-74v126zM366 749h74v-126h-74v126z" />
    <glyph glyph-name="uni0452" unicode="&#x452;" horiz-adv-x="588" 
d="M429 -101q-32 -37 -123 -38v-62q76 0 134 22q41 16 76 81q32 58 32 193v132q0 83 -85 153q-52 43 -148 49q-12 1 -25 1h-94v138h218v66h-218v104h-76v-104h-114v-66h114v-568h76v369h97q56 0 96 -25q54 -33 71 -74q10 -23 10 -49v-166q0 -109 -41 -156z" />
    <glyph glyph-name="uni0453" unicode="&#x453;" horiz-adv-x="369" 
d="M126 672l193 116l34 -58l-193 -114zM63 0v547h301v-68l-228 1v-480h-73z" />
    <glyph glyph-name="uni0454" unicode="&#x454;" horiz-adv-x="650" 
d="M436 240h-317q14 -94 94 -148q55 -37 123 -37q88 0 151 64q18 17 37 42h84q-38 -71 -86 -112q-81 -62 -182 -62q-132 0 -218 89q-80 82 -80 199q0 123 89 206q84 79 203 79q132 0 217 -91q35 -39 55 -88h-82q-60 103 -175 111h-15q-103 0 -167 -76q-40 -47 -49 -109h318
v-67z" />
    <glyph glyph-name="uni0455" unicode="&#x455;" horiz-adv-x="388" 
d="M18 161h73q5 -84 71 -102q15 -4 32 -4q55 0 80 47q12 21 12 48q0 47 -35 71q-24 16 -71 34q-75 31 -89 42q-4 3 -12 11q-41 38 -41 98q0 83 64 127q40 27 91 27q87 0 129 -66q23 -35 25 -82h-75q-6 78 -80 80q-47 0 -69 -41q-10 -17 -10 -38q0 -47 50 -72q20 -10 103 -44
q95 -40 95 -140q0 -94 -70 -142q-41 -28 -97 -28q-103 0 -150 76q-25 42 -26 98z" />
    <glyph glyph-name="uni0456" unicode="&#x456;" horiz-adv-x="200" 
d="M63 0v547h74v-547h-74zM63 613v126h74v-126h-74z" />
    <glyph glyph-name="uni0457" unicode="&#x457;" horiz-adv-x="200" 
d="M-10 749h74v-126h-74v126zM137 749h74v-126h-74v126zM64 0v547h74v-547h-74z" />
    <glyph glyph-name="uni0458" unicode="&#x458;" horiz-adv-x="203" 
d="M140 547v-509q0 -112 -35 -158q-13 -18 -35 -35q-47 -34 -115 -37v71q74 4 96 56q15 35 15 103v509h74zM66 613v126h74v-126h-74z" />
    <glyph glyph-name="uni0459" unicode="&#x459;" horiz-adv-x="758" 
d="M740 160q0 -85 -51 -121q-45 -32 -101 -37q-19 -2 -42 -2h-75l-196 460l-192 -460h-75l230 547h78l92 -219h97q96 0 142 -23q53 -27 79 -86q14 -30 14 -59zM624 81q49 28 50 74l-4 23q-10 33 -47 59q-21 15 -120 15h-63l77 -182q86 0 107 11z" />
    <glyph glyph-name="uni045A" unicode="&#x45a;" horiz-adv-x="780" 
d="M626 78q27 12 43 43q9 17 9 33q0 44 -51 80q-23 16 -120 16h-33v-183h43q85 0 109 11zM744 157q0 -84 -51 -121q-47 -34 -143 -36h-17h-133v240h-264v-240h-73v547h73v-240h264v240h74v-223h49q87 0 125 -20q49 -26 78 -81q18 -34 18 -66z" />
    <glyph glyph-name="uni045B" unicode="&#x45b;" horiz-adv-x="582" 
d="M548 0h-78v221q0 74 -81 123q-40 25 -96 25h-97v-369h-76v568h-114v66h114v104h76v-104h218v-66h-218v-138h94q107 0 169 -47q2 -2 4 -3q85 -70 85 -153v-227z" />
    <glyph glyph-name="uni045C" unicode="&#x45c;" horiz-adv-x="502" 
d="M166 672l193 116l34 -58l-193 -114zM137 548v-548h-74v547zM392 549l91 -2l-213 -275l227 -272h-92l-226 272z" />
    <glyph glyph-name="uni045D" unicode="&#x45d;" horiz-adv-x="608" 
d="M63 0v547l73 1v-446l336 445h73v-547h-73v445l-336 -445h-73zM227 760l198 -110l-33 -56l-197 108z" />
    <glyph glyph-name="uni045E" unicode="&#x45e;" horiz-adv-x="536" 
d="M126 733h64q5 -32 26 -46q29 -16 62 -16t62 16q21 14 26 46h64q-11 -60 -40 -84l-9 -7q-40 -29 -103 -29q-121 0 -148 103q-2 8 -4 17zM132 -192l89 210l-212 529h81l173 -436l185 436h79l-316 -739h-79z" />
    <glyph glyph-name="uni045F" unicode="&#x45f;" horiz-adv-x="529" 
d="M236 0h-173v547h74v-480h255v480h74v-547h-166v-140h-64v140z" />
    <glyph glyph-name="uni048C" unicode="&#x48c;" horiz-adv-x="571" 
d="M150 67h101q110 0 160 27q46 23 56 88q2 13 2 26q0 90 -69 125q-43 21 -162 21h-88v-287zM76 561h-72v64h72v114h74v-114h80v-64h-80v-140h90q152 0 205 -30q70 -39 92 -120q7 -28 7 -59q0 -103 -63 -159l-20 -14q-73 -38 -202 -39h-183v561z" />
    <glyph glyph-name="uni048D" unicode="&#x48d;" horiz-adv-x="466" 
d="M137 67h75q86 0 109 11q8 3 13 8q27 24 32 34q7 13 7 34q0 44 -51 80q-22 16 -120 16h-65v-183zM137 413h-1v-89h67q73 0 129 -17q9 -2 13 -5q77 -49 91 -121q2 -12 2 -24l-3 -37q-12 -62 -59 -91q-48 -29 -149 -29h-165v413h-59v64h60v70h74v-70h57v-64h-57z" />
    <glyph glyph-name="uni048E" unicode="&#x48e;" horiz-adv-x="592" 
d="M358 370l-84 84l45 45l109 -109l1 1q55 31 61 110v14q0 101 -67 135q-44 22 -168 22h-105v-306h137q44 0 71 4zM417 311q-49 -12 -125 -12h-142v-299h-74v739h204q133 0 197 -39q79 -47 87 -162q1 -11 1 -23q0 -116 -74 -170q-3 -3 -11 -7l78 -78l-45 -45z" />
    <glyph glyph-name="uni048F" unicode="&#x48f;" horiz-adv-x="682" 
d="M457 82l-101 102l45 45l107 -107q57 62 57 150q0 107 -77 171q-38 32 -88 43q-25 6 -51 6q-100 0 -165 -74q-52 -61 -52 -142q0 -107 77 -172q59 -49 141 -49q58 0 107 27zM508 32q-70 -45 -158 -45q-140 0 -213 107v-286h-74v739h74v-94q78 103 215 107q129 0 213 -91
q75 -81 75 -197q0 -118 -82 -200l82 -82l-45 -45z" />
    <glyph glyph-name="uni0490" unicode="&#x490;" horiz-adv-x="487" 
d="M150 0h-74v739l330 2v64h74v-133h-330v-672z" />
    <glyph glyph-name="uni0491" unicode="&#x491;" horiz-adv-x="369" 
d="M63 0v547l230 1v62h71v-131l-228 1v-480h-73z" />
    <glyph glyph-name="uni0492" unicode="&#x492;" horiz-adv-x="487" 
d="M150 429v-429h-74v429h-66v64h66v246h404v-67h-330v-179h94v-64h-94z" />
    <glyph glyph-name="uni0493" unicode="&#x493;" horiz-adv-x="369" 
d="M136 335h-1v-335h-73v335h-59v64h60v148h301v-68l-228 1v-81h84v-64h-84z" />
    <glyph glyph-name="uni0494" unicode="&#x494;" horiz-adv-x="487" 
d="M150 0h-74v739h404v-67h-330v-672z" />
    <glyph glyph-name="uni0495" unicode="&#x495;" horiz-adv-x="369" 
d="M63 0v547h301v-68l-228 1v-480h-73z" />
    <glyph glyph-name="uni0496" unicode="&#x496;" horiz-adv-x="974" 
d="M103 0h-93l292 379l-292 360h93l292 -360zM529 0h-74v739h74v-739zM871 0l-292 379l292 360h93l-292 -360l292 -379h-93z" />
    <glyph glyph-name="uni0497" unicode="&#x497;" horiz-adv-x="808" 
d="M112 549l213 -277l-226 -272h-92l227 272l-213 275zM441 548v-548h-74v547zM696 549l91 -2l-213 -275l227 -272h-92l-226 272z" />
    <glyph glyph-name="uni0498" unicode="&#x498;" horiz-adv-x="559" 
d="M142 207q1 -44 38 -89q40 -51 97 -51q96 1 139 63q23 33 24 76l-3 36q-16 74 -85 103q-29 12 -63 12h-104v67h106q58 1 89 55q18 31 18 70q-1 69 -56 110q-35 25 -78 25q-100 0 -129 -93q-6 -21 -7 -39h-84l6 41q28 114 130 147q36 12 81 12q100 0 163 -75
q45 -54 49 -127l-1 -41q-10 -75 -75 -112q67 -7 99 -86q19 -46 19 -101q0 -105 -85 -169q-66 -49 -154 -49q-164 0 -207 130q-11 36 -11 74v11h84z" />
    <glyph glyph-name="uni0499" unicode="&#x499;" horiz-adv-x="400" 
d="M27 161h67l4 -31q20 -75 103 -75q61 0 89 43q14 20 14 47q-1 72 -58 99q-22 11 -48 11h-70v73h69q57 0 74 52q5 15 5 32v5q-3 75 -86 75q-70 0 -85 -63l-3 -17h-67l7 37q29 96 120 109q12 2 26 2q134 0 152 -111q3 -15 3 -31l-3 -36q-12 -59 -59 -85q81 -33 91 -127
q1 -11 1 -22q0 -88 -68 -133q-37 -24 -86 -27q-7 -1 -15 -1q-126 0 -165 114q-11 33 -12 60z" />
    <glyph glyph-name="uni049A" unicode="&#x49a;" horiz-adv-x="591" 
d="M150 0h-74v739h74v-739zM492 0l-292 379l292 360h93l-292 -360l292 -379h-93z" />
    <glyph glyph-name="uni049B" unicode="&#x49b;" horiz-adv-x="502" 
d="M137 548v-548h-74v547zM392 549l91 -2l-213 -275l227 -272h-92l-226 272z" />
    <glyph glyph-name="uni049C" unicode="&#x49c;" horiz-adv-x="591" 
d="M150 0h-74v739h74v-739zM492 0l-292 379l292 360h93l-292 -360l292 -379h-93z" />
    <glyph glyph-name="uni049D" unicode="&#x49d;" horiz-adv-x="502" 
d="M137 548v-548h-74v547zM196 294v-1v152h64v-68l132 172l91 -2l-213 -275l227 -272h-92l-145 175v-67h-64v144l-17 20z" />
    <glyph glyph-name="uni049E" unicode="&#x49e;" horiz-adv-x="591" 
d="M492 0l-292 379l292 360h93l-292 -360l292 -379h-93zM150 577v-577h-74v577h-70v64h70v98h74v-98h78v-64h-78z" />
    <glyph glyph-name="uni049F" unicode="&#x49f;" horiz-adv-x="502" 
d="M392 549l91 -2l-213 -275l227 -272h-92l-226 272zM63 397h-59v64h59v86l74 1v-87h65v-64h-65v-397h-74v397z" />
    <glyph glyph-name="uni04A0" unicode="&#x4a0;" horiz-adv-x="591" 
d="M150 0h-74v739h74v-739zM492 0l-292 379l292 360h93l-292 -360l292 -379h-93z" />
    <glyph glyph-name="uni04A1" unicode="&#x4a1;" horiz-adv-x="502" 
d="M137 548v-548h-74v547zM392 549l91 -2l-213 -275l227 -272h-92l-226 272z" />
    <glyph glyph-name="uni04A2" unicode="&#x4a2;" horiz-adv-x="683" 
d="M76 0v739h74v-325h383v325h74v-739h-74v347h-383v-347h-74z" />
    <glyph glyph-name="uni04A3" unicode="&#x4a3;" horiz-adv-x="529" 
d="M63 0v547h73v-240h257v240h73v-547h-73v240h-257v-240h-73z" />
    <glyph glyph-name="uni04A4" unicode="&#x4a4;" horiz-adv-x="844" 
d="M535 0h-74v347h-311v-347h-74v739h74v-325h311v325h358v-67h-284v-672z" />
    <glyph glyph-name="uni04A5" unicode="&#x4a5;" horiz-adv-x="529" 
d="M63 0v547h73v-240h257v240h73v-547h-73v240h-257v-240h-73z" />
    <glyph glyph-name="uni04A6" unicode="&#x4a6;" horiz-adv-x="683" 
d="M76 0v739h531v-739h-74v672h-383v-672h-74z" />
    <glyph glyph-name="uni04A7" unicode="&#x4a7;" horiz-adv-x="529" 
d="M63 0v547h403v-547h-74v480h-255v-480h-74z" />
    <glyph glyph-name="uni04A8" unicode="&#x4a8;" horiz-adv-x="813" 
d="M688 194h82q-112 -207 -338 -207q-164 0 -275 107q-109 115 -113 273q0 165 108 275q109 109 275 110q160 0 265 -100q48 -45 75 -105h-83q-37 58 -78 85q-1 1 -3 2q-74 50 -173 50q-136 0 -226 -95q-85 -89 -85 -219q0 -129 91 -222q91 -92 221 -93q106 0 183 61
q30 23 74 78z" />
    <glyph glyph-name="uni04A9" unicode="&#x4a9;" horiz-adv-x="647" 
d="M524 161h84q-38 -72 -80 -108l-6 -4q-79 -62 -182 -62q-132 0 -218 89q-80 82 -80 199q0 122 89 206q84 79 204 79q130 0 215 -90q35 -36 55 -83l2 -6h-83q-64 109 -190 111q-102 0 -166 -76q-31 -37 -43 -83q-8 -29 -8 -60q0 -100 75 -165q62 -53 145 -53q90 0 154 67
q16 17 33 39z" />
    <glyph glyph-name="uni04AA" unicode="&#x4aa;" horiz-adv-x="813" 
d="M688 194h82q-112 -207 -338 -207q-164 0 -275 107q-109 115 -113 273q0 165 108 275q109 109 275 110q160 0 265 -100q48 -45 75 -105h-83q-37 58 -78 85q-1 1 -3 2q-74 50 -173 50q-136 0 -226 -95q-85 -89 -85 -219q0 -129 91 -222q91 -92 221 -93q106 0 183 61
q30 23 74 78z" />
    <glyph glyph-name="uni04AB" unicode="&#x4ab;" horiz-adv-x="647" 
d="M524 161h84q-38 -72 -80 -108l-6 -4q-79 -62 -182 -62q-132 0 -218 89q-80 82 -80 199q0 122 89 206q84 79 204 79q130 0 215 -90q35 -36 55 -83l2 -6h-83q-64 109 -190 111q-102 0 -166 -76q-31 -37 -43 -83q-8 -29 -8 -60q0 -100 75 -165q62 -53 145 -53q90 0 154 67
q16 17 33 39z" />
    <glyph glyph-name="uni04AC" unicode="&#x4ac;" horiz-adv-x="426" 
d="M176 0v672h-169v67h412v-67h-169v-672h-74z" />
    <glyph glyph-name="uni04AD" unicode="&#x4ad;" horiz-adv-x="362" 
d="M159 0v480h-153v67h350v-67h-123v-480h-74z" />
    <glyph glyph-name="uni04AE" unicode="&#x4ae;" horiz-adv-x="592" 
d="M258 0v247l-256 492h82l210 -414l215 414h81l-258 -492v-247h-74z" />
    <glyph glyph-name="uni04AF" unicode="&#x4af;" horiz-adv-x="554" 
d="M316 0v-192h-78v192l-230 547h75l192 -460l196 460h75z" />
    <glyph glyph-name="uni04B0" unicode="&#x4b0;" horiz-adv-x="592" 
d="M332 185h-1v-185h-74v185h-128v64h128l-255 490h82l210 -414l215 414h81l-257 -490h133v-64h-134z" />
    <glyph glyph-name="uni04B1" unicode="&#x4b1;" horiz-adv-x="554" 
d="M316 0h132v64h-105l203 483h-75l-196 -460l-192 460h-75l203 -483h-99v-64h126v-192h78v192z" />
    <glyph glyph-name="uni04B2" unicode="&#x4b2;" horiz-adv-x="609" 
d="M8 0l251 378l-237 361h87l196 -296l195 296h86l-237 -361l252 -378h-87l-209 316l-210 -316h-87z" />
    <glyph glyph-name="uni04B3" unicode="&#x4b3;" horiz-adv-x="480" 
d="M8 0l190 279l-190 268h84l148 -211l147 211h85l-191 -268l191 -279h-85l-147 219l-148 -219h-84z" />
    <glyph glyph-name="uni04B4" unicode="&#x4b4;" horiz-adv-x="742" 
d="M76 739h74v-672h383v672h74v-672h91v-207h-74v140h-548v739z" />
    <glyph glyph-name="uni04B5" unicode="&#x4b5;" horiz-adv-x="590" 
d="M63 547h74v-480h256v480h74v-480h96v-196h-74v129h-426v547z" />
    <glyph glyph-name="uni04B6" unicode="&#x4b6;" horiz-adv-x="635" 
d="M66 741l74 -2v-225q0 -80 34 -112q37 -34 79 -36h59h173v373h74v-739h-74v299h-175q-103 0 -138 11q-34 11 -58 36q-35 36 -42 65q-6 25 -6 109v221z" />
    <glyph glyph-name="uni04B7" unicode="&#x4b7;" horiz-adv-x="500" 
d="M34 547h74v-169q0 -58 34 -90q25 -20 57 -22h61h104v281h73v-547h-73v201h-174q-67 0 -115 49q-41 41 -41 124v173z" />
    <glyph glyph-name="uni04B8" unicode="&#x4b8;" horiz-adv-x="635" 
d="M292 299v1q-97 0 -134 16q-25 11 -44 31q-35 36 -42 65q-6 25 -6 109v221l74 -2v-225q0 -80 34 -112q38 -34 80 -36h38v128h64v-128h129v373h74v-739h-74v299h-129v-143h-64v142z" />
    <glyph glyph-name="uni04B9" unicode="&#x4b9;" horiz-adv-x="500" 
d="M210 201v1h-20q-67 0 -115 49q-41 41 -41 124v173h74v-169q0 -58 34 -90q25 -21 57 -22h11v110h64v-110h90v281h73v-547h-73v201h-90v-101h-64v100z" />
    <glyph glyph-name="uni04BA" unicode="&#x4ba;" horiz-adv-x="635" 
d="M559 0l-74 2v225q0 80 -34 112q-37 34 -79 36h-59h-173v-373h-74v739h74v-299h175q103 0 138 -11q34 -11 58 -36q35 -36 42 -65q6 -25 6 -109v-221z" />
    <glyph glyph-name="uni04BB" unicode="&#x4bb;" horiz-adv-x="500" 
d="M437 0h-74v169q0 58 -34 90q-25 20 -57 22h-61h-104v-281h-73v547h73v-201h174q67 0 115 -49q41 -41 41 -124v-173z" />
    <glyph glyph-name="uni04BC" unicode="&#x4bc;" horiz-adv-x="813" 
d="M688 194h82q-112 -207 -338 -207q-164 0 -275 107q-109 115 -113 273q0 165 108 275q109 109 275 110q160 0 265 -100q48 -45 75 -105h-83q-37 58 -78 85q-1 1 -3 2q-74 50 -173 50q-136 0 -226 -95q-85 -89 -85 -219q0 -129 91 -222q91 -92 221 -93q106 0 183 61
q30 23 74 78z" />
    <glyph glyph-name="uni04BD" unicode="&#x4bd;" horiz-adv-x="647" 
d="M524 161h84q-38 -72 -80 -108l-6 -4q-79 -62 -182 -62q-132 0 -218 89q-80 82 -80 199q0 122 89 206q84 79 204 79q130 0 215 -90q35 -36 55 -83l2 -6h-83q-64 109 -190 111q-102 0 -166 -76q-31 -37 -43 -83q-8 -29 -8 -60q0 -100 75 -165q62 -53 145 -53q90 0 154 67
q16 17 33 39z" />
    <glyph glyph-name="uni04BE" unicode="&#x4be;" horiz-adv-x="813" 
d="M688 194h82q-112 -207 -338 -207q-164 0 -275 107q-109 115 -113 273q0 165 108 275q109 109 275 110q160 0 265 -100q48 -45 75 -105h-83q-37 58 -78 85q-1 1 -3 2q-74 50 -173 50q-136 0 -226 -95q-85 -89 -85 -219q0 -129 91 -222q91 -92 221 -93q106 0 183 61
q30 23 74 78z" />
    <glyph glyph-name="uni04BF" unicode="&#x4bf;" horiz-adv-x="647" 
d="M524 161h84q-38 -72 -80 -108l-6 -4q-79 -62 -182 -62q-132 0 -218 89q-80 82 -80 199q0 122 89 206q84 79 204 79q130 0 215 -90q35 -36 55 -83l2 -6h-83q-64 109 -190 111q-102 0 -166 -76q-31 -37 -43 -83q-8 -29 -8 -60q0 -100 75 -165q62 -53 145 -53q90 0 154 67
q16 17 33 39z" />
    <glyph glyph-name="uni04C0" unicode="&#x4c0;" horiz-adv-x="226" 
d="M76 0v739h74v-739h-74z" />
    <glyph glyph-name="uni04C1" unicode="&#x4c1;" horiz-adv-x="974" 
d="M103 0h-93l292 379l-292 360h93l292 -360zM529 0h-74v739h74v-739zM871 0l-292 379l292 360h93l-292 -360l292 -379h-93zM335 959h64q5 -32 26 -46q29 -16 62 -16t62 16q21 14 26 46h64q-11 -60 -40 -84q-4 -4 -9 -7q-40 -29 -103 -29q-121 0 -148 103q-2 8 -4 17z" />
    <glyph glyph-name="uni04C2" unicode="&#x4c2;" horiz-adv-x="808" 
d="M112 549l213 -277l-226 -272h-92l227 272l-213 275zM441 548v-548h-74v547zM696 549l91 -2l-213 -275l227 -272h-92l-226 272zM252 767h64q5 -32 26 -46q29 -16 62 -16t62 16q21 14 26 46h64q-11 -60 -40 -84q-4 -4 -9 -7q-40 -29 -103 -29q-121 0 -148 103q-2 8 -4 17z
" />
    <glyph glyph-name="uni04C3" unicode="&#x4c3;" horiz-adv-x="591" 
d="M150 0h-74v739h74v-739zM492 0l-292 379l292 360h93l-292 -360l292 -379h-93z" />
    <glyph glyph-name="uni04C4" unicode="&#x4c4;" horiz-adv-x="502" 
d="M137 548v-548h-74v547zM392 549l91 -2l-213 -275l227 -272h-92l-226 272z" />
    <glyph glyph-name="uni04C7" unicode="&#x4c7;" horiz-adv-x="683" 
d="M76 0v739h74v-325h383v325h74v-739h-74v347h-383v-347h-74z" />
    <glyph glyph-name="uni04C8" unicode="&#x4c8;" horiz-adv-x="529" 
d="M63 0v547h73v-240h257v240h73v-547h-73v240h-257v-240h-73z" />
    <glyph glyph-name="uni04CB" unicode="&#x4cb;" horiz-adv-x="635" 
d="M66 741l74 -2v-225q0 -80 34 -112q37 -34 79 -36h59h173v373h74v-739h-74v299h-175q-103 0 -138 11q-34 11 -58 36q-35 36 -42 65q-6 25 -6 109v221z" />
    <glyph glyph-name="uni04CC" unicode="&#x4cc;" horiz-adv-x="500" 
d="M34 547h74v-169q0 -58 34 -90q25 -20 57 -22h61h104v281h73v-547h-73v201h-174q-67 0 -115 49q-41 41 -41 124v173z" />
    <glyph glyph-name="uni04D0" unicode="&#x4d0;" horiz-adv-x="740" 
d="M11 0l317 739h83l318 -739h-81l-107 249h-344l-108 -249h-78zM225 316h287l-142 339zM217 912h64q5 -32 26 -46q29 -16 62 -16t62 16q21 14 26 46h64q-11 -60 -40 -84l-9 -7q-40 -29 -103 -29q-121 0 -148 103q-2 8 -4 17z" />
    <glyph glyph-name="uni04D1" unicode="&#x4d1;" horiz-adv-x="683" 
d="M620 547v-547h-74v96q-66 -88 -153 -104q-27 -5 -58 -5q-135 0 -219 92q-74 79 -74 193q0 130 91 214q81 74 197 74q131 0 208 -99l8 -11v97h74zM332 492q-98 0 -162 -74q-41 -46 -50 -107q-3 -17 -3 -34q0 -105 76 -170q61 -52 143 -52q98 0 160 76q50 61 50 145
q0 102 -75 166q-59 50 -139 50zM216 767h64q5 -32 26 -46q29 -16 62 -16t62 16q21 14 26 46h64q-11 -60 -40 -84l-9 -7q-40 -29 -103 -29q-121 0 -148 103q-2 8 -4 17z" />
    <glyph glyph-name="uni04D2" unicode="&#x4d2;" horiz-adv-x="740" 
d="M11 0l317 739h83l318 -739h-81l-107 249h-344l-108 -249h-78zM225 316h287l-142 339zM259 918h74v-126h-74v126zM406 918h74v-126h-74v126z" />
    <glyph glyph-name="uni04D3" unicode="&#x4d3;" horiz-adv-x="683" 
d="M620 547v-547h-74v96q-66 -88 -153 -104q-27 -5 -58 -5q-135 0 -219 92q-74 79 -74 193q0 130 91 214q81 74 197 74q131 0 208 -99l8 -11v97h74zM332 492q-98 0 -162 -74q-41 -46 -50 -107q-3 -17 -3 -34q0 -105 76 -170q61 -52 143 -52q98 0 160 76q50 61 50 145
q0 102 -75 166q-59 50 -139 50zM258 773h74v-126h-74v126zM405 773h74v-126h-74v126z" />
    <glyph glyph-name="uni04D4" unicode="&#x4d4;" horiz-adv-x="992" 
d="M11 0l511 739h414v-67h-319v-265h308v-67h-308v-273h319v-67h-393v250h-271l-173 -250h-88zM319 317h224v327z" />
    <glyph glyph-name="uni04D5" unicode="&#x4d5;" horiz-adv-x="1157" 
d="M1118 247h-495q9 -96 87 -152q57 -40 129 -40q96 0 156 70q21 24 33 53h77q-35 -106 -134 -158q-62 -33 -132 -33q-130 0 -220 105v-92h-71v92q-77 -93 -183 -103q-16 -2 -34 -2q-130 0 -214 90q-75 80 -75 195q0 111 71 193q3 3 6 7q80 88 211 88q136 0 214 -103
q2 -2 4 -5v95h71v-95q86 108 216 108q128 0 211 -93q16 -17 29 -37q41 -66 43 -166v-17zM626 314h420q-20 106 -106 153q-47 25 -104 25q-104 0 -166 -76q-35 -44 -44 -102zM333 492q-103 0 -166 -77q-49 -60 -49 -141q0 -103 75 -168q59 -51 140 -51q102 0 166 76
q51 61 51 143q0 110 -79 172q-44 35 -102 43q-17 3 -36 3z" />
    <glyph glyph-name="uni04D6" unicode="&#x4d6;" horiz-adv-x="536" 
d="M76 0v739h404v-67h-330v-265h319v-67h-319v-273h330v-67h-404zM126 912h64q5 -32 26 -46q29 -16 62 -16t62 16q21 14 26 46h64q-11 -60 -40 -84l-9 -7q-40 -29 -103 -29q-121 0 -148 103q-2 8 -4 17z" />
    <glyph glyph-name="uni04D7" unicode="&#x4d7;" horiz-adv-x="650" 
d="M611 249h-495q5 -90 80 -148q59 -46 133 -46q91 0 153 66q25 26 38 59h77q-21 -64 -80 -120q-78 -73 -186 -73q-126 0 -210 89q-79 83 -79 200q0 124 88 207q81 77 196 77q119 0 202 -82q27 -27 46 -60q37 -65 37 -169zM118 316h419q-26 113 -119 156q-42 20 -93 20
q-102 0 -163 -78q-33 -42 -44 -98zM212 767h64q5 -32 26 -46q29 -16 62 -16t62 16q21 14 26 46h64q-11 -60 -40 -84l-9 -7q-40 -29 -103 -29q-121 0 -148 103q-2 8 -4 17z" />
    <glyph glyph-name="uni04D8" unicode="&#x4d8;" horiz-adv-x="813" 
d="M126 194h-82q112 -207 338 -207q164 0 275 107q109 115 113 273q0 165 -108 275q-109 109 -275 110q-160 0 -265 -100q-48 -45 -75 -105h83q37 58 78 85q1 1 3 2q74 50 173 50q136 0 226 -95q85 -89 85 -219q0 -129 -91 -222q-91 -92 -221 -93q-106 0 -183 61
q-30 23 -74 78z" />
    <glyph glyph-name="uni04D9" unicode="&#x4d9;" horiz-adv-x="647" 
d="M126 161h-84q38 -72 80 -108l6 -4q79 -62 182 -62q132 0 218 89q80 82 80 199q0 122 -89 206q-84 79 -204 79q-130 0 -215 -90q-35 -36 -55 -83l-2 -6h83q64 109 190 111q102 0 166 -76q31 -37 43 -83q8 -29 8 -60q0 -100 -75 -165q-62 -53 -145 -53q-90 0 -154 67
q-16 17 -33 39z" />
    <glyph glyph-name="uni04DA" unicode="&#x4da;" horiz-adv-x="813" 
d="M126 194h-82q112 -207 338 -207q164 0 275 107q109 115 113 273q0 165 -108 275q-109 109 -275 110q-160 0 -265 -100q-48 -45 -75 -105h83q37 58 78 85q1 1 3 2q74 50 173 50q136 0 226 -95q85 -89 85 -219q0 -129 -91 -222q-91 -92 -221 -93q-106 0 -183 61
q-30 23 -74 78zM302 965h74v-126h-74v126zM449 965h74v-126h-74v126z" />
    <glyph glyph-name="uni04DB" unicode="&#x4db;" horiz-adv-x="647" 
d="M126 161h-84q38 -72 80 -108l6 -4q79 -62 182 -62q132 0 218 89q80 82 80 199q0 122 -89 206q-84 79 -204 79q-130 0 -215 -90q-35 -36 -55 -83l-2 -6h83q64 109 190 111q102 0 166 -76q31 -37 43 -83q8 -29 8 -60q0 -100 -75 -165q-62 -53 -145 -53q-90 0 -154 67
q-16 17 -33 39zM218 773h74v-126h-74v126zM365 773h74v-126h-74v126z" />
    <glyph glyph-name="uni04DC" unicode="&#x4dc;" horiz-adv-x="974" 
d="M103 0h-93l292 379l-292 360h93l292 -360zM529 0h-74v739h74v-739zM871 0l-292 379l292 360h93l-292 -360l292 -379h-93zM377 965h74v-126h-74v126zM524 965h74v-126h-74v126z" />
    <glyph glyph-name="uni04DD" unicode="&#x4dd;" horiz-adv-x="808" 
d="M112 549l213 -277l-226 -272h-92l227 272l-213 275zM441 548v-548h-74v547zM696 549l91 -2l-213 -275l227 -272h-92l-226 272zM294 773h74v-126h-74v126zM441 773h74v-126h-74v126z" />
    <glyph glyph-name="uni04DE" unicode="&#x4de;" horiz-adv-x="559" 
d="M142 207q1 -44 38 -89q40 -51 97 -51q96 1 139 63q23 33 24 76l-3 36q-16 74 -85 103q-29 12 -63 12h-104v67h106q58 1 89 55q18 31 18 70q-1 69 -56 110q-35 25 -78 25q-100 0 -129 -93q-6 -21 -7 -39h-84l6 41q28 114 130 147q36 12 81 12q100 0 163 -75
q45 -54 49 -127l-1 -41q-10 -75 -75 -112q67 -7 99 -86q19 -46 19 -101q0 -105 -85 -169q-66 -49 -154 -49q-164 0 -207 130q-11 36 -11 74v11h84zM152 965h74v-126h-74v126zM299 965h74v-126h-74v126z" />
    <glyph glyph-name="uni04DF" unicode="&#x4df;" horiz-adv-x="400" 
d="M27 161h67l4 -31q20 -75 103 -75q61 0 89 43q14 20 14 47q-1 72 -58 99q-22 11 -48 11h-70v73h69q57 0 74 52q5 15 5 32v5q-3 75 -86 75q-70 0 -85 -63l-3 -17h-67l7 37q29 96 120 109q12 2 26 2q134 0 152 -111q3 -15 3 -31l-3 -36q-12 -59 -59 -85q81 -33 91 -127
q1 -11 1 -22q0 -88 -68 -133q-37 -24 -86 -27q-7 -1 -15 -1q-126 0 -165 114q-11 33 -12 60zM79 773h74v-126h-74v126zM226 773h74v-126h-74v126z" />
    <glyph glyph-name="uni04E0" unicode="&#x4e0;" horiz-adv-x="559" 
d="M142 207q1 -44 38 -89q40 -51 97 -51q96 1 139 63q23 33 24 76l-3 36q-16 74 -85 103q-29 12 -63 12h-104v67h106q58 1 89 55q18 31 18 70q-1 69 -56 110q-35 25 -78 25q-100 0 -129 -93q-6 -21 -7 -39h-84l6 41q28 114 130 147q36 12 81 12q100 0 163 -75
q45 -54 49 -127l-1 -41q-10 -75 -75 -112q67 -7 99 -86q19 -46 19 -101q0 -105 -85 -169q-66 -49 -154 -49q-164 0 -207 130q-11 36 -11 74v11h84z" />
    <glyph glyph-name="uni04E1" unicode="&#x4e1;" horiz-adv-x="400" 
d="M27 161h67l4 -31q20 -75 103 -75q61 0 89 43q14 20 14 47q-1 72 -58 99q-22 11 -48 11h-70v73h69q57 0 74 52q5 15 5 32v5q-3 75 -86 75q-70 0 -85 -63l-3 -17h-67l7 37q29 96 120 109q12 2 26 2q134 0 152 -111q3 -15 3 -31l-3 -36q-12 -59 -59 -85q81 -33 91 -127
q1 -11 1 -22q0 -88 -68 -133q-37 -24 -86 -27q-7 -1 -15 -1q-126 0 -165 114q-11 33 -12 60z" />
    <glyph glyph-name="uni04E2" unicode="&#x4e2;" horiz-adv-x="740" 
d="M76 739h74v-650l440 650h74v-739h-74v613l-414 -613h-100v739zM202 903h337v-64h-337v64z" />
    <glyph glyph-name="uni04E3" unicode="&#x4e3;" horiz-adv-x="608" 
d="M63 0v547l73 1v-446l336 445h73v-547h-73v445l-336 -445h-73zM135 652h337v-64h-337v64z" />
    <glyph glyph-name="uni04E4" unicode="&#x4e4;" horiz-adv-x="740" 
d="M76 739h74v-650l440 650h74v-739h-74v613l-414 -613h-100v739zM260 965h74v-126h-74v126zM407 965h74v-126h-74v126z" />
    <glyph glyph-name="uni04E5" unicode="&#x4e5;" horiz-adv-x="608" 
d="M63 0v547l73 1v-446l336 445h73v-547h-73v445l-336 -445h-73zM195 713h74v-126h-74v126zM342 713h74v-126h-74v126z" />
    <glyph glyph-name="uni04E6" unicode="&#x4e6;" horiz-adv-x="869" 
d="M435 752q153 0 265 -103l33 -33q92 -108 92 -247q0 -147 -103 -257q-101 -109 -248 -123q-20 -2 -39 -2q-156 0 -269 105q-110 103 -121 253q-1 14 -1 29q0 143 103 252q100 108 245 124q21 2 43 2zM435 684q-127 0 -220 -90q-93 -98 -96 -222q0 -131 92 -224
q93 -93 224 -93q128 0 220 91q93 96 95 222q0 129 -92 222l-33 29q-85 65 -190 65zM324 965h74v-126h-74v126zM471 965h74v-126h-74v126z" />
    <glyph glyph-name="uni04E7" unicode="&#x4e7;" 
d="M329 560q132 0 214 -92q70 -80 70 -196q0 -133 -90 -215l-32 -25q-69 -45 -156 -45q-137 0 -221 93q-72 80 -72 197q0 126 90 208q81 75 197 75zM329 492q-103 0 -165 -77q-36 -46 -45 -106q-2 -17 -2 -34q0 -112 80 -175q57 -45 136 -45q103 0 162 79q43 58 43 137
q0 110 -76 174q-44 37 -103 45q-15 2 -30 2zM217 773h74v-126h-74v126zM364 773h74v-126h-74v126z" />
    <glyph glyph-name="uni04E8" unicode="&#x4e8;" horiz-adv-x="869" 
d="M435 752q153 0 265 -103l33 -33q92 -108 92 -247q0 -147 -103 -257q-101 -109 -248 -123q-20 -2 -39 -2q-156 0 -269 105q-110 103 -121 253q-1 14 -1 29q0 143 103 252q100 108 245 124q21 2 43 2zM749 338h-628q14 -126 111 -209q88 -74 203 -74q128 0 221 92
q82 80 93 191zM748 402q-13 124 -110 206q-88 76 -203 76q-126 0 -219 -89l-30 -33q-56 -72 -65 -160h627z" />
    <glyph glyph-name="uni04E9" unicode="&#x4e9;" 
d="M329 560q132 0 214 -92q70 -80 70 -196q0 -133 -90 -215l-32 -25q-69 -45 -156 -45q-137 0 -221 93q-72 80 -72 197q0 126 90 208q81 75 197 75zM536 241h-417q14 -105 99 -156q51 -30 115 -30q103 0 161 78q35 46 42 108zM536 305q-14 103 -95 155q-50 32 -112 32
q-103 0 -164 -76q-38 -48 -46 -111h417z" />
    <glyph glyph-name="uni04EA" unicode="&#x4ea;" horiz-adv-x="869" 
d="M435 752q153 0 265 -103l33 -33q92 -108 92 -247q0 -147 -103 -257q-101 -109 -248 -123q-20 -2 -39 -2q-156 0 -269 105q-110 103 -121 253q-1 14 -1 29q0 143 103 252q100 108 245 124q21 2 43 2zM749 338h-628q14 -126 111 -209q88 -74 203 -74q128 0 221 92
q82 80 93 191zM748 402q-13 124 -110 206q-88 76 -203 76q-126 0 -219 -89l-30 -33q-56 -72 -65 -160h627zM324 965h74v-126h-74v126zM471 965h74v-126h-74v126z" />
    <glyph glyph-name="uni04EB" unicode="&#x4eb;" 
d="M329 560q132 0 214 -92q70 -80 70 -196q0 -133 -90 -215l-32 -25q-69 -45 -156 -45q-137 0 -221 93q-72 80 -72 197q0 126 90 208q81 75 197 75zM536 241h-417q14 -105 99 -156q51 -30 115 -30q103 0 161 78q35 46 42 108zM536 305q-14 103 -95 155q-50 32 -112 32
q-103 0 -164 -76q-38 -48 -46 -111h417zM217 773h74v-126h-74v126zM364 773h74v-126h-74v126z" />
    <glyph glyph-name="uni04EC" unicode="&#x4ec;" horiz-adv-x="814" 
d="M694 347h-428v67h426q-17 130 -118 207q-82 63 -190 63q-98 0 -174 -50q-41 -27 -77 -83q-2 -2 -3 -4h-84q56 122 185 175q72 30 155 30q164 0 273 -108q109 -113 111 -277q0 -158 -107 -267q-107 -108 -268 -113h-13q-226 0 -338 207h82q42 -55 74 -78q74 -60 182 -61
q128 0 219 91q84 84 93 201zM300 965h74v-126h-74v126zM447 965h74v-126h-74v126z" />
    <glyph glyph-name="uni04ED" unicode="&#x4ed;" horiz-adv-x="650" 
d="M214 240v67h318q-15 98 -96 150q-54 35 -120 35q-117 0 -182 -99l-8 -12h-82q44 109 151 155q57 24 121 24q127 0 213 -88q79 -82 79 -197q0 -127 -91 -210l-33 -26q-77 -52 -174 -52q-101 0 -182 62q-46 38 -83 106q-1 3 -3 6h84q65 -85 138 -101q23 -5 50 -5
q101 0 166 75q42 48 51 110h-317zM218 773h74v-126h-74v126zM365 773h74v-126h-74v126z" />
    <glyph glyph-name="uni04EE" unicode="&#x4ee;" horiz-adv-x="596" 
d="M123 0l130 247l-249 492h82l210 -414l215 414h81l-258 -492l-130 -247h-81zM129 903h337v-64h-337v64z" />
    <glyph glyph-name="uni04EF" unicode="&#x4ef;" horiz-adv-x="536" 
d="M132 -192l89 210l-212 529h81l173 -436l185 436h79l-316 -739h-79zM100 711h337v-64h-337v64z" />
    <glyph glyph-name="uni04F0" unicode="&#x4f0;" horiz-adv-x="596" 
d="M123 0l130 247l-249 492h82l210 -414l215 414h81l-258 -492l-130 -247h-81zM187 965h74v-126h-74v126zM334 965h74v-126h-74v126z" />
    <glyph glyph-name="uni04F1" unicode="&#x4f1;" horiz-adv-x="536" 
d="M132 -192l89 210l-212 529h81l173 -436l185 436h79l-316 -739h-79zM158 773h74v-126h-74v126zM305 773h74v-126h-74v126z" />
    <glyph glyph-name="uni04F2" unicode="&#x4f2;" horiz-adv-x="596" 
d="M123 0l130 247l-249 492h82l210 -414l215 414h81l-258 -492l-130 -247h-81zM95 886l171 123l38 -49l-174 -121zM291 886l171 123l38 -49l-174 -121z" />
    <glyph glyph-name="uni04F3" unicode="&#x4f3;" horiz-adv-x="536" 
d="M132 -192l89 210l-212 529h81l173 -436l185 436h79l-316 -739h-79zM66 694l171 123l38 -49l-174 -121zM262 694l171 123l38 -49l-174 -121z" />
    <glyph glyph-name="uni04F4" unicode="&#x4f4;" horiz-adv-x="635" 
d="M66 741l74 -2v-235q0 -107 59 -134q31 -14 113 -14h173v383h74v-739h-74v289h-175q-158 0 -209 71q-35 49 -35 150v231zM202 965h74v-126h-74v126zM349 965h74v-126h-74v126z" />
    <glyph glyph-name="uni04F5" unicode="&#x4f5;" horiz-adv-x="500" 
d="M34 547h74v-169q0 -77 36 -97q26 -15 108 -15h112v281h73v-547h-73v201h-174q-91 0 -133 77q-23 42 -23 96v173zM125 773h74v-126h-74v126zM272 773h74v-126h-74v126z" />
    <glyph glyph-name="uni04F8" unicode="&#x4f8;" horiz-adv-x="778" 
d="M150 67h101q110 0 160 27q40 21 54 86q4 18 4 37q0 81 -50 123q-9 7 -19 12q-43 21 -162 21h-88v-306zM150 739v-299h90q152 0 205 -30q58 -32 85 -107q14 -40 14 -82q0 -97 -53 -157l-21 -19q-5 -3 -9 -6q-73 -38 -202 -39h-183v739h74zM592 0v739h74v-739h-74zM278 965
h74v-126h-74v126zM425 965h74v-126h-74v126z" />
    <glyph glyph-name="uni04F9" unicode="&#x4f9;" horiz-adv-x="635" 
d="M137 67h75q148 0 160 82q1 6 1 12l-3 29q-24 73 -168 74h-65v-197zM439 164q0 -117 -92 -149q-45 -15 -119 -15h-165v547h74v-209h67q232 0 235 -174zM483 0v547h74v-547h-74zM207 773h74v-126h-74v126zM354 773h74v-126h-74v126z" />
    <glyph glyph-name="endash" unicode="&#x2013;" horiz-adv-x="500" 
d="M0 296h500v-63h-500v63z" />
    <glyph glyph-name="emdash" unicode="&#x2014;" horiz-adv-x="1000" 
d="M0 296h1000v-63h-1000v63z" />
    <glyph glyph-name="quoteleft" unicode="&#x2018;" horiz-adv-x="351" 
d="M260 547h-74l-88 192h74z" />
    <glyph glyph-name="quoteright" unicode="&#x2019;" horiz-adv-x="351" 
d="M91 547l88 192h74l-88 -192h-74z" />
    <glyph glyph-name="quotesinglbase" unicode="&#x201a;" horiz-adv-x="354" 
d="M89 -67l88 193h74l-88 -193h-74z" />
    <glyph glyph-name="quotedblleft" unicode="&#x201c;" horiz-adv-x="502" 
d="M406 547h-74l-88 192h74zM258 547h-74l-88 192h74z" />
    <glyph glyph-name="quotedblright" unicode="&#x201d;" horiz-adv-x="484" 
d="M87 547l88 192h74l-88 -192h-74zM231 547l88 192h74l-88 -192h-74z" />
    <glyph glyph-name="quotedblbase" unicode="&#x201e;" horiz-adv-x="502" 
d="M89 -67l88 193h74l-88 -193h-74zM236 -67l88 193h74l-88 -193h-74z" />
    <glyph glyph-name="dagger" unicode="&#x2020;" horiz-adv-x="553" 
d="M311 739v-203h183v-66h-183v-603h-74v603h-178v66h178v203h74z" />
    <glyph glyph-name="daggerdbl" unicode="&#x2021;" horiz-adv-x="553" 
d="M312 739v-176h182v-70h-182v-92h182v-70h-182v-464h-74v464h-179v70h179v92h-179v70h179v176h74z" />
    <glyph glyph-name="bullet" unicode="&#x2022;" horiz-adv-x="606" 
d="M303 488q89 0 144 -68q41 -50 41 -116q0 -90 -68 -145q-51 -41 -119 -41q-84 0 -140 67q-43 51 -43 118q0 87 67 143q52 42 118 42z" />
    <glyph glyph-name="ellipsis" unicode="&#x2026;" horiz-adv-x="1000" 
d="M130 0v126h74v-126h-74zM463 0v126h74v-126h-74zM796 0v126h74v-126h-74z" />
    <glyph glyph-name="perthousand" unicode="&#x2030;" horiz-adv-x="1174" 
d="M514 739h74l-334 -739h-72zM578 338q81 0 133 -64q41 -49 41 -111q0 -84 -65 -137q-49 -39 -111 -39q-82 0 -135 65q-40 48 -40 110q0 85 66 137q48 39 111 39zM577 272q-60 0 -92 -50q-17 -27 -17 -60q0 -58 48 -90q27 -19 60 -19q57 0 89 48q19 28 19 61q0 58 -48 91
q-27 19 -59 19zM977 338q81 0 133 -64q41 -49 41 -111q0 -84 -65 -137q-49 -39 -111 -39q-82 0 -135 65q-40 48 -40 110q0 85 66 137q48 39 111 39zM976 272q-60 0 -92 -50q-17 -27 -17 -60q0 -58 48 -90q27 -19 60 -19q57 0 89 48q19 28 19 61q0 58 -48 91l-23 13
q-17 6 -36 6zM190 749q81 0 134 -65q40 -49 40 -111q0 -84 -65 -137q-49 -39 -111 -39q-83 0 -136 65q-39 49 -39 111q0 85 66 137q48 39 111 39zM189 683q-59 0 -91 -49q-19 -27 -19 -61q0 -58 48 -91q28 -19 61 -19q57 0 90 49q18 27 18 61q0 58 -48 91q-27 19 -59 19z
" />
    <glyph glyph-name="guilsinglleft" unicode="&#x2039;" horiz-adv-x="251" 
d="M152 99l-112 201l112 199l59 -32l-93 -167l93 -168z" />
    <glyph glyph-name="guilsinglright" unicode="&#x203a;" horiz-adv-x="251" 
d="M99 99l-59 33l93 168l-93 167l59 32l112 -199z" />
    <glyph glyph-name="fraction" unicode="&#x2044;" horiz-adv-x="166" 
d="M-115 0l342 739h54l-342 -739h-54z" />
    <glyph glyph-name="Euro" unicode="&#x20ac;" horiz-adv-x="554" 
d="M-32 400l24 59h75q24 131 68 190q5 7 11 14q75 89 207 89q68 0 121 -29q43 -23 87 -80q6 -7 12 -15l-31 -69q-62 92 -118 115q-24 10 -55 12h-15q-109 0 -164 -86q-27 -42 -48 -141h351l-25 -59h-332q-2 -34 -2 -38q0 -17 1 -31h303l-24 -59h-274q23 -171 141 -210
q31 -10 67 -10q76 0 132 42q3 3 7 6q15 12 49 43v-81q-66 -66 -155 -74l-32 -1q-139 0 -213 99q-44 57 -62 139q-4 20 -9 47h-96l24 59h68q-1 14 -1 31q0 4 2 38h-94z" />
    <glyph glyph-name="uni2116" unicode="&#x2116;" horiz-adv-x="1017" 
d="M112 76h-77v-76h151v635l366 -635h74v663h149v76h-223v-599l-340 599h-100v-663zM650 200h300v-64h-300v64zM805 565q74 0 118 -61q28 -40 28 -92q0 -78 -60 -123l-27 -16q-30 -14 -63 -14q-76 0 -120 61q-30 41 -30 93q0 77 61 122q41 30 93 30zM803 508q-55 0 -82 -46
q-14 -23 -14 -50q0 -53 44 -81q23 -15 50 -15q53 0 80 46q13 23 13 50q0 54 -44 82l-23 11z" />
    <glyph glyph-name="trademark" unicode="&#x2122;" horiz-adv-x="1000" 
d="M938 739v-399h-64v344l-156 -344h-42l-151 345v-345h-64v399h109l127 -284l135 284h106zM413 739v-58h-144v-341h-64v341h-142v58h350z" />
    <glyph glyph-name="partialdiff" unicode="&#x2202;" horiz-adv-x="494" 
d="M107 674l-41 51q77 28 129 28q115 0 191 -101t76 -249q0 -141 -50 -262q-14 -34 -29 -57q-65 -94 -170 -94q-89 0 -144 70q-43 54 -43 124q0 98 69 171q53 57 126 57q58 0 118 -42q15 -10 33 -24q7 70 7 102q0 183 -89 239l-27 12q-20 7 -44 7q-48 0 -112 -32zM366 312
q-4 4 -9 8q-46 47 -96 47q-67 0 -111 -71q-37 -59 -37 -137q0 -101 54 -130q15 -8 34 -8q59 0 101 65q7 10 12 21q29 57 46 162q2 18 6 43z" />
    <glyph glyph-name="Delta" unicode="&#x2206;" horiz-adv-x="612" 
d="M6 0l321 688l281 -688h-602zM77 51h402l-189 458z" />
    <glyph glyph-name="summation" unicode="&#x2211;" horiz-adv-x="713" 
d="M176 711l188 -370l-201 -352h328q97 0 131 26q26 19 47 72h26l-54 -210h-627l242 408l-233 467h599l10 -165h-26q-13 80 -49 103q-31 21 -113 21h-268z" />
    <glyph glyph-name="minus" unicode="&#x2212;" horiz-adv-x="606" 
d="M555 341v-74h-504v74h504z" />
    <glyph glyph-name="radical" unicode="&#x221a;" horiz-adv-x="549" 
d="M363 -35l-242 496l-95 -47l-16 35l146 71l195 -394l127 787l37 -5z" />
    <glyph glyph-name="infinity" unicode="&#x221e;" horiz-adv-x="768" 
d="M654 320q0 73 -58 105q-27 15 -62 15q-58 0 -112 -98l-10 -20l24 -43q48 -75 98 -75q74 0 105 56q15 26 15 60zM110 324q0 -73 58 -105q27 -15 62 -15q57 0 110 97l10 21l-24 43q-48 75 -96 75q-74 0 -105 -56q-15 -26 -15 -60zM42 324q0 106 73 161q47 35 111 35
q94 0 145 -83q6 -10 11 -21q33 70 106 95q28 9 58 9q104 0 150 -87q24 -47 24 -109q0 -113 -74 -164q-42 -30 -100 -30q-86 0 -141 67q-14 17 -23 37q-39 -84 -122 -101q-16 -3 -34 -3q-99 0 -151 77q-33 50 -33 117z" />
    <glyph glyph-name="notequal" unicode="&#x2260;" horiz-adv-x="549" 
d="M350 362l-63 -124h242v-74h-279l-61 -122l-66 34l44 88h-142v74h179l63 124h-242v74h279l61 122l66 -34l-44 -88h142v-74h-179z" />
    <glyph glyph-name="lessequal" unicode="&#x2264;" horiz-adv-x="549" 
d="M26 411l504 235v-81l-398 -186l398 -185v-82l-504 235v64zM530 74v-74h-504v74h504z" />
    <glyph glyph-name="greaterequal" unicode="&#x2265;" horiz-adv-x="549" 
d="M530 411v-64l-504 -235v82l398 185l-398 186v81zM530 74v-74h-504v74h504z" />
    <glyph glyph-name="lozenge" unicode="&#x25ca;" horiz-adv-x="494" 
d="M209 0l-191 377l196 363h63l189 -366l-197 -374h-60zM240 58l162 316l-157 309l-164 -307z" />
    <glyph glyph-name="uniF6C3" unicode="&#xf6c3;" horiz-adv-x="351" 
d="M101 -225l48 172h74l-48 -172h-74z" />
    <glyph glyph-name="uniF6C4" unicode="&#xf6c4;" horiz-adv-x="389" 
d="M63 0v547h301v-68l-228 1v-480h-73z" />
    <glyph glyph-name="uniF6C5" unicode="&#xf6c5;" horiz-adv-x="656" 
d="M334 560q132 0 214 -92q70 -80 70 -196q0 -133 -90 -215l-32 -25q-69 -45 -156 -45q-134 0 -219 94q-73 82 -74 196l4 50q17 118 89 171q8 6 17 11q-40 28 -50 53q-9 22 -9 60q0 119 189 120h34l73 2q93 7 173 29v-72l-111 -21q-78 -11 -135 -12q-92 -1 -110 -7
q-23 -7 -29 -28l-4 -25l4 -16q12 -29 41 -39q5 -2 10 -2l61 8q13 1 40 1zM334 492q-103 0 -165 -77q-36 -46 -45 -106q-2 -17 -2 -34q0 -112 80 -175q57 -45 136 -45q103 0 162 79q43 58 43 137q0 110 -76 174q-44 37 -103 45q-15 2 -30 2z" />
    <glyph glyph-name="uniF6C6" unicode="&#xf6c6;" horiz-adv-x="668" 
d="M499 67l-168 393l-164 -393h332zM111 0v-120h-84v187h66l202 480h78l202 -480h66v-187h-84v120h-446z" />
    <glyph glyph-name="uniF6C7" unicode="&#xf6c7;" horiz-adv-x="549" 
d="M63 0v547h423v-547h-74v480h-275v-480h-74z" />
    <glyph glyph-name="uniF6C8" unicode="&#xf6c8;" horiz-adv-x="362" 
d="M159 0v480h-153v67h350v-67h-123v-480h-74z" />
    <glyph glyph-name="glyph290" horiz-adv-x="426" 
d="M176 0v672h-169v67h412v-67h-169v-672h-74zM139 -225l48 172h74l-48 -172h-74z" />
    <glyph glyph-name="glyph291" horiz-adv-x="339" 
d="M130 0v480h-118v67h118v192h74v-192h123v-67h-123v-480h-74zM95 -225l48 172h74l-48 -172h-74z" />
    </font>
</defs>
</svg>
